<svg id="Layer_1" data-name="Layer 1" xmlns="http://www.w3.org/2000/svg" xmlns:xlink="http://www.w3.org/1999/xlink" viewBox="0 0 4500 2500"><defs><style>.cls-1{fill:none;}.cls-2{fill:#aed3f0;}.cls-3{clip-path:url(#clip-path);}.cls-4{fill:#c3dcf3;}.cls-15,.cls-16,.cls-17,.cls-18,.cls-20,.cls-21,.cls-22,.cls-23,.cls-26,.cls-27,.cls-29,.cls-31,.cls-38,.cls-4,.cls-42,.cls-43,.cls-5,.cls-6,.cls-7,.cls-8{fill-rule:evenodd;}.cls-5{fill:#8ba4b9;}.cls-6{fill:#7d9cb4;}.cls-7{fill:#96afc2;}.cls-8{fill:#d4e8f7;}.cls-9{fill:#97c6ec;}.cls-10{fill:#c9e2f5;}.cls-11{fill:#abd1ef;}.cls-12{fill:#b1d5f1;}.cls-13,.cls-43{fill:#7ab7e7;}.cls-14,.cls-23,.cls-42{fill:#fff;}.cls-14{fill-opacity:0.93;}.cls-15,.cls-33{fill:#edd573;}.cls-16,.cls-40{fill:#3fa092;}.cls-17{fill:#ec6098;}.cls-18{fill:#84bde9;}.cls-19,.cls-20{fill:#65ade2;}.cls-21{fill:url(#linear-gradient);}.cls-22{fill:#90c3eb;}.cls-24,.cls-29{fill:#1c4f80;}.cls-25{fill:#709fca;}.cls-26{fill:#b1d5f0;}.cls-27{fill:url(#linear-gradient-2);}.cls-28{fill:#14385a;}.cls-30{fill:#2b78c3;}.cls-31{fill:url(#linear-gradient-3);}.cls-32{fill:#aa9748;}.cls-34{fill:url(#linear-gradient-4);}.cls-35{fill:#9f4d6d;}.cls-36{fill:#ec6198;}.cls-37{fill:url(#linear-gradient-5);}.cls-38{fill:#3676a8;}.cls-39{fill:#0e847c;}.cls-41{clip-path:url(#clip-path-2);}.cls-42{fill-opacity:0.45;}</style><clipPath id="clip-path"><rect class="cls-1" width="4500" height="2500"/></clipPath><linearGradient id="linear-gradient" x1="1290.7" y1="1791.29" x2="1291.89" y2="1791.29" gradientTransform="matrix(-5.76, -797.69, -797.69, 5.76, 1439263.97, 1021738.72)" gradientUnits="userSpaceOnUse"><stop offset="0" stop-opacity="0"/><stop offset="1"/></linearGradient><linearGradient id="linear-gradient-2" x1="1290.75" y1="1790.89" x2="1291.94" y2="1790.44" gradientTransform="matrix(-531.28, -1200.4, -1349.68, 14.11, 3104728.45, 1525418.95)" gradientUnits="userSpaceOnUse"><stop offset="0" stop-color="#fff" stop-opacity="0"/><stop offset="1" stop-color="#fff"/></linearGradient><linearGradient id="linear-gradient-3" x1="1289.25" y1="1788.61" x2="1290.43" y2="1788.61" gradientTransform="matrix(-56.3, 789.66, 789.66, 56.3, -1335745.48, -1116896.49)" xlink:href="#linear-gradient"/><linearGradient id="linear-gradient-4" x1="1291.24" y1="1791.62" x2="1292.42" y2="1791.62" gradientTransform="matrix(-218.37, -754.67, -754.67, 218.37, 1634697.74, 585112.78)" xlink:href="#linear-gradient-2"/><linearGradient id="linear-gradient-5" x1="1290.75" y1="1790.63" x2="1291.94" y2="1790.63" gradientTransform="matrix(-343.25, -1100.87, -1100.87, 343.25, 2418010.3, 808129.45)" xlink:href="#linear-gradient-2"/><clipPath id="clip-path-2"><rect class="cls-1" x="1906.62" y="2074.49" width="258.09" height="415.84"/></clipPath></defs><g id="c54"><rect class="cls-2" width="4500" height="2500"/><rect class="cls-1" width="4500" height="2500"/><g class="cls-3"><path class="cls-4" d="M4500,2500H1777c189.78-256.14,452-422.81,769.47-468.43,166.19-23.88,340.45-30.36,507.55-11,383.85,44.45,1066.8,236.35,1413.68,6.61q16.74-11.06,32.36-23.42ZM4500,591c-58.36-59.94-123.24-112.55-193-155.42-161.9-99.46-358.3-141.68-543.07-173.82C2856.9,103.9,1954.37,580,1054,381.88,806.85,327.5,501.58,201.07,301.88,0H4500Z"/><path class="cls-5" d="M2031.79,919.88H775.43L363.94,1460.23V2521.51H2031.79Z"/><path class="cls-6" d="M-158.33,2021.81A154.23,154.23,0,0,1-113.4,1913,153.19,153.19,0,0,1-4.9,1867.91H1279.22v318.31H-4.9a153.25,153.25,0,0,1-108.5-45.08,154.22,154.22,0,0,1-44.93-108.84Z"/><path class="cls-7" d="M-158.33,2021.81c0-40.81,15.09-80,41.94-108.83s63.28-45.07,101.27-45.07H1183.44v318.31H-15.12c-38,0-74.42-16.23-101.27-45.08s-41.94-68-41.94-108.84Z"/><path class="cls-8" d="M1278.4,1867.9H-4.9A153.16,153.16,0,0,0-113.4,1913a154.22,154.22,0,0,0-44.93,108.84v10.48a154.21,154.21,0,0,0,44.93,108.83A153.16,153.16,0,0,0-4.9,2186.21H1278.4v-30H-4.9a123.33,123.33,0,0,1-87.33-36.29,124.07,124.07,0,0,1-36.17-87.6v-10.48a124.09,124.09,0,0,1,36.17-87.61A123.33,123.33,0,0,1-4.9,1897.92H1278.4Z"/><path class="cls-6" d="M14.25,1928.48a100.21,100.21,0,0,0-29,0l-4.72,16.24a85.76,85.76,0,0,0-25.85,10.74l-14.79-8.12a99.67,99.67,0,0,0-20.52,20.6l8.09,14.82a85.41,85.41,0,0,0-10.7,25.94l-16.19,4.75a100.13,100.13,0,0,0,0,29.13l16.19,4.74a85.31,85.31,0,0,0,10.7,25.94l-8.09,14.83a100.21,100.21,0,0,0,20.52,20.61l14.79-8.14a85,85,0,0,0,25.85,10.75l4.72,16.23a99.51,99.51,0,0,0,29,0L19,2111.31a85,85,0,0,0,25.86-10.75l14.79,8.14a100.21,100.21,0,0,0,20.52-20.61l-8.09-14.83a85.56,85.56,0,0,0,10.7-25.94L99,2042.58a101.54,101.54,0,0,0,0-29.13l-16.19-4.75a85.66,85.66,0,0,0-10.7-25.94l8.09-14.82a99.67,99.67,0,0,0-20.52-20.6l-14.79,8.12A85.71,85.71,0,0,0,19,1944.72Zm-14.52,60.3A39.19,39.19,0,0,1,38.84,2028,39.18,39.18,0,0,1-.27,2067.24,39.18,39.18,0,0,1-39.36,2028,39.18,39.18,0,0,1-.27,1988.78Z"/><path class="cls-8" d="M-3.65,1928.48a100.21,100.21,0,0,0-29,0l-4.72,16.24a85.92,85.92,0,0,0-25.86,10.74l-14.79-8.12a100.17,100.17,0,0,0-20.52,20.6l8.1,14.82a85.41,85.41,0,0,0-10.7,25.94l-16.2,4.75a100.83,100.83,0,0,0,0,29.13l16.2,4.74a85.31,85.31,0,0,0,10.7,25.94l-8.1,14.83a100.71,100.71,0,0,0,20.52,20.61l14.79-8.14a85.19,85.19,0,0,0,25.86,10.75l4.72,16.23a99.51,99.51,0,0,0,29,0l4.73-16.23a85.19,85.19,0,0,0,25.86-10.75l14.79,8.14a100.71,100.71,0,0,0,20.52-20.61l-8.1-14.83a85.58,85.58,0,0,0,10.71-25.94l16.19-4.74a101.54,101.54,0,0,0,0-29.13l-16.19-4.75a85.69,85.69,0,0,0-10.71-25.94l8.1-14.82a100.17,100.17,0,0,0-20.52-20.6l-14.79,8.12a85.92,85.92,0,0,0-25.86-10.74Zm-14.52,60.3A39.19,39.19,0,0,1,20.94,2028a39.18,39.18,0,0,1-39.11,39.22A39.18,39.18,0,0,1-57.27,2028,39.19,39.19,0,0,1-18.17,1988.78Z"/><path class="cls-6" d="M388.6,1928.48a100.14,100.14,0,0,0-29,0l-4.72,16.24A85.82,85.82,0,0,0,329,1955.46l-14.79-8.12a99.67,99.67,0,0,0-20.52,20.6l8.1,14.82a85.18,85.18,0,0,0-10.71,25.94l-16.19,4.75a100.13,100.13,0,0,0,0,29.13l16.19,4.74a85.08,85.08,0,0,0,10.71,25.94l-8.1,14.83a100.21,100.21,0,0,0,20.52,20.61l14.79-8.14a85.08,85.08,0,0,0,25.86,10.75l4.72,16.23a99.45,99.45,0,0,0,29,0l4.74-16.23a85,85,0,0,0,25.85-10.75l14.8,8.14a100.41,100.41,0,0,0,20.51-20.61l-8.09-14.83a85.56,85.56,0,0,0,10.7-25.94l16.2-4.74a101.54,101.54,0,0,0,0-29.13l-16.2-4.75a85.66,85.66,0,0,0-10.7-25.94l8.09-14.82a99.87,99.87,0,0,0-20.51-20.6l-14.8,8.12a85.76,85.76,0,0,0-25.85-10.74Zm-14.52,60.3A39.23,39.23,0,1,1,335,2028,39.19,39.19,0,0,1,374.08,1988.78Z"/><path class="cls-8" d="M370.7,1928.48a100.21,100.21,0,0,0-29,0l-4.72,16.24a85.76,85.76,0,0,0-25.85,10.74l-14.79-8.12a99.67,99.67,0,0,0-20.52,20.6l8.09,14.82a85.41,85.41,0,0,0-10.7,25.94L257,2013.45a100.13,100.13,0,0,0,0,29.13l16.19,4.74a85.31,85.31,0,0,0,10.7,25.94l-8.09,14.83a100.21,100.21,0,0,0,20.52,20.61l14.79-8.14a85,85,0,0,0,25.85,10.75l4.72,16.23a99.51,99.51,0,0,0,29,0l4.74-16.23a85,85,0,0,0,25.85-10.75l14.79,8.14a100.21,100.21,0,0,0,20.52-20.61l-8.09-14.83a85.56,85.56,0,0,0,10.7-25.94l16.19-4.74a100.83,100.83,0,0,0,0-29.13l-16.19-4.75a85.66,85.66,0,0,0-10.7-25.94l8.09-14.82a99.67,99.67,0,0,0-20.52-20.6l-14.79,8.12a85.76,85.76,0,0,0-25.85-10.74Zm-14.52,60.3A39.23,39.23,0,1,1,317.09,2028,39.19,39.19,0,0,1,356.18,1988.78Z"/><path class="cls-6" d="M763,1928.48a100.21,100.21,0,0,0-29,0l-4.72,16.24a85.92,85.92,0,0,0-25.86,10.74l-14.79-8.12a100.17,100.17,0,0,0-20.52,20.6l8.1,14.82a85.43,85.43,0,0,0-10.71,25.94l-16.19,4.75a100.13,100.13,0,0,0,0,29.13l16.19,4.74a85.33,85.33,0,0,0,10.71,25.94l-8.1,14.83a100.71,100.71,0,0,0,20.52,20.61l14.79-8.14a85.19,85.19,0,0,0,25.86,10.75l4.72,16.23a99.51,99.51,0,0,0,29,0l4.73-16.23a85.19,85.19,0,0,0,25.86-10.75l14.79,8.14a100.71,100.71,0,0,0,20.52-20.61l-8.1-14.83a85.58,85.58,0,0,0,10.71-25.94l16.19-4.74a101.54,101.54,0,0,0,0-29.13l-16.19-4.75a85.69,85.69,0,0,0-10.71-25.94l8.1-14.82a100.17,100.17,0,0,0-20.52-20.6l-14.79,8.12a85.92,85.92,0,0,0-25.86-10.74Zm-14.52,60.3a39.23,39.23,0,1,1-39.1,39.24A39.19,39.19,0,0,1,748.44,1988.78Z"/><path class="cls-8" d="M745.05,1928.48a100.14,100.14,0,0,0-29,0l-4.72,16.24a85.92,85.92,0,0,0-25.86,10.74l-14.79-8.12a100.17,100.17,0,0,0-20.52,20.6l8.1,14.82a85.18,85.18,0,0,0-10.71,25.94l-16.19,4.75a100.13,100.13,0,0,0,0,29.13l16.19,4.74a85.08,85.08,0,0,0,10.71,25.94l-8.1,14.83a100.71,100.71,0,0,0,20.52,20.61l14.79-8.14a85.19,85.19,0,0,0,25.86,10.75l4.72,16.23a99.45,99.45,0,0,0,29,0l4.74-16.23a85.19,85.19,0,0,0,25.86-10.75l14.79,8.14A100.71,100.71,0,0,0,811,2088.09l-8.1-14.83a85.56,85.56,0,0,0,10.7-25.94l16.2-4.74a101.54,101.54,0,0,0,0-29.13l-16.2-4.75a85.66,85.66,0,0,0-10.7-25.94l8.1-14.82a100.17,100.17,0,0,0-20.52-20.6l-14.79,8.12a85.92,85.92,0,0,0-25.86-10.74Zm-14.51,60.3a39.23,39.23,0,1,1-39.1,39.24A39.18,39.18,0,0,1,730.54,1988.78Z"/><path class="cls-6" d="M1137.31,1928.48a100.21,100.21,0,0,0-29,0l-4.72,16.24a85.76,85.76,0,0,0-25.85,10.74l-14.79-8.12a99.67,99.67,0,0,0-20.52,20.6l8.09,14.82a85.41,85.41,0,0,0-10.7,25.94l-16.19,4.75a100.13,100.13,0,0,0,0,29.13l16.19,4.74a85.31,85.31,0,0,0,10.7,25.94l-8.09,14.83a100.21,100.21,0,0,0,20.52,20.61l14.79-8.14a85,85,0,0,0,25.85,10.75l4.72,16.23a99.51,99.51,0,0,0,29,0l4.74-16.23a85,85,0,0,0,25.85-10.75l14.79,8.14a100.21,100.21,0,0,0,20.52-20.61l-8.09-14.83a85.56,85.56,0,0,0,10.7-25.94l16.19-4.74a100.83,100.83,0,0,0,0-29.13l-16.19-4.75a85.66,85.66,0,0,0-10.7-25.94l8.09-14.82a99.67,99.67,0,0,0-20.52-20.6l-14.79,8.12a85.76,85.76,0,0,0-25.85-10.74Zm-14.52,60.3A39.23,39.23,0,1,1,1083.7,2028,39.19,39.19,0,0,1,1122.79,1988.78Z"/><path class="cls-8" d="M1119.41,1928.48a100.21,100.21,0,0,0-29,0l-4.72,16.24a85.76,85.76,0,0,0-25.85,10.74l-14.79-8.12a99.67,99.67,0,0,0-20.52,20.6l8.09,14.82a85.41,85.41,0,0,0-10.7,25.94l-16.2,4.75a100.83,100.83,0,0,0,0,29.13l16.2,4.74a85.31,85.31,0,0,0,10.7,25.94l-8.09,14.83A100.21,100.21,0,0,0,1045,2108.7l14.79-8.14a85,85,0,0,0,25.85,10.75l4.72,16.23a99.51,99.51,0,0,0,29,0l4.73-16.23a85.08,85.08,0,0,0,25.86-10.75l14.79,8.14a100.21,100.21,0,0,0,20.52-20.61l-8.1-14.83a85.58,85.58,0,0,0,10.71-25.94l16.19-4.74a101.54,101.54,0,0,0,0-29.13l-16.19-4.75a85.69,85.69,0,0,0-10.71-25.94l8.1-14.82a99.67,99.67,0,0,0-20.52-20.6l-14.79,8.12a85.82,85.82,0,0,0-25.86-10.74Zm-14.52,60.3A39.23,39.23,0,1,1,1065.8,2028,39.19,39.19,0,0,1,1104.89,1988.78Z"/><rect class="cls-9" x="3042.1" y="-40.95" width="1504.57" height="2671.77"/><rect class="cls-10" x="4374.18" y="-40.95" width="172.49" height="2671.77"/><rect class="cls-11" x="3128.91" y="152.24" width="308.78" height="283.35"/><rect class="cls-11" x="3525.51" y="152.24" width="308.78" height="283.35"/><rect class="cls-11" x="3922.12" y="152.24" width="308.78" height="283.35"/><path class="cls-8" d="M2252.49,1437.22h-1122v263.44L1101.82,1733v805.36H2252.49Z"/><rect class="cls-12" x="1237.35" y="2124.42" width="48.18" height="333.2"/><rect class="cls-13" x="1253.23" y="2124.42" width="32.3" height="333.2"/><ellipse class="cls-14" cx="1257.4" cy="1909.85" rx="83.35" ry="78.94"/><ellipse class="cls-14" cx="1466.18" cy="1909.85" rx="83.35" ry="78.94"/><ellipse class="cls-14" cx="1674.96" cy="1909.85" rx="83.35" ry="78.94"/><path class="cls-15" d="M1253.73,1902.84a10,10,0,0,0-4.25,7.37,9.82,9.82,0,0,0,3.09,7.87l46.1,43.78s-19.13-36.59-29-55.41a10.54,10.54,0,0,0-7.09-5.35,11.11,11.11,0,0,0-8.88,1.74Zm6,7.63h0a.61.61,0,0,1,.51-.1.67.67,0,0,1,.41.3l1.67,3.21-2.66-2.53a.58.58,0,0,1-.19-.46A.63.63,0,0,1,1259.77,1910.47Z"/><path class="cls-16" d="M1462.51,1902.84a10,10,0,0,0-4.25,7.37,9.83,9.83,0,0,0,3.1,7.87c15.44,14.68,46.09,43.78,46.09,43.78s-19.13-36.59-29-55.41a10.54,10.54,0,0,0-7.09-5.35,11.11,11.11,0,0,0-8.88,1.74Zm6,7.63h0a.62.62,0,0,1,.51-.1.67.67,0,0,1,.41.3l1.67,3.21-2.66-2.53a.58.58,0,0,1-.19-.46A.67.67,0,0,1,1468.55,1910.47Z"/><path class="cls-17" d="M1671.29,1902.84a10,10,0,0,0-4.25,7.37,9.83,9.83,0,0,0,3.1,7.87c15.44,14.68,46.09,43.78,46.09,43.78s-19.13-36.59-29-55.41a10.54,10.54,0,0,0-7.09-5.35,11.11,11.11,0,0,0-8.88,1.74Zm6,7.63h0a.62.62,0,0,1,.51-.1.67.67,0,0,1,.41.3l1.67,3.21-2.66-2.53a.58.58,0,0,1-.19-.46A.67.67,0,0,1,1677.33,1910.47Z"/><path class="cls-18" d="M2252.48,1437.22h-24.6v263.44l-.63,32.33v805.36h25.23Z"/><path class="cls-18" d="M2252.49,1437.22h-1122V1698.8l-29.61,33.42H2226.52l26-31.21Z"/><rect class="cls-19" x="1130.49" y="1437.22" width="1121.99" height="261.43"/><path class="cls-20" d="M2252.49,584H3093a135.29,135.29,0,0,1,135.08,135.53v1818.8H2252.49Z"/><path class="cls-21" d="M2647.71,2131.06l580.41-164.36v571.66L2647.71,2175Z"/><path class="cls-22" d="M2605.14,624.37,2276.85,1466.8a9.83,9.83,0,1,0,18.31,7.18l328.29-842.43a9.83,9.83,0,1,0-18.31-7.18Z"/><path class="cls-22" d="M2567.05,627c10.08-26.61-3.26-48.21-29.79-48.21h-1027c-26.52,0-56.25,21.6-66.33,48.21l-307.63,811.89c-10.07,26.59,3.28,48.21,29.81,48.21h1027c26.53,0,56.24-21.62,66.32-48.21Z"/><path class="cls-8" d="M2516.43,655.71c9.37-24.72-3-44.8-27.68-44.8H1534.39c-24.65,0-52.28,20.08-61.65,44.8l-285.85,754.44c-9.36,24.71,3,44.79,27.69,44.79H2169c24.65,0,52.26-20.08,61.63-44.79Z"/><path class="cls-22" d="M2157.53,1295.36c6.75-16.24-.92-29.43-17.11-29.43H1398.75c-16.19,0-34.81,13.19-41.56,29.43s.92,29.42,17.11,29.42H2116C2132.17,1324.78,2150.79,1311.59,2157.53,1295.36Z"/><path class="cls-23" d="M2003.82,1278.85H1397.91c-9.09,0-19.52,7.4-23.31,16.51s.51,16.5,9.6,16.5h605.91Z"/><path class="cls-24" d="M1519.78,990.08q13.83-18.87,49.87-40,31.3-18.35,41.31-26.29,15.42-12.36,20-27.07,3.73-12-.38-19.91t-16.46-7.94q-16.87,0-26.92,12.63-5.77,7.28-11.4,23.16H1539.9q8.44-24.08,20.88-38.91,23.63-28.24,61.38-28.24,29.82,0,42.28,16.59t3.89,43.92q-6.55,21-24.11,37.22-11.55,10.82-34.4,24.08l-18.07,10.54q-17,9.9-23.49,14.32a65.89,65.89,0,0,0-11.85,10.28h82.12l-10.23,32.66H1499.48A121.27,121.27,0,0,1,1519.78,990.08Z"/><path class="cls-24" d="M1698.59,976.68q-1.58,12.11,2.59,18.67t16.11,6.58a33.75,33.75,0,0,0,24-9.7,55.84,55.84,0,0,0,14.84-24.4q4.52-14.45.89-24.4t-17.89-10a41.33,41.33,0,0,0-12.21,1.69,36,36,0,0,0-16.73,11.59l-32.73-1.56,45.88-104.25H1827l-9.86,31.5h-76.93l-19.66,41.25a113.56,113.56,0,0,1,15.7-7.42,64.92,64.92,0,0,1,20.51-3q23.35,0,35.81,15.75t3,45.81q-8.19,26.16-31.36,46.72t-56.51,20.56q-26.85,0-39.58-14.45t-6.37-41Z"/><path class="cls-24" d="M1867.85,1001.67q16.45,0,27-17.25t20.71-49.78q10.67-34.1,10.69-50.49t-16.46-16.4q-16.48,0-26.93,16.4t-21.14,50.49q-10.18,32.54-10.26,49.78T1867.85,1001.67Zm85.84-67q-14.62,46.73-37,72t-58.3,25.25q-35.92,0-42.5-25.25t8.07-72q14.63-46.71,37-72.09t58.35-25.38q35.94,0,42.45,25.38T1953.69,934.64Z"/><path class="cls-24" d="M2053.07,887.79q2.68-8.58-1.44-14.64t-12.7-6q-8.58,0-16.49,6a29.32,29.32,0,0,0-10.63,14.64q-2.68,8.6,1.46,14.64t12.7,6.06q8.55,0,16.49-6.06A29.25,29.25,0,0,0,2053.07,887.79Zm-35.78,48.42q-20,0-29.68-14.19t-3.42-34.23q6.27-20,24.85-34.22t38.57-14.19q20,0,29.66,14.19t3.42,34.22q-6.27,20-24.78,34.23T2017.29,936.21Zm118.06,25.63c-5.7,0-11.21,2-16.49,6.06a29.14,29.14,0,0,0-10.61,14.64q-2.7,8.58,1.44,14.64t12.7,6.05c5.72,0,11.2-2,16.49-6.05a29.3,29.3,0,0,0,10.62-14.64q2.7-8.6-1.45-14.64T2135.35,961.84ZM2113.71,1031q-20,0-29.68-14.19t-3.42-34.22q6.32-20.17,24.87-34.3T2144,934.12q20,0,29.68,14.19t3.42,34.23q-6.28,20-24.86,34.22T2113.71,1031Zm39.64-192.48h19.71l-165.44,193.65h-20.11Z"/><path class="cls-25" d="M1498.64,1095H1475.7l6.56-20.94h22.94Zm-26.18,10.35h22.94l-27.18,86.81h-22.94Z"/><path class="cls-25" d="M1586.86,1133.65l-18.3,58.46h-23.18l16.53-52.8q2.14-6.86,1.47-10.52-1.25-6.69-10.61-6.69-11.51,0-18.86,9.8a44.35,44.35,0,0,0-6.36,13.22l-14.71,47h-22.55l27.13-86.65h21.83l-4,12.66a61.36,61.36,0,0,1,11.27-9.63,36.45,36.45,0,0,1,19.36-5.26q13.41,0,19.74,7T1586.86,1133.65Z"/><path class="cls-25" d="M1658.55,1136.44a16.76,16.76,0,0,0-.52-8.76q-2.16-5.27-10.18-5.26-11.43,0-19.2,11.39a61.22,61.22,0,0,0-7.26,16.09q-3,9.55-2.59,15.37.66,10.83,11.85,10.83,7.93,0,12.62-4.3a31.3,31.3,0,0,0,7.54-11.15h23.1q-4,10.35-13.59,19.59-15.32,14.9-36.18,14.89t-26.83-12.42q-6-12.42.25-32.25,7-22.38,21.77-34.81a51.16,51.16,0,0,1,33.9-12.42q16.26,0,24.34,7.33t4.15,25.88Z"/><path class="cls-25" d="M1757.64,1103.39l-7.28,23.25c-1.37-.16-2.62-.26-3.7-.32s-2-.08-2.68-.08q-13.65,0-21.13,8.92-4.2,5-7.46,15.45l-13,41.5h-22.78l27.18-86.81h21.59l-4.74,15.13q7.95-8.67,12.85-11.86a32,32,0,0,1,18.18-5.34,10.42,10.42,0,0,1,1.06,0C1756,1103.3,1756.66,1103.34,1757.64,1103.39Z"/><path class="cls-25" d="M1775.94,1140h35.17q2.27-9-1.16-13.66c-2.29-3.1-5.83-4.66-10.65-4.66a20.72,20.72,0,0,0-13.73,4.94A36.74,36.74,0,0,0,1775.94,1140Zm57.67-20.15q2.67,7.73,1,17.92a127.4,127.4,0,0,1-4.67,17.2H1770.7q-3.62,13.07,2.45,18.32,3.66,3.27,10.25,3.27a21.27,21.27,0,0,0,12.59-4,29.86,29.86,0,0,0,6.08-6h23.1q-3.3,7.73-12.93,15.69a52.87,52.87,0,0,1-35.08,12.67q-16.52,0-25.8-10.67t-1.75-34.73q7-22.53,22.21-34.57t33.34-12q10.8,0,18.18,4.06A21.72,21.72,0,0,1,1833.61,1119.87Z"/><path class="cls-25" d="M1894.47,1149.9a36.19,36.19,0,0,1-5,2.19,45.76,45.76,0,0,1-6.48,1.55l-5.38,1a42.84,42.84,0,0,0-11.22,3.1,15.58,15.58,0,0,0-8.25,9.64q-1.82,5.81.58,8.4c1.6,1.72,3.94,2.59,7,2.59a29.56,29.56,0,0,0,14.8-4.3q7.51-4.3,11.31-15.69Zm-10.42-10.59a42.74,42.74,0,0,0,9.6-2q5.47-2.05,6.86-6.45,1.66-5.33-1.39-7.36c-2-1.36-5.44-2-10.2-2-5.35,0-9.55,1.34-12.6,4a24.38,24.38,0,0,0-5.66,8h-21.84a48.14,48.14,0,0,1,12.22-18.72q12.54-11.46,34.39-11.46,14.21,0,23.47,5.65t4.35,21.34l-12.47,39.83q-1.29,4.14-3,10-1.15,4.45-.55,6.06a5.22,5.22,0,0,0,2.52,2.63l-1,3.34h-24.61a22.35,22.35,0,0,1,.12-4.94c.21-1.54.55-3.3,1-5.25a72.29,72.29,0,0,1-13.51,8.68,40.15,40.15,0,0,1-17.83,4.22q-11.75,0-17.3-6.73T1834.9,1169q5-16,19.56-23.17,8-3.91,21.59-5.58Z"/><path class="cls-25" d="M1950.26,1164.39c-.78,4-.65,6.9.41,8.6q2.77,4.54,14.13,4.55a27.91,27.91,0,0,0,11.22-2,9.67,9.67,0,0,0,5.8-6c.8-2.55.34-4.49-1.35-5.81s-8.85-3.61-21.44-6.85q-13.53-3.67-17.85-9.16t-1.14-15.61q3.76-12,15.88-20.67t29.17-8.64q16.2,0,24.36,6.49t4.7,22.42h-22.63c.6-2.92.5-5.22-.29-6.93-1.52-3.07-5.27-4.62-11.25-4.62q-7.39,0-11.24,2.31c-2.58,1.55-4.19,3.34-4.84,5.42-.81,2.6-.29,4.49,1.57,5.65s9,3.32,21.6,6.29q12.5,3.2,17.23,9.64t1.56,16.33q-4,12.9-16.17,21.06t-32.12,8.17q-20.4,0-27.42-8.64t-2.83-22Z"/><path class="cls-25" d="M2047.2,1140h35.17q2.25-9-1.17-13.66t-10.65-4.66a20.67,20.67,0,0,0-13.72,4.94A36.51,36.51,0,0,0,2047.2,1140Zm57.66-20.15c1.79,5.15,2.1,11.13,1,17.92a129.31,129.31,0,0,1-4.68,17.2H2042q-3.63,13.07,2.44,18.32,3.66,3.27,10.25,3.27a21.23,21.23,0,0,0,12.59-4,29.86,29.86,0,0,0,6.08-6h23.11q-3.3,7.73-12.94,15.69a52.87,52.87,0,0,1-35.08,12.67q-16.51,0-25.79-10.67t-1.75-34.73q7.05-22.53,22.21-34.57t33.33-12q10.8,0,18.18,4.06A21.72,21.72,0,0,1,2104.86,1119.87Z"/><path class="cls-26" d="M1205.24,1453.86c.37-1.29.82-2.61,1.31-3.93l285.86-754.42c9.36-24.73,37-44.8,61.62-44.8H2508.4a39.49,39.49,0,0,1,9.36,1.07c6.67-22.89-5.68-40.87-29-40.87H1534.37c-24.64,0-52.25,20.08-61.62,44.8l-285.86,754.42C1178.81,1431.5,1187,1449.4,1205.24,1453.86Z"/><path class="cls-27" d="M2145.18,610.91l-815.35,422-142.94,377.23c-7.33,19.36-1.33,35.86,13.44,42.12L2482.55,745.14l33.89-89.43c9.36-24.72-3.05-44.8-27.68-44.8Zm-269.66,0H1534.37c-24.64,0-52.25,20.08-61.62,44.8l-85.56,225.84Z"/><rect class="cls-28" x="2647.44" y="840.33" width="522.75" height="1028.5"/><path class="cls-29" d="M3170.19,1868.83,2647.44,840.32h522.75Z"/><rect class="cls-30" x="3143.56" y="840.33" width="26.63" height="1028.5"/><path class="cls-6" d="M4724.59,2021.81a153.66,153.66,0,0,0-153.43-153.9H3287v318.31H4571.16a153.67,153.67,0,0,0,153.43-153.92Z"/><path class="cls-7" d="M4724.59,2021.81c0-40.81-15.1-80-41.94-108.83s-63.29-45.07-101.27-45.07H3382.81v318.31H4581.38c38,0,74.41-16.23,101.27-45.08s41.94-68,41.94-108.84Z"/><path class="cls-31" d="M3437.31,1867.9h-4.42l-50.08,21.6v296.71H4581.37c38,0,74.42-16.21,101.27-45.08s41.94-68,41.94-108.83v-10.48c0-2.59-.06-5.15-.17-7.72-313.86,84.44-672.34,27.81-981.25-48.93C3665.05,1945.77,3486.7,1936,3437.31,1867.9Zm-47.62,0h-6.88v7.15Q3386.23,1871.45,3389.69,1867.9Z"/><path class="cls-6" d="M4084,2021.81a153.64,153.64,0,0,0-153.43-153.9H2646.49v318.31H3930.61A153.66,153.66,0,0,0,4084,2032.3Z"/><path class="cls-7" d="M4084,2021.81c0-40.81-15.09-80-41.94-108.83s-63.28-45.07-101.27-45.07H2742.27v318.31H3940.83c38,0,74.42-16.23,101.27-45.08s41.94-68,41.94-108.84Z"/><path class="cls-8" d="M2647.31,1867.9h1283.3A153.66,153.66,0,0,1,4084,2021.82v10.48a153.66,153.66,0,0,1-153.43,153.91H2647.31v-30h1283.3a123.7,123.7,0,0,0,123.5-123.89v-10.48a123.7,123.7,0,0,0-123.5-123.9H2647.31Z"/><path class="cls-6" d="M2835.33,1928.48a100.21,100.21,0,0,0-29,0l-4.71,16.24a85.71,85.71,0,0,0-25.86,10.74l-14.79-8.12a99.67,99.67,0,0,0-20.52,20.6l8.09,14.82a85.41,85.41,0,0,0-10.7,25.94l-16.19,4.75a100.13,100.13,0,0,0,0,29.13l16.19,4.74a85.31,85.31,0,0,0,10.7,25.94l-8.09,14.83a100.21,100.21,0,0,0,20.52,20.61l14.79-8.14a85,85,0,0,0,25.86,10.75l4.71,16.23a99.51,99.51,0,0,0,29,0l4.74-16.23a85,85,0,0,0,25.85-10.75l14.79,8.14a100.21,100.21,0,0,0,20.52-20.61l-8.09-14.83a85.56,85.56,0,0,0,10.7-25.94l16.19-4.74a100.83,100.83,0,0,0,0-29.13l-16.19-4.75a85.66,85.66,0,0,0-10.7-25.94l8.09-14.82a99.67,99.67,0,0,0-20.52-20.6l-14.79,8.12a85.76,85.76,0,0,0-25.85-10.74Zm-14.52,60.3a39.23,39.23,0,1,1-39.09,39.24A39.19,39.19,0,0,1,2820.81,1988.78Z"/><path class="cls-8" d="M2817.43,1928.48a100.21,100.21,0,0,0-29,0l-4.72,16.24a85.76,85.76,0,0,0-25.85,10.74l-14.79-8.12a99.67,99.67,0,0,0-20.52,20.6l8.09,14.82a85.41,85.41,0,0,0-10.7,25.94l-16.19,4.75a100.13,100.13,0,0,0,0,29.13l16.19,4.74a85.31,85.31,0,0,0,10.7,25.94l-8.09,14.83A100.21,100.21,0,0,0,2743,2108.7l14.79-8.14a85,85,0,0,0,25.85,10.75l4.72,16.23a99.51,99.51,0,0,0,29,0l4.73-16.23a85.08,85.08,0,0,0,25.86-10.75l14.79,8.14a100.21,100.21,0,0,0,20.52-20.61l-8.1-14.83a85.58,85.58,0,0,0,10.71-25.94l16.19-4.74a101.54,101.54,0,0,0,0-29.13l-16.19-4.75a85.69,85.69,0,0,0-10.71-25.94l8.1-14.82a99.67,99.67,0,0,0-20.52-20.6l-14.79,8.12a85.82,85.82,0,0,0-25.86-10.74Zm-14.52,60.3a39.23,39.23,0,1,1-39.09,39.24A39.19,39.19,0,0,1,2802.91,1988.78Z"/><path class="cls-6" d="M3209.69,1928.48a100.21,100.21,0,0,0-29,0l-4.72,16.24a85.92,85.92,0,0,0-25.86,10.74l-14.79-8.12a100.17,100.17,0,0,0-20.52,20.6l8.1,14.82a85.18,85.18,0,0,0-10.71,25.94l-16.19,4.75a100.13,100.13,0,0,0,0,29.13l16.19,4.74a85.08,85.08,0,0,0,10.71,25.94l-8.1,14.83a100.71,100.71,0,0,0,20.52,20.61l14.79-8.14a85.19,85.19,0,0,0,25.86,10.75l4.72,16.23a99.51,99.51,0,0,0,29,0l4.73-16.23a85.19,85.19,0,0,0,25.86-10.75l14.79,8.14a100.71,100.71,0,0,0,20.52-20.61l-8.1-14.83a85.56,85.56,0,0,0,10.7-25.94l16.2-4.74a101.54,101.54,0,0,0,0-29.13l-16.2-4.75a85.66,85.66,0,0,0-10.7-25.94l8.1-14.82a100.17,100.17,0,0,0-20.52-20.6l-14.79,8.12a85.92,85.92,0,0,0-25.86-10.74Zm-14.52,60.3a39.23,39.23,0,1,1-39.1,39.24A39.19,39.19,0,0,1,3195.17,1988.78Z"/><path class="cls-8" d="M3191.78,1928.48a100.21,100.21,0,0,0-29,0l-4.71,16.24a85.71,85.71,0,0,0-25.86,10.74l-14.79-8.12a99.67,99.67,0,0,0-20.52,20.6l8.1,14.82a85.18,85.18,0,0,0-10.71,25.94l-16.19,4.75a100.13,100.13,0,0,0,0,29.13l16.19,4.74a85.08,85.08,0,0,0,10.71,25.94l-8.1,14.83a100.21,100.21,0,0,0,20.52,20.61l14.79-8.14a85,85,0,0,0,25.86,10.75l4.71,16.23a99.51,99.51,0,0,0,29,0l4.74-16.23a85,85,0,0,0,25.85-10.75l14.79,8.14a100.21,100.21,0,0,0,20.52-20.61l-8.09-14.83a85.56,85.56,0,0,0,10.7-25.94l16.19-4.74a100.83,100.83,0,0,0,0-29.13l-16.19-4.75a85.66,85.66,0,0,0-10.7-25.94l8.09-14.82a99.67,99.67,0,0,0-20.52-20.6l-14.79,8.12a85.76,85.76,0,0,0-25.85-10.74Zm-14.52,60.3a39.23,39.23,0,1,1-39.09,39.24A39.19,39.19,0,0,1,3177.26,1988.78Z"/><path class="cls-6" d="M3584,1928.48a100.21,100.21,0,0,0-29,0l-4.72,16.24a85.92,85.92,0,0,0-25.86,10.74l-14.79-8.12a100.17,100.17,0,0,0-20.52,20.6l8.1,14.82a85.41,85.41,0,0,0-10.7,25.94l-16.2,4.75a100.83,100.83,0,0,0,0,29.13l16.2,4.74a85.31,85.31,0,0,0,10.7,25.94l-8.1,14.83a100.71,100.71,0,0,0,20.52,20.61l14.79-8.14a85.19,85.19,0,0,0,25.86,10.75l4.72,16.23a99.51,99.51,0,0,0,29,0l4.73-16.23a85.19,85.19,0,0,0,25.86-10.75l14.79,8.14a100.71,100.71,0,0,0,20.52-20.61l-8.1-14.83a85.58,85.58,0,0,0,10.71-25.94l16.19-4.74a101.54,101.54,0,0,0,0-29.13l-16.19-4.75a85.69,85.69,0,0,0-10.71-25.94l8.1-14.82a100.17,100.17,0,0,0-20.52-20.6l-14.79,8.12a85.92,85.92,0,0,0-25.86-10.74Zm-14.52,60.3a39.23,39.23,0,1,1-39.09,39.24A39.19,39.19,0,0,1,3569.52,1988.78Z"/><path class="cls-8" d="M3566.14,1928.48a100.21,100.21,0,0,0-29,0l-4.72,16.24a85.92,85.92,0,0,0-25.86,10.74l-14.79-8.12a100.17,100.17,0,0,0-20.52,20.6l8.1,14.82a85.18,85.18,0,0,0-10.71,25.94l-16.19,4.75a100.13,100.13,0,0,0,0,29.13l16.19,4.74a85.08,85.08,0,0,0,10.71,25.94l-8.1,14.83a100.71,100.71,0,0,0,20.52,20.61l14.79-8.14a85.19,85.19,0,0,0,25.86,10.75l4.72,16.23a99.51,99.51,0,0,0,29,0l4.73-16.23a85.19,85.19,0,0,0,25.86-10.75l14.79,8.14a100.71,100.71,0,0,0,20.52-20.61l-8.1-14.83a85.84,85.84,0,0,0,10.71-25.94l16.19-4.74a101.54,101.54,0,0,0,0-29.13l-16.19-4.75a85.94,85.94,0,0,0-10.71-25.94l8.1-14.82a100.17,100.17,0,0,0-20.52-20.6l-14.79,8.12a85.92,85.92,0,0,0-25.86-10.74Zm-14.52,60.3a39.23,39.23,0,1,1-39.1,39.24A39.19,39.19,0,0,1,3551.62,1988.78Z"/><path class="cls-6" d="M3958.39,1928.48a100.14,100.14,0,0,0-29,0l-4.72,16.24a85.82,85.82,0,0,0-25.86,10.74l-14.79-8.12a99.67,99.67,0,0,0-20.52,20.6l8.1,14.82a85.18,85.18,0,0,0-10.71,25.94l-16.19,4.75a100.13,100.13,0,0,0,0,29.13l16.19,4.74a85.08,85.08,0,0,0,10.71,25.94l-8.1,14.83A100.21,100.21,0,0,0,3884,2108.7l14.79-8.14a85.08,85.08,0,0,0,25.86,10.75l4.72,16.23a99.45,99.45,0,0,0,29,0l4.74-16.23a85,85,0,0,0,25.85-10.75l14.79,8.14a100.21,100.21,0,0,0,20.52-20.61l-8.09-14.83a85.56,85.56,0,0,0,10.7-25.94l16.19-4.74a100.83,100.83,0,0,0,0-29.13l-16.19-4.75a85.66,85.66,0,0,0-10.7-25.94l8.09-14.82a99.67,99.67,0,0,0-20.52-20.6l-14.79,8.12a85.76,85.76,0,0,0-25.85-10.74Zm-14.52,60.3a39.23,39.23,0,1,1-39.09,39.24A39.19,39.19,0,0,1,3943.87,1988.78Z"/><path class="cls-8" d="M3940.49,1928.48a100.21,100.21,0,0,0-29,0l-4.72,16.24a85.76,85.76,0,0,0-25.85,10.74l-14.79-8.12a99.67,99.67,0,0,0-20.52,20.6l8.09,14.82a85.41,85.41,0,0,0-10.7,25.94l-16.19,4.75a100.13,100.13,0,0,0,0,29.13l16.19,4.74a85.31,85.31,0,0,0,10.7,25.94l-8.09,14.83a100.21,100.21,0,0,0,20.52,20.61l14.79-8.14a85,85,0,0,0,25.85,10.75l4.72,16.23a99.51,99.51,0,0,0,29,0l4.73-16.23a85,85,0,0,0,25.86-10.75l14.79,8.14a100.21,100.21,0,0,0,20.52-20.61l-8.09-14.83a85.56,85.56,0,0,0,10.7-25.94l16.19-4.74a101.54,101.54,0,0,0,0-29.13L4009,2008.7a85.66,85.66,0,0,0-10.7-25.94l8.09-14.82a99.67,99.67,0,0,0-20.52-20.6l-14.79,8.12a85.71,85.71,0,0,0-25.86-10.74Zm-14.52,60.3a39.23,39.23,0,1,1-39.09,39.24A39.19,39.19,0,0,1,3926,1988.78Z"/><path class="cls-32" d="M220.23,1743q26.36-62.83,124.42-133,85.08-61.1,110.15-87.54,38.44-41.16,38.44-90.14,0-39.87-22-66.3t-63.06-26.44q-56.16,0-76.47,42-11.65,24.27-13.82,77.14H198.2q3-80.17,29-129.58,49.25-94,175-94,99.34,0,158.1,55.25T619,1436.64q0,69.77-41.47,123.94-27.21,36-89.42,80.17l-49.24,35.1q-46.23,32.94-63.29,47.67a139.77,139.77,0,0,0-28.73,34.24H620.24v108.78H191.29Q193,1798.92,220.23,1743Z"/><path class="cls-32" d="M899.3,1768.11q54.87,0,71.93-57.42t17.06-165.76q0-113.54-17.06-168.14t-71.93-54.61q-54.85,0-72.57,54.61T809,1544.93q0,108.35,17.71,165.76T899.3,1768.11Zm216-223.18q0,155.58-48.16,239.65T899.3,1868.65q-119.65,0-167.82-84.07t-48.16-239.65q0-155.58,48.16-240.08t167.82-84.51q119.66,0,167.83,84.51T1115.29,1544.93Z"/><path class="cls-33" d="M140,1743q26.36-62.83,124.41-133,85.1-61.1,110.15-87.54,38.46-41.16,38.45-90.14,0-39.87-22-66.3T328,1339.56q-56.15,0-76.46,42-11.67,24.27-13.82,77.14H118q3-80.17,29-129.58,49.24-94,175-94,99.34,0,158.1,55.25t58.75,146.27q0,69.77-41.47,123.94-27.23,36-89.42,80.17l-49.24,35.1q-46.23,32.94-63.29,47.67a139.77,139.77,0,0,0-28.73,34.24H540.05v108.78H111.1Q112.83,1798.92,140,1743Z"/><path class="cls-33" d="M819.11,1768.11q54.87,0,71.92-57.42t17.07-165.76q0-113.54-17.07-168.14t-71.92-54.61q-54.86,0-72.57,54.61t-17.71,168.14q0,108.35,17.71,165.76T819.11,1768.11Zm216-223.18q0,155.58-48.16,239.65t-167.83,84.07q-119.65,0-167.82-84.07t-48.17-239.65q0-155.58,48.17-240.08t167.82-84.51q119.65,0,167.83,84.51T1035.1,1544.93Z"/><path class="cls-34" d="M536.39,1469.12q-7.54,50.24-39.1,91.46-27.21,36-89.42,80.18l-49.24,35.09q-46.23,32.94-63.29,47.69a139.57,139.57,0,0,0-28.73,34.23h66.06c-63.65,32-128.58,67.6-187.4,108.78H111.1q1.74-67.62,29-123.52a174.93,174.93,0,0,1,15.08-28q55.26-34.8,110.61-69.44C357.08,1588.69,446.59,1528.71,536.39,1469.12Zm373.45-232.73q49.92,20.79,77.1,68.46a301,301,0,0,1,25.57,60.3q-54.88,34.78-110,69.26-4.17-34.22-11.49-57.62-17.07-54.6-71.93-54.6t-72.57,54.6q-17.38,53.64-17.7,164.09-61.26,36.66-123.15,72-2.57-32.09-2.56-68,0-70.48,9.89-126.41,57.18-37.5,115-74C787.66,1307.12,848.45,1271.28,909.84,1236.39Zm-503.76,155.3A90.13,90.13,0,0,0,391,1366q-22-26.44-63.07-26.44-56.16,0-76.46,42-11.67,24.27-13.83,77.13H118q3-80.17,29-129.57,49.24-94.05,175-94.05,99.36,0,158.1,55.27a180.68,180.68,0,0,1,33.57,42.4Q460,1362.63,406.08,1391.69Z"/><path class="cls-35" d="M3706.55,1205q-35.1,34.72-97.63,123.58a1092.54,1092.54,0,0,0-104.85,183.63q-33.45,74.33-60.35,181.64T3416.85,1870H3254.41q7.18-214.7,140.47-446.47,86.14-143.6,144.32-200.36H3142.51l2.15-140.92h561.89Z"/><path class="cls-35" d="M4048.4,1748.11q69.7,0,91.35-71.47t21.7-206.18q0-141.29-21.7-209.16t-91.35-68q-69.63,0-92.18,68t-22.47,209.16q0,134.79,22.47,206.18T4048.4,1748.11Zm274.39-277.65q0,193.55-61.18,298.1T4048.4,1873.19q-152,0-213.16-104.63t-61.18-298.1q0-193.56,61.18-298.7t213.16-105.12q152,0,213.21,105.12T4322.79,1470.46Z"/><path class="cls-36" d="M3578.09,1205q-35.1,34.72-97.63,123.58a1091.79,1091.79,0,0,0-104.84,183.63q-33.47,74.33-60.36,181.64T3288.39,1870H3126q7.18-214.7,140.47-446.47,86.14-143.6,144.33-200.36H3014.06l2.14-140.92h561.89Z"/><path class="cls-36" d="M3919.94,1748.11q69.7,0,91.35-71.47t21.7-206.18q0-141.29-21.7-209.16t-91.35-68q-69.63,0-92.18,68t-22.47,209.16q0,134.79,22.47,206.18T3919.94,1748.11Zm274.39-277.65q0,193.55-61.18,298.1t-213.21,104.63q-152,0-213.16-104.63t-61.18-298.1q0-193.56,61.18-298.7t213.16-105.12q152,0,213.21,105.12T4194.33,1470.46Z"/><path class="cls-37" d="M3371.62,1521.22q-31.08,71.71-56.36,172.6-16.32,65.13-22.73,116.1c-44.94,19.9-89.71,40.25-134.67,60H3126q4.24-128,53.42-262.2C3243.2,1578.35,3307.36,1549.68,3371.62,1521.22Zm442.48-199q-8.85,59.73-8.84,148.26,0,70.85,6.22,124.22-73.28,32.19-147,63.36-18.88-80.08-18.88-187.58,0-37.71,2.32-72,32.7-14.81,65.32-29.85Q3763.71,1345.34,3814.1,1322.2Zm323.34-142.75q49.56,91,55.93,244.44-80.41,35.71-160.59,72,.18-12.42.2-25.4,0-141.26-21.68-209.18a125,125,0,0,0-10-23.36Q4069.18,1208,4137.44,1179.45Zm-867.35,238q83.72-138.78,140.65-194.29H3014l2.19-140.92H3578.1V1205q-35.13,34.66-97.68,123.58-2.41,3.43-4.81,6.89Q3373.21,1377.19,3270.09,1417.45Zm401.76-162.65q13.82-46.75,34.92-83,61.17-105.13,213.16-105.11,85,0,141.55,32.82c-51.8,19.1-103.57,38.27-154.74,59Q3788.84,1206.17,3671.85,1254.8Z"/><path class="cls-38" d="M2345.65,1682.1c-3.27,3.46-7,5.42-11.07,5.42-12.63,0-22.89-19.51-22.89-43.56s10.26-43.55,22.89-43.55c4.84,0,9.35,2.86,13.05,7.76-7.05,7.44-11.82,21.73-11.82,38.14C2335.81,1661.12,2339.71,1674.22,2345.65,1682.1Z"/><path class="cls-38" d="M2345.65,1962c-3.27,3.46-7,5.43-11.07,5.43-12.63,0-22.89-19.52-22.89-43.57s10.26-43.55,22.89-43.55c4.84,0,9.35,2.87,13.05,7.76-7.05,7.44-11.82,21.74-11.82,38.14C2335.81,1941,2339.71,1954.15,2345.65,1962Z"/><path class="cls-38" d="M2345.65,2241.94c-3.27,3.46-7,5.43-11.07,5.43-12.63,0-22.89-19.51-22.89-43.57s10.26-43.54,22.89-43.54c4.84,0,9.35,2.86,13.05,7.76-7.05,7.43-11.82,21.73-11.82,38.14C2335.81,2221,2339.71,2234.07,2345.65,2241.94Z"/><rect class="cls-39" x="1923.35" y="2074.49" width="258.09" height="415.84"/><rect class="cls-40" x="1906.62" y="2074.49" width="258.09" height="415.84"/><g class="cls-41"><path class="cls-42" d="M1971,2143.08v-85.24h-10v85.24h-79.4V2153H1961v72.91h-79.4v9.94H1961v72.91h-79.4v9.92H1961v72.91h-79.4v9.93H1961v135.41h10V2401.52h57.54v135.41h10V2401.52h52.77v135.41h10V2401.52h80.29v-9.93h-80.29v-72.91h80.29v-9.92h-80.29v-72.91h80.29v-9.94h-80.29V2153h80.29v-9.92h-80.29v-85.24h-10v85.24h-52.77v-85.24h-10v85.24Zm120.31,175.6h-52.77v72.91h52.77Zm-62.77,0H1971v72.91h57.54Zm62.77-82.83h-52.77v72.91h52.77Zm-62.77,0H1971v72.91h57.54Zm62.77-82.85h-52.77v72.91h52.77Zm-62.77,0H1971v72.91h57.54Z"/></g><ellipse class="cls-13" cx="1362.42" cy="2146.13" rx="23.59" ry="23.67"/><ellipse class="cls-13" cx="1473.6" cy="2146.13" rx="23.59" ry="23.67"/><ellipse class="cls-13" cx="1584.78" cy="2146.13" rx="23.59" ry="23.67"/><rect class="cls-12" x="1334.16" y="2247.89" width="277.17" height="134.41"/><path class="cls-43" d="M1611.33,2306.5H1389.86l-55.7,75.8h277.17Z"/></g></g></svg>