<svg id="Percentage_Increase" data-name="Percentage Increase" xmlns="http://www.w3.org/2000/svg" viewBox="0 0 4800 2700"><defs><style>.cls-1{fill:#7fcdf8;}.cls-2{fill:#1c1c1c;}.cls-3{fill:#c3b3fa;}.cls-10,.cls-15,.cls-16,.cls-20,.cls-4,.cls-8{fill:#4d1e95;}.cls-5{fill:#773ce9;}.cls-14,.cls-18,.cls-19,.cls-6,.cls-9{fill:#ebf2ff;}.cls-7{fill:#ecf3ff;}.cls-11,.cls-12,.cls-13,.cls-23,.cls-8{stroke:#4d1e95;}.cls-11,.cls-12,.cls-13,.cls-21,.cls-8{stroke-miterlimit:10;}.cls-11,.cls-8{stroke-width:2.28px;}.cls-10,.cls-9{font-size:52.98px;}.cls-10,.cls-14,.cls-16,.cls-19,.cls-9{font-family:OpenSans-SemiBold, Open Sans;font-weight:600;}.cls-11,.cls-12,.cls-13,.cls-21,.cls-23{fill:none;}.cls-12{stroke-width:2.28px;}.cls-13{stroke-width:4.61px;}.cls-14,.cls-16{font-size:38.7px;}.cls-15{font-size:131.57px;}.cls-15,.cls-18,.cls-20{font-family:OpenSans-Bold, Open Sans;font-weight:700;}.cls-17{isolation:isolate;}.cls-18{font-size:207.07px;}.cls-19{font-size:39.45px;}.cls-20{font-size:269.24px;}.cls-21{stroke:#773ce9;stroke-width:7.96px;}.cls-22{fill:#fff;}.cls-23{stroke-linecap:round;stroke-linejoin:round;stroke-width:30px;}</style></defs><rect class="cls-1" width="4800" height="2700"/><path class="cls-2" d="M4728.19,1694.08l-511.47-295.3c-52.17-30.12-136.46-30.12-188.28,0L2804.26,2110.2c-51.83,30.11-51.55,78.94.61,109.05l263.23,152-148.52,85.48a66.12,66.12,0,0,1-66.95-.62l-1.25-.75-1.38-.49c-118.16-42.62-244.24-33.51-336.3-26.87q-10.93.8-21.12,1.5c-45,3.07-82.32-3.61-118.38-10.07-34.08-6.1-69.31-12.4-110.12-10.37-33.77,1.69-71.31,13.34-111.59,34.63a317.82,317.82,0,0,1-148,36.84H1967.7L3960.62,1322.35c48.32-28.08,48.06-73.6-.56-101.67L2366.86,300.84c-48.62-28.07-127.2-28.07-175.52,0L64.73,1536.7c-48.31,28.08-48.05,73.6.56,101.66L1658.5,2558.2c48.62,28.07,127.2,28.07,175.52,0l82-47.69h88.45a348,348,0,0,0,162-40.31c36.38-19.23,69.71-29.73,99.07-31.2,37.39-1.87,69.42,3.87,103.33,9.94,37.85,6.78,77,13.79,125.71,10.47q10.23-.69,21.24-1.5c89-6.43,210.85-15.22,322.66,24.69a96.15,96.15,0,0,0,96,.11l163.59-94.14,218.21,126c52.17,30.12,136.46,30.12,188.29,0l1224.18-711.41C4780.63,1773,4780.35,1724.19,4728.19,1694.08Z"/><path class="cls-3" d="M1832.25,2429.24,1832,2499a136,136,0,0,1-22.12,10.18,177.74,177.74,0,0,1-32,8.09,209.7,209.7,0,0,1-69-.72q-8.31-1.49-16.25-3.69A143.94,143.94,0,0,1,1658.8,2499l.18-69.72a144.67,144.67,0,0,0,33.7,13.8c5.29,1.46,10.71,2.72,16.25,3.73a210.5,210.5,0,0,0,69,.76,176.61,176.61,0,0,0,32-8A136,136,0,0,0,1832.25,2429.24Z"/><path class="cls-4" d="M1809.92,2439.5v69.64a177.74,177.74,0,0,1-32,8.09,209.7,209.7,0,0,1-69-.72v-69.74a210.5,210.5,0,0,0,69,.76A176.61,176.61,0,0,0,1809.92,2439.5Z"/><path class="cls-4" d="M3967,1159.52l-.2,69.72c-.05,18-11.91,36.06-35.6,49.83l.2-69.72C3955.07,1195.58,3966.93,1177.56,3967,1159.52Z"/><path class="cls-4" d="M50,1540.49l.2-69.73c-.05,18.28,12,36.58,36.15,50.52L86.17,1591C62,1577.07,50,1558.76,50,1540.49Z"/><polygon class="cls-3" points="3931.38 1209.35 3931.18 1279.07 1832.04 2498.96 1832.24 2429.23 3931.38 1209.35"/><polygon class="cls-4" points="1658.99 2429.24 1658.8 2498.97 86.17 1591.01 86.36 1521.28 1658.99 2429.24"/><path class="cls-5" d="M3930.82,1109c48,27.7,48.25,72.63.56,100.35L1832.24,2429.23c-47.69,27.72-125.26,27.72-173.25,0l-1572.63-908c-48-27.7-48.24-72.63-.55-100.35L2185,201.05c47.69-27.72,125.26-27.72,173.25,0Z"/><path class="cls-3" d="M2271.47,187.39c31.48,0,61,7,83.16,19.82l1572.63,908c21,12.12,32.57,27.81,32.59,44.18s-11.36,31.81-32.06,43.84L1828.66,2423.07c-22,12.78-51.45,19.82-82.94,19.82s-61-7-83.16-19.82l-1572.63-908c-21-12.12-32.57-27.81-32.59-44.18s11.36-31.81,32.05-43.83L2188.53,207.21c22-12.78,51.45-19.82,82.94-19.82Zm0-7.13c-31.35,0-62.68,6.93-86.52,20.79L85.81,1420.93c-47.69,27.72-47.43,72.65.55,100.35l1572.63,908c24,13.85,55.38,20.78,86.73,20.78s62.68-6.93,86.52-20.79L3931.38,1209.35c47.69-27.72,47.43-72.65-.56-100.35L2358.2,201c-24-13.85-55.38-20.78-86.73-20.78Z"/><path class="cls-6" d="M130.1,1446.69,2224.83,237.29c19.08-11,47.93-12.2,64.45-2.67l1578.94,911.61c16.52,9.53,14.45,26.19-4.62,37.2L1768.87,2392.83c-19.08,11-47.93,12.21-64.45,2.67L125.48,1483.9C109,1474.36,111,1457.7,130.1,1446.69Z"/><path class="cls-4" d="M2261.29,235.31c9.63,0,18.3,1.95,24.43,5.49l1578.94,911.6c3.46,2,7.59,5.35,7.59,10,0,4.89-4.57,10.46-12.22,14.87L1765.3,2386.65c-9,5.19-21,8.16-32.89,8.16-9.63,0-18.3-1.95-24.43-5.48L129,1477.72c-3.46-2-7.59-5.35-7.59-10,0-4.9,4.57-10.46,12.22-14.88L2228.4,243.47c9-5.19,21-8.16,32.89-8.16m0-7.13c-12.67,0-26,3.09-36.46,9.11L130.1,1446.69c-19.07,11-21.14,27.67-4.62,37.21l1578.94,911.6c7.48,4.32,17.5,6.44,28,6.44,12.67,0,26-3.09,36.46-9.11L3863.6,1183.43c19.07-11,21.14-27.67,4.62-37.2L2289.28,234.62c-7.48-4.32-17.5-6.44-28-6.44Z"/><path class="cls-7" d="M844.52,2010.68l-67.62-39c-5.11-3-9.25-10.87-9.25-17.68h0c0-6.82,4.14-10,9.25-7l67.62,39c5.11,3,9.26,10.87,9.26,17.68h0C853.78,2010.5,849.63,2013.63,844.52,2010.68Z"/><path class="cls-8" d="M1030.25,1003.64,1218.9,894.72l75.95,43.85L1106.2,1047.48c-12.93,7.47-33.82,7.51-46.65.1l-29.47-17C1017.25,1023.16,1017.32,1011.1,1030.25,1003.64Z"/><text class="cls-9" transform="matrix(0.87, -0.5, 0.87, 0.5, 1084.36, 1034)">Growth </text><text class="cls-10" transform="matrix(0.87, -0.5, 0.87, 0.5, 1314.85, 902.07)">Invest </text><text class="cls-10" transform="matrix(0.87, -0.5, 0.87, 0.5, 1502.8, 793.55)">Balance </text><polygon class="cls-11" points="1218.9 894.72 1430.96 772.29 1506.91 816.14 1294.85 938.57 1218.9 894.72"/><path class="cls-12" d="M1431,772.29l188.65-108.92c12.93-7.46,33.82-7.51,46.65-.1l29.46,17c12.84,7.42,12.77,19.48-.16,26.94L1506.91,816.14Z"/><path class="cls-4" d="M956.46,1353.56l57.64,33.28L581.3,1636.71l-57.63-33.27c-28-16.16-27.81-42.44.36-58.71l330.76-191C883,1337.5,928.49,1337.41,956.46,1353.56Z"/><path class="cls-13" d="M956.46,1353.56,1470,1650c28,16.15,27.81,42.43-.37,58.7l-330.76,191c-28.17,16.27-73.7,16.37-101.67.22l-513.5-296.47c-28-16.16-27.81-42.44.36-58.71l330.76-191C883,1337.5,928.49,1337.41,956.46,1353.56Z"/><text class="cls-14" transform="matrix(0.87, -0.5, 0.87, 0.5, 583.67, 1614.06)">Starting Value :</text><text class="cls-15" transform="matrix(0.87, -0.5, 0.87, 0.5, 821.57, 1735.79)">$15.65</text><ellipse class="cls-6" cx="896.77" cy="1367.85" rx="17.35" ry="10.02" transform="translate(-8.59 5.67) rotate(-0.36)"/><text class="cls-16" transform="matrix(0.87, -0.5, 0.87, 0.5, 1114.14, 1875.27)">Duration : 30 Days</text><polygon class="cls-4" points="2908.1 887.6 1565.72 1662.62 946.11 1304.89 2288.49 529.87 2908.1 887.6"/><g class="cls-17"><path class="cls-4" d="M3149.27,598l.35,126.26c.05,14.73-9.67,29.48-29.13,40.71l-.36-126.26C3139.59,627.5,3149.31,612.75,3149.27,598Z"/><path class="cls-5" d="M1869.63,778l-.36-126.26c0,14.54,9.59,29,28.68,40.15l.36,126.26C1879.22,807,1869.67,792.51,1869.63,778Z"/><polygon class="cls-5" points="2391.62 978.75 2391.98 1105.01 1898.31 818.12 1897.95 691.86 2391.62 978.75"/><polygon class="cls-4" points="3120.48 765 3113.47 769.05 3044.34 808.96 2531.57 1105.01 2531.21 978.74 3044.34 682.48 3113.47 642.57 3120.13 638.73 3120.48 765"/><path class="cls-5" d="M2531.21,978.75l.36,126.26c-38.67,22.32-101.17,22.32-139.59,0l-.36-126.26C2430,1001.07,2492.54,1001.07,2531.21,978.75Z"/><path class="cls-3" d="M2487.32,271c38.67-22.33,101.18-22.33,139.59,0l493.67,286.89c38.43,22.33,38.22,58.53-.45,80.85l-588.92,340c-38.67,22.32-101.17,22.32-139.59,0L1898,691.86c-38.42-22.33-38.22-58.53.45-80.86Z"/></g><g class="cls-17"><path class="cls-6" d="M3087.15,576.54l.09,30.91c0,7.8-5.12,15.61-15.43,21.56l-.09-30.91C3082,592.15,3087.18,584.34,3087.15,576.54Z"/><polygon class="cls-6" points="3071.72 598.1 3071.81 629.01 2943.25 703.24 2943.16 672.33 3071.72 598.1"/><path class="cls-6" d="M2854.13,682l-.09-30.91c0,7.7,5.08,15.38,15.19,21.26,20.35,11.82,53.45,11.82,73.93,0l.09,30.91c-20.48,11.82-53.58,11.82-73.93,0C2859.21,697.36,2854.15,689.68,2854.13,682Z"/><path class="cls-6" d="M2998,555.28c20.48-11.82,53.58-11.82,73.92,0s20.24,31-.24,42.82l-128.56,74.23c-20.48,11.82-53.58,11.82-73.93,0s-20.23-31,.25-42.82Z"/><path class="cls-13" d="M2998,555.28c20.48-11.82,53.58-11.82,73.92,0s20.24,31-.24,42.82l-128.56,74.23c-20.48,11.82-53.58,11.82-73.93,0s-20.23-31,.25-42.82Z"/></g><path class="cls-4" d="M2900.05,530.48,2343.09,852c-26.26,15.16-72.13,13.26-102.45-4.25L1963.2,687.61c-30.32-17.5-33.62-44-7.36-59.15l557-321.56c26.27-15.16,72.13-13.26,102.46,4.25l277.43,160.18C2923,488.83,2926.31,515.32,2900.05,530.48Z"/><text class="cls-18" transform="matrix(0.87, -0.5, 0.87, 0.5, 2219.07, 785.71)">$16.70</text><text class="cls-19" transform="matrix(0.87, -0.5, 0.87, 0.5, 2015.29, 665.98)">Today’s Value :</text><polygon class="cls-6" points="3113.47 642.57 3113.47 769.05 3044.34 808.96 3044.34 682.48 3113.47 642.57"/><g class="cls-17"><polygon class="cls-3" points="2181.84 855.79 2181.76 1014.51 2047.08 1092.78 2047.16 934.06 2181.84 855.79"/><polygon class="cls-5" points="2047.16 934.06 2047.08 1092.78 1911.52 1014.51 1911.6 855.79 2047.16 934.06"/><polygon class="cls-6" points="2181.84 855.79 2047.16 934.06 1911.6 855.79 2046.28 777.53 2181.84 855.79"/></g><g class="cls-17"><polygon class="cls-3" points="2006.48 994.54 2006.39 1114.38 1871.71 1192.65 1871.8 1072.81 2006.48 994.54"/><polygon class="cls-5" points="1871.8 1072.81 1871.71 1192.65 1736.15 1114.38 1736.23 994.54 1871.8 1072.81"/><polygon class="cls-6" points="2006.48 994.54 1871.8 1072.81 1736.23 994.54 1870.91 916.27 2006.48 994.54"/></g><g class="cls-17"><polygon class="cls-3" points="1831.11 1134.3 1831.03 1215.02 1696.35 1293.28 1696.43 1212.57 1831.11 1134.3"/><polygon class="cls-5" points="1696.43 1212.57 1696.35 1293.28 1560.79 1215.02 1560.87 1134.3 1696.43 1212.57"/><polygon class="cls-6" points="1831.11 1134.3 1696.43 1212.57 1560.87 1134.3 1695.55 1056.04 1831.11 1134.3"/></g><g class="cls-17"><polygon class="cls-3" points="1655.75 1249.67 1655.66 1314.89 1520.98 1393.15 1521.07 1327.94 1655.75 1249.67"/><polygon class="cls-5" points="1521.07 1327.94 1520.98 1393.15 1385.42 1314.89 1385.51 1249.67 1521.07 1327.94"/><polygon class="cls-6" points="1655.75 1249.67 1521.07 1327.94 1385.51 1249.67 1520.18 1171.4 1655.75 1249.67"/></g><g class="cls-17"><polygon class="cls-3" points="1480.38 1389.43 1480.3 1418.32 1345.62 1496.59 1345.7 1467.7 1480.38 1389.43"/><polygon class="cls-5" points="1345.7 1467.7 1345.62 1496.59 1210.06 1418.32 1210.14 1389.43 1345.7 1467.7"/><polygon class="cls-6" points="1480.38 1389.43 1345.7 1467.7 1210.14 1389.43 1344.82 1311.17 1480.38 1389.43"/></g><path class="cls-5" d="M3107.63,937.56c58.19,0,114.84,6.34,168.39,18.85,55.3,12.92,104.84,31.89,147.26,56.38,42.12,24.32,74.66,52.61,96.72,84.08,21,30,31.7,61.68,31.7,94.12,0,32.77-10.87,64.82-32.3,95.27-22.48,31.94-55.61,60.67-98.46,85.42-43.15,24.91-93.47,44.21-149.56,57.37-54.29,12.74-111.61,19.2-170.38,19.2-58.18,0-114.84-6.34-168.38-18.85-55.31-12.92-104.85-31.89-147.26-56.38-42.13-24.32-74.67-52.6-96.73-84.08-21-30-31.7-61.68-31.7-94.12,0-32.77,10.87-64.82,32.3-95.27,21.87-31.07,53.81-59.11,95-83.38l55.7,32.15c-63.52,39.69-98.33,91.23-98.33,146.08,0,57.18,37.92,110.56,106.78,150.32,67.65,39.06,157.63,60.56,253.36,60.56,96.72,0,187.89-21.88,256.72-61.62,70-40.43,108.61-94.51,108.61-152.25,0-57.18-37.92-110.56-106.77-150.31-67.66-39.06-157.64-60.57-253.37-60.57a603.18,603.18,0,0,0-121.82,12.18l-17.84-42.28a760,760,0,0,1,140.38-12.87m0-7a766.38,766.38,0,0,0-150.17,14.64l23.44,55.53a597.27,597.27,0,0,1,126-13.23c90.61,0,181,19.87,249.87,59.64,138.42,79.92,137.6,210-1.83,290.46-70,40.44-161.76,60.69-253.23,60.69-90.6,0-181-19.87-249.86-59.63-138.43-79.93-137.61-210,1.82-290.47l-69.49-40.11c-178.08,102.81-179.13,268.91-2.33,371,88,50.78,203.43,76.16,319.14,76.16,116.85,0,233.95-25.85,323.43-77.51,178.09-102.82,179.14-268.92,2.34-371-88-50.79-203.42-76.17-319.14-76.17Z"/><path class="cls-5" d="M2957.46,945.21l23.44,55.53c-46.36,10.07-89.87,25.89-127.22,47.46l-69.49-40.11C2834.78,978.88,2894.23,957.91,2957.46,945.21Z"/><text class="cls-20" transform="matrix(0.88, -0.51, 0.87, 0.5, 3027.22, 1329.73)">7%</text><g class="cls-17"><path class="cls-6" d="M1650.5,2120.78l-.37,69.52c0,10.47-6.9,20.92-20.64,28.92-16.51,9.58-39.15,13.46-60.64,11.62-14.57-1.26-28.64-5.13-39.89-11.62-14-8.11-21-18.72-21-29.33l.37-69.42c0,10.55,7,21.15,21,29.22,11.16,6.43,25.06,10.31,39.53,11.58,21.6,1.91,44.42-1.94,61-11.58C1643.58,2141.69,1650.47,2131.24,1650.5,2120.78Z"/><path class="cls-4" d="M1629.52,2091.46c27.85,16.08,28,42.15.32,58.23s-72.67,16.08-100.52,0-28-42.15-.32-58.23S1601.67,2075.38,1629.52,2091.46Z"/></g><g class="cls-17"><path class="cls-6" d="M1622.89,2073.12l-.21,45.87c0,6.42-4.25,12.82-12.67,17.7-11.12,6.48-26.85,8.69-41.16,6.67a57.14,57.14,0,0,1-20.41-6.67c-8.6-5-12.88-11.46-12.86-18l.23-45.83c0,6.49,4.28,13,12.84,17.91a57,57,0,0,0,20.2,6.64c14.38,2.08,30.2-.13,41.39-6.64C1618.66,2085.94,1622.87,2079.52,1622.89,2073.12Z"/><path class="cls-4" d="M1610,2055.16c17.06,9.85,17.15,25.82.2,35.67s-44.52,9.85-61.58,0-17.15-25.82-.2-35.67S1593,2045.31,1610,2055.16Z"/></g><path class="cls-5" d="M1568.85,2097.46v45.9a57.14,57.14,0,0,1-20.41-6.67c-8.6-5-12.88-11.46-12.86-18l.23-45.83c0,6.49,4.28,13,12.84,17.91A57,57,0,0,0,1568.85,2097.46Z"/><path class="cls-5" d="M1529.32,2149.69c11.16,6.43,25.06,10.31,39.53,11.58v69.57c-14.57-1.26-28.64-5.13-39.89-11.62-14-8.11-21-18.72-21-29.33l.37-69.42C1508.34,2131,1515.34,2141.62,1529.32,2149.69Z"/><polygon class="cls-5" points="1493.39 1906.35 1523.57 1888.92 1544.49 1901 1514.31 1918.43 1493.39 1906.35"/><polygon class="cls-5" points="1520.27 1880.99 1550.45 1863.57 1579.89 1880.56 1549.71 1897.99 1520.27 1880.99"/><polygon class="cls-5" points="1561.87 1864.13 1592.05 1846.71 1615.29 1860.13 1585.11 1877.55 1561.87 1864.13"/><polygon class="cls-5" points="1593.39 1841.46 1623.57 1824.03 1650.69 1839.69 1620.51 1857.11 1593.39 1841.46"/><polygon class="cls-5" points="1634.99 1824.6 1665.17 1807.17 1686.09 1819.25 1655.91 1836.67 1634.99 1824.6"/><polygon class="cls-5" points="1670.39 1804.16 1700.57 1786.73 1721.49 1798.81 1691.31 1816.23 1670.39 1804.16"/><polygon class="cls-5" points="1700.37 1780.59 1730.55 1763.16 1756.89 1778.37 1726.71 1795.8 1700.37 1780.59"/><polygon class="cls-5" points="1737.32 1761.05 1767.5 1743.62 1792.29 1757.93 1762.11 1775.36 1737.32 1761.05"/><polygon class="cls-5" points="1769.62 1738.82 1799.8 1721.39 1827.69 1737.49 1797.51 1754.92 1769.62 1738.82"/><polygon class="cls-5" points="1802.69 1717.04 1832.88 1699.61 1863.09 1717.06 1832.91 1734.48 1802.69 1717.04"/><polygon class="cls-5" points="1844.29 1700.18 1874.47 1682.75 1898.49 1696.62 1868.31 1714.04 1844.29 1700.18"/><polygon class="cls-5" points="1882.79 1681.53 1912.97 1664.1 1933.89 1676.18 1903.71 1693.61 1882.79 1681.53"/><polygon class="cls-5" points="1918.19 1661.09 1948.37 1643.66 1969.29 1655.74 1939.11 1673.17 1918.19 1661.09"/><polygon class="cls-5" points="1953.59 1640.65 1983.77 1623.23 2004.69 1635.3 1974.51 1652.73 1953.59 1640.65"/><polygon class="cls-5" points="1988.99 1620.21 2019.17 1602.79 2040.09 1614.87 2009.91 1632.29 1988.99 1620.21"/><polygon class="cls-5" points="2015.1 1594.41 2045.28 1576.98 2075.49 1594.43 2045.31 1611.85 2015.1 1594.41"/><polygon class="cls-5" points="2056.69 1577.55 2086.88 1560.12 2110.89 1573.99 2080.71 1591.41 2056.69 1577.55"/><polygon class="cls-5" points="2095.19 1558.9 2125.37 1541.47 2146.29 1553.55 2116.11 1570.97 2095.19 1558.9"/><polygon class="cls-5" points="2130.59 1538.46 2160.78 1521.04 2181.69 1533.11 2151.51 1550.54 2130.59 1538.46"/><polygon class="cls-5" points="2160.57 1514.89 2190.75 1497.46 2217.09 1512.67 2186.91 1530.1 2160.57 1514.89"/><polygon class="cls-5" points="2192.1 1492.22 2222.28 1474.79 2252.49 1492.23 2222.31 1509.66 2192.1 1492.22"/><polygon class="cls-5" points="2231.37 1474.01 2261.55 1456.59 2287.89 1471.8 2257.71 1489.22 2231.37 1474.01"/><polygon class="cls-5" points="2265.22 1452.68 2295.4 1435.26 2323.29 1451.36 2293.11 1468.78 2265.22 1452.68"/><polygon class="cls-5" points="2307.59 1436.27 2337.78 1418.84 2358.69 1430.92 2328.51 1448.35 2307.59 1436.27"/><polygon class="cls-5" points="2334.47 1410.91 2364.65 1393.48 2394.09 1410.48 2363.91 1427.91 2334.47 1410.91"/><polygon class="cls-5" points="2374.52 1393.15 2404.7 1375.73 2429.49 1390.04 2399.31 1407.47 2374.52 1393.15"/><polygon class="cls-5" points="2413.8 1374.95 2443.98 1357.53 2464.89 1369.61 2434.71 1387.03 2413.8 1374.95"/><polygon class="cls-5" points="2442.22 1350.49 2472.4 1333.06 2500.29 1349.17 2470.11 1366.59 2442.22 1350.49"/><polygon class="cls-5" points="2471.43 1326.47 2501.61 1309.05 2535.7 1328.73 2505.51 1346.15 2471.43 1326.47"/><polygon class="cls-5" points="2502.18 1303.35 2532.36 1285.93 2571.09 1308.29 2540.91 1325.72 2502.18 1303.35"/><polyline class="cls-21" points="1511.55 1935.72 2609.64 1301.74 2452.74 1211.2"/><path class="cls-5" d="M2677.11,1460.66,2270.9,1695.19c-8.23,4.75-22.6,4.15-32.1-1.33h0c-9.5-5.49-10.53-13.78-2.3-18.53l406.21-234.53c8.23-4.75,22.6-4.15,32.09,1.33h0C2684.3,1447.62,2685.33,1455.91,2677.11,1460.66Z"/><path class="cls-5" d="M2755.38,1507.42,2349.17,1742c-8.23,4.75-22.6,4.15-32.1-1.33h0c-9.5-5.49-10.53-13.78-2.3-18.53L2721,1487.56c8.23-4.75,22.6-4.15,32.09,1.33h0C2762.57,1494.37,2763.61,1502.67,2755.38,1507.42Z"/><path class="cls-5" d="M2838.73,1553.16l-406.21,234.53c-8.23,4.75-22.6,4.15-32.09-1.33h0c-9.5-5.49-10.53-13.78-2.31-18.53l406.21-234.53c8.23-4.75,22.6-4.15,32.1,1.33h0C2845.93,1540.12,2847,1548.41,2838.73,1553.16Z"/><path class="cls-22" d="M3116.62,2313.16l-58.18-33.6c-3.6-2.07-6.52-7.65-6.52-12.46h0c0-4.8,2.92-7,6.52-4.93l58.18,33.6c3.6,2.08,6.52,7.65,6.52,12.46h0C3123.14,2313,3120.22,2315.24,3116.62,2313.16Z"/><path class="cls-4" d="M4750,1652.79l-.17,59c0,19.14-12.64,38.26-37.77,52.87l.16-59C4737.35,1691.05,4749.94,1671.93,4750,1652.79Z"/><path class="cls-4" d="M2795.16,2117.35l.17-59c-.06,19.4,12.74,38.82,38.37,53.62l-.16,59C2807.91,2156.16,2795.11,2136.74,2795.16,2117.35Z"/><polygon class="cls-3" points="4712.21 1705.66 4712.05 1764.67 3516.77 2459.29 3516.94 2400.28 4712.21 1705.66"/><polygon class="cls-4" points="3333.1 2400.28 3332.93 2459.29 2833.53 2170.96 2833.7 2111.95 3333.1 2400.28"/><path class="cls-4" d="M3516.93,2400.28l-.16,59a152.75,152.75,0,0,1-36.74,15c-30.12,8.17-64.58,9.27-95.93,3.27-18.7-3.57-36.27-9.65-51.16-18.25l.16-59c14.86,8.57,32.37,14.65,51,18.22,31.33,6,65.79,4.95,95.93-3.2A152.72,152.72,0,0,0,3516.93,2400.28Z"/><path class="cls-5" d="M4711.61,1599.17c50.94,29.41,51.2,77.08.6,106.49L3516.94,2400.28c-50.6,29.4-132.91,29.4-183.84,0L2833.7,2112c-50.93-29.41-51.2-77.08-.6-106.49l1195.28-694.62c50.6-29.4,132.9-29.4,183.84,0Z"/><path class="cls-3" d="M4120.18,1294c33.82,0,65.58,7.59,89.44,21.36L4709,1603.67c23,13.3,35.75,30.68,35.78,48.94s-12.48,35.35-35.2,48.56L3514.33,2395.79c-23.7,13.76-55.37,21.35-89.19,21.35s-65.59-7.59-89.44-21.36l-499.4-288.33c-23.05-13.3-35.75-30.68-35.78-48.94s12.47-35.35,35.19-48.56L4031,1315.33c23.69-13.76,55.37-21.35,89.19-21.35Zm0-5.19c-33.27,0-66.5,7.35-91.8,22L2833.1,2005.46c-50.6,29.41-50.33,77.08.6,106.49l499.4,288.33c25.47,14.7,58.77,22,92,22s66.5-7.35,91.8-22l1195.27-694.62c50.6-29.41,50.34-77.08-.6-106.49l-499.39-288.33c-25.47-14.7-58.78-22-92-22Z"/><path class="cls-4" d="M4683.05,1678.54,3487.42,2368.83c-30.83,17.81-81.19,17.7-112.25-.23L2875.25,2080c-31.06-17.93-31.24-47-.41-64.81l1195.63-690.29c30.84-17.81,81.19-17.7,112.26.23l499.91,288.63C4713.7,1631.66,4713.89,1660.73,4683.05,1678.54Z"/><path class="cls-4" d="M4126.23,1315.53c20.65,0,40,4.61,54.52,13l499.92,288.63c13.82,8,21.44,18.35,21.44,29.2s-7.47,20.94-21,28.77L3485.45,2365.41c-14.25,8.23-33.35,12.76-53.78,12.76-20.65,0-40-4.61-54.53-13l-499.91-288.63c-13.83-8-21.45-18.35-21.45-29.2s7.47-20.94,21-28.77l1195.62-690.29c14.25-8.23,33.35-12.76,53.79-12.76h0m0-4c-20.22,0-40.41,4.43-55.75,13.29L2874.84,2015.16c-30.83,17.8-30.65,46.88.41,64.81l499.92,288.63c15.6,9,36.08,13.52,56.5,13.52,20.23,0,40.41-4.43,55.75-13.29l1195.63-690.29c30.84-17.81,30.65-46.88-.41-64.81L4182.73,1325.1c-15.61-9-36.08-13.52-56.51-13.52Z"/><path class="cls-4" d="M4587.32,1558.69a171,171,0,0,1-51.23,7.48c-27.26-.06-54.56-6.12-75.43-18.18l-155.39-89.71c-34.42-19.87-40.63-49.82-18.54-73.13Z"/><path class="cls-6" d="M2989,2031.27q6,3.46,5.37,7.49t-7.64,8.08l-3.43,2,13.21,7.63-8,4.61-37.15-21.45,12-6.95a30.34,30.34,0,0,1,13.34-4.34A21.54,21.54,0,0,1,2989,2031.27Zm-12.15,13.82,2.62-1.52c2.46-1.42,3.82-2.75,4.09-4s-.52-2.41-2.35-3.47a10.22,10.22,0,0,0-5.63-1.48,13.73,13.73,0,0,0-6.13,2l-3.63,2.1Z"/><path class="cls-6" d="M3034.65,2035a29.51,29.51,0,0,1-14.67,4.09,28.24,28.24,0,0,1-14.64-3.92q-7.14-4.12-7.42-8.47t6.12-8a25.47,25.47,0,0,1,25.82,0l3.76,2.17L3015,2031.6a14.9,14.9,0,0,0,7.15,1.84,13.94,13.94,0,0,0,7.06-1.94,24.58,24.58,0,0,0,4.39-3.15,18.91,18.91,0,0,0,3.14-3.78l6,3.46a14.31,14.31,0,0,1-2.9,3.42A32.69,32.69,0,0,1,3034.65,2035Zm-25.05-13.18c-1.66,1-2.45,2-2.35,3.16s1,2.32,2.81,3.5l11-6.37a12.68,12.68,0,0,0-6-1.68A10.48,10.48,0,0,0,3009.6,2021.86Z"/><path class="cls-6" d="M3039.43,1998.27a20.21,20.21,0,0,1,2.89-1.4l6.67,4.54a14.79,14.79,0,0,0-2.57,1.19c-2.51,1.45-3.83,2.94-4,4.49s.94,3,3.23,4.29l14.46,8.35-7.86,4.54-28.41-16.4,5.95-3.44,5.94,2.09.39-.23a5.21,5.21,0,0,1-.23-4.31A7.5,7.5,0,0,1,3039.43,1998.27Z"/><path class="cls-6" d="M3088.47,2004q-13.45,7.77-28-.63-7.24-4.18-7.41-8.51t6.67-8.26a35.55,35.55,0,0,1,10.9-4.07l3.68,4.8c-1.73.44-3.28.87-4.66,1.3a18.51,18.51,0,0,0-3.67,1.58q-6.13,3.54,2.45,8.5,8.34,4.8,14.47,1.27a15.38,15.38,0,0,0,3.61-2.77,9.73,9.73,0,0,0,2-3.32l6.63,3.83a8.72,8.72,0,0,1-2.2,3.18A25.08,25.08,0,0,1,3088.47,2004Z"/><path class="cls-6" d="M3117,1987.51a29.49,29.49,0,0,1-14.67,4.1,28.3,28.3,0,0,1-14.64-3.93q-7.14-4.12-7.41-8.46t6.11-8a25.5,25.5,0,0,1,25.82,0l3.76,2.17-18.58,10.73a15,15,0,0,0,7.14,1.83,13.9,13.9,0,0,0,7.06-1.93,25.23,25.23,0,0,0,4.39-3.15,19.07,19.07,0,0,0,3.15-3.79l6,3.47a14.46,14.46,0,0,1-2.89,3.41A32.65,32.65,0,0,1,3117,1987.51Zm-25-13.17c-1.67,1-2.46,2-2.36,3.16s1,2.31,2.81,3.5l11-6.37a12.45,12.45,0,0,0-6-1.68A10.35,10.35,0,0,0,3091.92,1974.34Z"/><path class="cls-6" d="M3161.2,1961.38l-7.86,4.54-16.59-9.58a14.41,14.41,0,0,0-5.72-2,8.44,8.44,0,0,0-5.07,1.15q-3.3,1.9-2.6,4t5.74,5l13.36,7.71-7.86,4.54-28.41-16.4,6-3.46,4.69,1.48.44-.25a4.11,4.11,0,0,1,.51-3.89,12.06,12.06,0,0,1,4.19-3.64,20.07,20.07,0,0,1,10.31-2.85,20.77,20.77,0,0,1,10.34,3Z"/><path class="cls-6" d="M3175.77,1946.43a17.49,17.49,0,0,0,4.06-3.37l5.77,3.33a20.89,20.89,0,0,1-15.14,7.52,19.27,19.27,0,0,1-9.2-2.83l-13.7-7.9-3.76,2.17-3.28-1.89,1.74-4-3.73-4.77,5-2.9,6.05,3.49,8.06-4.66,5.82,3.36-8.07,4.66,13.7,7.9a6,6,0,0,0,3.38.87A7.27,7.27,0,0,0,3175.77,1946.43Z"/><path class="cls-6" d="M3210.52,1932.91l-5.38-1.35-.21.12a5.72,5.72,0,0,1-.67,4.33,13.31,13.31,0,0,1-4.52,3.71,17.61,17.61,0,0,1-17.92,0c-3-1.74-4.17-3.64-3.46-5.7s3.14-4.39,7.31-7l4.84-3-1.24-.72a8.25,8.25,0,0,0-8.8.1,18.57,18.57,0,0,0-6.07,5.87l-7.83-1.51c1.6-2.91,4.42-5.52,8.46-7.86a26,26,0,0,1,11.39-3.69,18.59,18.59,0,0,1,10.66,2.58l18.93,10.93Zm-15.48-6.26-2.94,1.82c-2.22,1.36-3.52,2.57-3.89,3.65s.21,2.05,1.73,2.93q3.29,1.89,7.09-.31,2.74-1.58,2.82-3.42c.06-1.22-.76-2.33-2.48-3.32Z"/><path class="cls-6" d="M3220.78,1894.19l3.94,2.27-3.37,3.26a14.46,14.46,0,0,1,5.51,1.75c3,1.76,4.34,3.76,3.89,6s-2.6,4.44-6.43,6.66l-1.5.77-1.28.6a1.55,1.55,0,0,0,.82,1.87q1.68,1,6-1.53l4.89-2.83a21.16,21.16,0,0,1,9.24-3,14.6,14.6,0,0,1,8.38,2q5,2.88,3.51,6.9t-9.36,8.57a30.25,30.25,0,0,1-11.28,4.12,14.09,14.09,0,0,1-9-1.51q-2.57-1.48-2.67-3.42t2.3-4.17a12.74,12.74,0,0,1-3.77.26,7.78,7.78,0,0,1-3.36-.9,3,3,0,0,1-1.75-2.11,5.45,5.45,0,0,1,.64-2.82,18.53,18.53,0,0,1-6.7.29,17.23,17.23,0,0,1-6.36-2.14q-4.65-2.68-4.12-5.92t6.22-6.53a34.05,34.05,0,0,1,3.09-1.54c1.26-.55,2.07-.9,2.45-1Zm10.17,31.56a6.21,6.21,0,0,0,4.08.55,15.08,15.08,0,0,0,5.28-2c2.82-1.62,4.65-3.12,5.49-4.48s.59-2.43-.73-3.19a4.83,4.83,0,0,0-3.63-.46,19.09,19.09,0,0,0-5,2.18l-4.08,2.35a5.31,5.31,0,0,0-2.61,2.67C3229.45,1924.32,3229.85,1925.11,3231,1925.75Zm-20.25-15a10.81,10.81,0,0,0,4.72,1.49,8,8,0,0,0,4.61-1.1c1.48-.86,2.11-1.74,1.9-2.66s-1.08-1.81-2.62-2.7c-3.43-2-6.56-2.14-9.42-.5S3207.27,1908.77,3210.7,1910.75Z"/><path class="cls-6" d="M3267.48,1900.61a29.44,29.44,0,0,1-14.66,4.09,28.14,28.14,0,0,1-14.64-3.92q-7.14-4.12-7.42-8.47c-.18-2.89,1.85-5.57,6.12-8a25.53,25.53,0,0,1,25.82,0l3.76,2.17-18.59,10.73A14.89,14.89,0,0,0,3255,1899a14,14,0,0,0,7.07-1.94,24.58,24.58,0,0,0,4.39-3.15,18.91,18.91,0,0,0,3.14-3.78l6,3.46a14.35,14.35,0,0,1-2.9,3.42A32.84,32.84,0,0,1,3267.48,1900.61Zm-25-13.18c-1.67,1-2.45,2-2.35,3.17s1,2.31,2.8,3.49l11-6.37a12.71,12.71,0,0,0-6-1.68A10.47,10.47,0,0,0,3242.44,1887.43Z"/><path class="cls-6" d="M3087.68,2075.93l-37.14-21.45,8-4.61,37.15,21.45Z"/><path class="cls-6" d="M3131.15,2050.84l-7.86,4.54-16.6-9.58a14.19,14.19,0,0,0-5.72-2,8.33,8.33,0,0,0-5.06,1.16q-3.3,1.9-2.6,4c.47,1.41,2.38,3.07,5.73,5l13.37,7.72-7.87,4.54-28.4-16.4,6-3.47,4.69,1.49.43-.26a4.16,4.16,0,0,1,.51-3.89A12.13,12.13,0,0,1,3092,2040a20,20,0,0,1,10.32-2.86,20.88,20.88,0,0,1,10.34,3Z"/><path class="cls-6" d="M3151.45,2039.7q-13.45,7.77-28-.64-7.24-4.17-7.4-8.5t6.66-8.26a35.61,35.61,0,0,1,10.91-4.07l3.67,4.8c-1.73.43-3.28.87-4.66,1.3a18.5,18.5,0,0,0-3.67,1.57q-6.13,3.55,2.46,8.5,8.33,4.81,14.46,1.27a14.67,14.67,0,0,0,3.61-2.77,9.6,9.6,0,0,0,2-3.31l6.63,3.83a8.68,8.68,0,0,1-2.2,3.18A25.23,25.23,0,0,1,3151.45,2039.7Z"/><path class="cls-6" d="M3153.54,2004.49a19.65,19.65,0,0,1,2.88-1.4l6.67,4.54a14.79,14.79,0,0,0-2.57,1.19q-3.76,2.17-4,4.49t3.23,4.29l14.46,8.35-7.86,4.54-28.41-16.4,6-3.44,5.93,2.09.39-.22a5.27,5.27,0,0,1-.23-4.32A7.57,7.57,0,0,1,3153.54,2004.49Z"/><path class="cls-6" d="M3203.92,2009.41a29.49,29.49,0,0,1-14.67,4.1,28.25,28.25,0,0,1-14.64-3.93q-7.14-4.12-7.42-8.47t6.12-8a25.53,25.53,0,0,1,25.82,0l3.76,2.18L3184.3,2006a15,15,0,0,0,7.15,1.83,13.94,13.94,0,0,0,7.06-1.94,24.58,24.58,0,0,0,4.39-3.15,18.91,18.91,0,0,0,3.14-3.78l6,3.46a14.12,14.12,0,0,1-2.9,3.42A32.69,32.69,0,0,1,3203.92,2009.41Zm-25.05-13.18c-1.66,1-2.45,2-2.35,3.17s1,2.31,2.81,3.49l11-6.37a12.68,12.68,0,0,0-6-1.68A10.57,10.57,0,0,0,3178.87,1996.23Z"/><path class="cls-6" d="M3239.86,1988.07l-5.38-1.35-.21.12a5.72,5.72,0,0,1-.67,4.33,13.21,13.21,0,0,1-4.52,3.71,17.61,17.61,0,0,1-17.92,0c-3-1.74-4.17-3.64-3.46-5.7s3.15-4.38,7.31-7l4.85-3-1.25-.72a8.25,8.25,0,0,0-8.8.1,18.5,18.5,0,0,0-6.07,5.88l-7.83-1.52q2.4-4.37,8.46-7.85a25.88,25.88,0,0,1,11.39-3.7,18.66,18.66,0,0,1,10.66,2.58l18.93,10.93Zm-15.48-6.26-2.94,1.82c-2.22,1.36-3.52,2.57-3.89,3.65s.21,2,1.73,2.93q3.28,1.89,7.09-.31,2.74-1.58,2.82-3.42c.06-1.22-.76-2.33-2.47-3.32Z"/><path class="cls-6" d="M3265.12,1963.75q4.37,2.52,3.57,5.62t-6.93,6.64a44.5,44.5,0,0,1-5.78,2.86,39.41,39.41,0,0,1-5.38,1.68l-6.4-3.7a55.26,55.26,0,0,0,6.64-1.86,33.28,33.28,0,0,0,5.52-2.4q4.28-2.47,1.84-3.88a4.08,4.08,0,0,0-2.06-.53,19.33,19.33,0,0,0-3.25.39q-2.11.38-5.4,1.16a53,53,0,0,1-7.43,1.36,17.25,17.25,0,0,1-4.95-.24,15,15,0,0,1-4.43-1.74q-3.78-2.19-2.88-5.1t6.37-6.07a42.76,42.76,0,0,1,12.37-4.56l3.22,4.6c-2.06.48-3.9,1-5.55,1.47a20.7,20.7,0,0,0-4.42,1.88c-2.32,1.34-2.87,2.36-1.63,3.08a4.83,4.83,0,0,0,2.93.39,68,68,0,0,0,7.17-1.53,50.42,50.42,0,0,1,7.46-1.4,17.86,17.86,0,0,1,5,.21A14.39,14.39,0,0,1,3265.12,1963.75Z"/><path class="cls-6" d="M3293.24,1957.84a29.47,29.47,0,0,1-14.66,4.09,28.14,28.14,0,0,1-14.64-3.92q-7.14-4.12-7.42-8.47t6.11-8a25.55,25.55,0,0,1,25.83,0l3.76,2.17-18.59,10.73a14.89,14.89,0,0,0,7.14,1.84,13.88,13.88,0,0,0,7.06-1.94,24.22,24.22,0,0,0,4.39-3.15,19,19,0,0,0,3.15-3.78l6,3.46a14.07,14.07,0,0,1-2.89,3.42A33.32,33.32,0,0,1,3293.24,1957.84Zm-25-13.18c-1.67,1-2.45,2-2.36,3.17s1,2.31,2.81,3.49l11-6.37a12.71,12.71,0,0,0-6-1.68A10.47,10.47,0,0,0,3268.2,1944.66Z"/><path class="cls-6" d="M3442.51,1788.29l-37.14-21.44,8-4.62,37.15,21.45Z"/><path class="cls-6" d="M3486,1763.2l-7.86,4.54-16.6-9.58a14.17,14.17,0,0,0-5.71-2,8.27,8.27,0,0,0-5.07,1.15c-2.2,1.27-3.07,2.6-2.6,4s2.38,3.07,5.73,5l13.37,7.72-7.87,4.54-28.4-16.4,6-3.47,4.69,1.49.43-.26a4.14,4.14,0,0,1,.51-3.88,12,12,0,0,1,4.2-3.64,20,20,0,0,1,10.31-2.86,20.88,20.88,0,0,1,10.34,3Z"/><path class="cls-6" d="M3506.29,1752.06q-13.47,7.77-28-.64-7.24-4.17-7.4-8.5t6.66-8.26a35.61,35.61,0,0,1,10.91-4.07l3.67,4.8c-1.73.43-3.28.87-4.66,1.3a18.51,18.51,0,0,0-3.67,1.58q-6.14,3.54,2.46,8.5,8.33,4.8,14.47,1.27a15.07,15.07,0,0,0,3.6-2.78,9.6,9.6,0,0,0,2-3.31l6.63,3.83a8.6,8.6,0,0,1-2.2,3.18A24.94,24.94,0,0,1,3506.29,1752.06Z"/><path class="cls-6" d="M3508.37,1716.86a17.8,17.8,0,0,1,2.88-1.4l6.67,4.53a14.18,14.18,0,0,0-2.57,1.2c-2.51,1.44-3.83,2.94-4,4.48s1,3,3.23,4.3l14.46,8.34-7.86,4.54-28.41-16.4,6-3.44,5.93,2.09.39-.22a5.27,5.27,0,0,1-.23-4.32A7.51,7.51,0,0,1,3508.37,1716.86Z"/><path class="cls-6" d="M3558.75,1721.77a29.49,29.49,0,0,1-14.67,4.1,28.27,28.27,0,0,1-14.64-3.93q-7.14-4.12-7.42-8.47t6.12-8a25.5,25.5,0,0,1,25.82,0l3.76,2.17-18.59,10.73a15,15,0,0,0,7.15,1.83,13.91,13.91,0,0,0,7.06-1.94,24.22,24.22,0,0,0,4.39-3.15,18.91,18.91,0,0,0,3.14-3.78l6,3.46a14.12,14.12,0,0,1-2.9,3.42A32,32,0,0,1,3558.75,1721.77Zm-25.05-13.18c-1.66,1-2.45,2-2.35,3.17s1,2.31,2.81,3.5l11-6.37a12.58,12.58,0,0,0-6-1.69A10.57,10.57,0,0,0,3533.7,1708.59Z"/><path class="cls-6" d="M3594.69,1700.43l-5.38-1.35-.21.12a5.72,5.72,0,0,1-.67,4.33,13.21,13.21,0,0,1-4.52,3.72,17.79,17.79,0,0,1-8.88,2.42,17.55,17.55,0,0,1-9-2.47c-3-1.74-4.17-3.64-3.46-5.7s3.15-4.38,7.31-7l4.85-3-1.25-.72a8.25,8.25,0,0,0-8.8.1,18.5,18.5,0,0,0-6.07,5.88l-7.83-1.52q2.4-4.35,8.46-7.85a25.88,25.88,0,0,1,11.39-3.7,18.66,18.66,0,0,1,10.66,2.58l18.93,10.93Zm-15.48-6.26-2.94,1.82c-2.22,1.36-3.51,2.58-3.89,3.65s.21,2,1.73,2.93c2.19,1.26,4.55,1.16,7.1-.31q2.73-1.58,2.82-3.41c0-1.23-.77-2.34-2.48-3.33Z"/><path class="cls-6" d="M3620,1676.11c2.91,1.68,4.1,3.56,3.57,5.62s-2.84,4.28-6.93,6.64a44.5,44.5,0,0,1-5.78,2.86,39,39,0,0,1-5.38,1.68l-6.4-3.7a55.26,55.26,0,0,0,6.64-1.86,32.46,32.46,0,0,0,5.52-2.4c2.85-1.64,3.46-2.94,1.84-3.88a4.18,4.18,0,0,0-2.06-.53,19.33,19.33,0,0,0-3.25.39q-2.11.38-5.4,1.16a51.29,51.29,0,0,1-7.43,1.36,17.25,17.25,0,0,1-4.95-.24,15,15,0,0,1-4.43-1.74q-3.78-2.19-2.88-5.1t6.37-6.07a43,43,0,0,1,12.37-4.56l3.22,4.6q-3.08.72-5.55,1.47a21.22,21.22,0,0,0-4.42,1.88q-3.48,2-1.63,3.08a4.83,4.83,0,0,0,2.93.39,63,63,0,0,0,7.17-1.53,50.42,50.42,0,0,1,7.46-1.4,18.24,18.24,0,0,1,5,.21A14.39,14.39,0,0,1,3620,1676.11Z"/><path class="cls-6" d="M3648.07,1670.2a29.59,29.59,0,0,1-14.66,4.1,28.25,28.25,0,0,1-14.64-3.93q-7.14-4.12-7.42-8.47t6.11-8a25.55,25.55,0,0,1,25.83,0l3.76,2.17-18.59,10.74a15,15,0,0,0,7.14,1.83,13.88,13.88,0,0,0,7.06-1.94,24.22,24.22,0,0,0,4.39-3.15,19,19,0,0,0,3.15-3.78l6,3.46a14.07,14.07,0,0,1-2.89,3.42A33.32,33.32,0,0,1,3648.07,1670.2ZM3623,1657c-1.67,1-2.45,2-2.36,3.17s1,2.31,2.81,3.49l11-6.37a12.71,12.71,0,0,0-6-1.68A10.56,10.56,0,0,0,3623,1657Z"/><path class="cls-6" d="M3675.35,1654.45a19.85,19.85,0,0,1-11.87,2.37,32.76,32.76,0,0,1-13.67-4.55q-7-4-7.94-8t4.23-7a20,20,0,0,1,12.47-2.38l.26-.15a48.84,48.84,0,0,1-6.26-2.93l-9.09-5.25,7.88-4.56,39.54,22.83-6,3.48-5.21-1.25-.33.19Q3680.83,1651.29,3675.35,1654.45Zm-3.42-5.15c2-1.16,2.91-2.35,2.69-3.55s-1.66-2.63-4.33-4.28l-.84-.48a20.38,20.38,0,0,0-8-3,11,11,0,0,0-6.63,1.54q-2.62,1.52-1.89,3.63c.49,1.41,2.14,2.92,4.93,4.53a19.83,19.83,0,0,0,7.76,2.78A10.24,10.24,0,0,0,3671.93,1649.3Z"/><path class="cls-6" d="M3697.81,1598l8.07-4.66,24.33,28.84-8.71,5-49.93-14.06,8.06-4.66,29.2,8.67q2.55.78,5.78,1.92t4.41,1.64a60,60,0,0,1-6.25-5.84Z"/><path class="cls-6" d="M3765.45,1601.84l-5.38-1.35-.21.12a5.72,5.72,0,0,1-.67,4.33,13.21,13.21,0,0,1-4.52,3.72,17.78,17.78,0,0,1-8.87,2.42,17.56,17.56,0,0,1-9.05-2.47q-4.52-2.61-3.46-5.7t7.31-7l4.85-3-1.25-.72a8.25,8.25,0,0,0-8.8.1,18.38,18.38,0,0,0-6.06,5.88l-7.84-1.52q2.4-4.35,8.47-7.85a25.84,25.84,0,0,1,11.38-3.7,18.58,18.58,0,0,1,10.66,2.59l18.93,10.92Zm-15.48-6.26-2.94,1.82q-3.33,2-3.88,3.65c-.38,1.08.2,2,1.72,2.93,2.19,1.27,4.55,1.16,7.1-.31q2.73-1.58,2.82-3.41c.05-1.23-.77-2.34-2.48-3.33Z"/><path class="cls-6" d="M3786.9,1589.46,3779,1594l-39.54-22.82,7.87-4.54Z"/><path class="cls-6" d="M3815.57,1572.91l-4.69-1.49-.42.24a4.11,4.11,0,0,1-.52,3.84,11.86,11.86,0,0,1-4.2,3.67,19.94,19.94,0,0,1-10.34,2.87,20.67,20.67,0,0,1-10.29-3l-18.52-10.69,7.86-4.54,16.59,9.58a14.41,14.41,0,0,0,5.72,2,8.41,8.41,0,0,0,5.07-1.15q3.3-1.9,2.6-4t-5.74-5l-13.36-7.71,7.86-4.54,28.41,16.4Z"/><path class="cls-6" d="M3843.4,1557.43a29.47,29.47,0,0,1-14.66,4.09,28.25,28.25,0,0,1-14.64-3.93c-4.76-2.74-7.24-5.57-7.42-8.46s1.85-5.57,6.11-8a25.48,25.48,0,0,1,25.83,0l3.76,2.17L3823.79,1554a15,15,0,0,0,7.14,1.83,13.87,13.87,0,0,0,7.06-1.93,24.22,24.22,0,0,0,4.39-3.15,19,19,0,0,0,3.15-3.78l6,3.46a14.45,14.45,0,0,1-2.89,3.42A33.32,33.32,0,0,1,3843.4,1557.43Zm-25-13.18c-1.67,1-2.45,2-2.36,3.16s1,2.32,2.81,3.5l11-6.37a12.6,12.6,0,0,0-6-1.68A10.44,10.44,0,0,0,3818.36,1544.25Z"/><path class="cls-6" d="M3586.26,1805q9.22,5.33,9.54,10.86t-8.35,10.54a34.56,34.56,0,0,1-18.26,4.82,38.81,38.81,0,0,1-18.86-5.53q-9.28-5.36-9.52-10.87t8.45-10.52a34.44,34.44,0,0,1,18.22-4.83A38.66,38.66,0,0,1,3586.26,1805Zm-27.5,15.88a28.25,28.25,0,0,0,11.77,4,17.5,17.5,0,0,0,10.32-2.32q9.55-5.52-3-12.76t-22.06-1.75q-4.77,2.76-4,6T3558.76,1820.83Z"/><path class="cls-6" d="M3599.23,1785.55a19.65,19.65,0,0,1,2.88-1.4l6.67,4.54a14.79,14.79,0,0,0-2.57,1.19q-3.77,2.17-4,4.49t3.23,4.29l14.46,8.35-7.86,4.54-28.41-16.4,6-3.44,5.93,2.09.39-.23a5.24,5.24,0,0,1-.23-4.31A7.53,7.53,0,0,1,3599.23,1785.55Z"/><path class="cls-6" d="M3600,1777.26q-3.78-2.19.49-4.66c2.86-1.64,5.54-1.74,8.07-.28,1.2.69,1.78,1.44,1.74,2.24s-.78,1.61-2.21,2.43Q3603.79,1779.47,3600,1777.26Zm44,15.91-7.87,4.54-28.4-16.4,7.86-4.54Z"/><path class="cls-6" d="M3648.84,1757.52l3.94,2.27-3.37,3.27a14.46,14.46,0,0,1,5.51,1.75c3,1.76,4.34,3.75,3.89,6s-2.6,4.45-6.43,6.66l-1.49.78-1.29.59a1.56,1.56,0,0,0,.82,1.88q1.68,1,6-1.53l4.89-2.83a21.18,21.18,0,0,1,9.24-3,14.66,14.66,0,0,1,8.39,2q5,2.87,3.5,6.89t-9.36,8.57a30.29,30.29,0,0,1-11.28,4.13,14.09,14.09,0,0,1-9-1.52q-2.57-1.47-2.67-3.41t2.3-4.18a12.42,12.42,0,0,1-3.77.26,7.83,7.83,0,0,1-3.36-.89,3,3,0,0,1-1.75-2.12,5.49,5.49,0,0,1,.64-2.81,18.53,18.53,0,0,1-6.7.28,17.22,17.22,0,0,1-6.36-2.13q-4.65-2.68-4.12-5.93t6.22-6.52a34.05,34.05,0,0,1,3.09-1.54c1.26-.56,2.07-.9,2.45-1Zm10.17,31.56a6.21,6.21,0,0,0,4.08.56,15.28,15.28,0,0,0,5.28-2q4.23-2.45,5.49-4.48t-.73-3.19a4.83,4.83,0,0,0-3.63-.46,19.09,19.09,0,0,0-5,2.18l-4.08,2.35a5.24,5.24,0,0,0-2.61,2.67C3657.51,1787.66,3657.91,1788.45,3659,1789.08Zm-20.25-15a10.83,10.83,0,0,0,4.72,1.5,8,8,0,0,0,4.61-1.11c1.48-.85,2.11-1.74,1.9-2.65s-1.08-1.82-2.62-2.71c-3.43-2-6.56-2.14-9.42-.49S3635.33,1772.11,3638.76,1774.08Z"/><path class="cls-6" d="M3645.91,1750.74q-3.79-2.19.49-4.66t8.07-.28c1.2.69,1.78,1.44,1.73,2.23s-.78,1.61-2.2,2.44Q3649.73,1752.93,3645.91,1750.74Zm43.94,15.9-7.86,4.54-28.4-16.4,7.86-4.54Z"/><path class="cls-6" d="M3724.71,1746.52l-7.87,4.54-16.59-9.58a14.21,14.21,0,0,0-5.72-2,8.32,8.32,0,0,0-5.06,1.15q-3.3,1.91-2.6,4t5.73,5l13.37,7.72-7.87,4.54-28.4-16.4,6-3.47,4.69,1.49.44-.25a4.16,4.16,0,0,1,.51-3.89,12,12,0,0,1,4.19-3.64,20.11,20.11,0,0,1,10.32-2.86,20.79,20.79,0,0,1,10.34,3Z"/><path class="cls-6" d="M3751.11,1731.28l-5.39-1.35-.2.12a5.77,5.77,0,0,1-.67,4.33,13.48,13.48,0,0,1-4.53,3.71,17.59,17.59,0,0,1-17.91,0q-4.53-2.61-3.46-5.7t7.3-7l4.85-3-1.24-.72a8.27,8.27,0,0,0-8.81.1,18.64,18.64,0,0,0-6.06,5.87l-7.84-1.52q2.42-4.35,8.47-7.85a26,26,0,0,1,11.38-3.69,18.6,18.6,0,0,1,10.67,2.58l18.93,10.93Zm-15.49-6.26-2.94,1.82c-2.21,1.35-3.51,2.57-3.88,3.65s.2,2,1.73,2.93c2.18,1.26,4.55,1.16,7.09-.31q2.73-1.58,2.82-3.42c.06-1.22-.77-2.33-2.48-3.32Z"/><path class="cls-6" d="M3772.55,1718.9l-7.86,4.54-39.53-22.83,7.86-4.54Z"/><path class="cls-6" d="M3779.49,1672l8.07-4.66,24.33,28.84-8.71,5-49.93-14.06,8.07-4.66,29.19,8.67q2.55.79,5.79,1.93t4.4,1.63a58.9,58.9,0,0,1-6.25-5.84Z"/><path class="cls-6" d="M3847.13,1675.84l-5.38-1.35-.21.12a5.77,5.77,0,0,1-.66,4.33,13.48,13.48,0,0,1-4.53,3.71,17.65,17.65,0,0,1-17.91,0q-4.53-2.61-3.46-5.71t7.3-7l4.85-3-1.25-.72a8.25,8.25,0,0,0-8.8.1,18.44,18.44,0,0,0-6.06,5.87l-7.84-1.52q2.42-4.35,8.47-7.85a26.1,26.1,0,0,1,11.38-3.7,18.63,18.63,0,0,1,10.67,2.59l18.92,10.93Zm-15.48-6.26-2.94,1.81q-3.33,2-3.88,3.65c-.37,1.08.2,2.06,1.73,2.94q3.27,1.89,7.09-.31,2.73-1.58,2.82-3.42c.06-1.23-.77-2.33-2.48-3.32Z"/><path class="cls-6" d="M3868.58,1663.45l-7.86,4.54-39.54-22.82,7.87-4.54Z"/><path class="cls-6" d="M3897.25,1646.9l-4.69-1.48-.41.23a4.15,4.15,0,0,1-.53,3.84,11.88,11.88,0,0,1-4.2,3.68,20,20,0,0,1-10.34,2.87,20.84,20.84,0,0,1-10.29-3l-18.52-10.69,7.86-4.54,16.59,9.58a14.26,14.26,0,0,0,5.72,2,8.34,8.34,0,0,0,5.07-1.15c2.2-1.27,3.07-2.6,2.6-4s-2.38-3.07-5.73-5l-13.37-7.72,7.86-4.54,28.41,16.4Z"/><path class="cls-6" d="M3925.08,1631.42a29.48,29.48,0,0,1-14.66,4.1,28.25,28.25,0,0,1-14.64-3.93q-7.14-4.12-7.42-8.47t6.11-8a25.55,25.55,0,0,1,25.83,0l3.76,2.18L3905.47,1628a15,15,0,0,0,7.14,1.83,14,14,0,0,0,7.07-1.94,24.94,24.94,0,0,0,4.39-3.15,19.25,19.25,0,0,0,3.14-3.78l6,3.46a14.35,14.35,0,0,1-2.9,3.42A32.84,32.84,0,0,1,3925.08,1631.42Zm-25-13.18c-1.67,1-2.45,2-2.36,3.17s1,2.31,2.81,3.49l11-6.37a12.71,12.71,0,0,0-6-1.68A10.56,10.56,0,0,0,3900,1618.24Z"/><polygon class="cls-6" points="3957.42 1529.23 3403.47 1849.06 3397.57 1845.65 3951.51 1525.83 3957.42 1529.23"/><path class="cls-6" d="M3331.7,1885.28l-5.56-3.21,25.59-14.78,5.57,3.21Zm9.83,5.68-5.56-3.21,25.6-14.78,5.56,3.21Z"/><path class="cls-6" d="M3551.19,2012l-5.56-3.21,25.6-14.78,5.56,3.21Zm9.83,5.67-5.56-3.21,25.6-14.78,5.56,3.22Z"/><path class="cls-6" d="M3739.33,2120.63l-5.57-3.21,25.6-14.78,5.57,3.21Zm9.83,5.67-5.56-3.21,25.59-14.78,5.57,3.22Z"/><path class="cls-6" d="M4090.4,1917.93l-5.56-3.21,25.6-14.78,5.56,3.22Zm9.83,5.68-5.56-3.21,25.6-14.78,5.56,3.21Z"/><path class="cls-6" d="M4012.35,1492.21l-23.18-2.66,8.92-5.15,14.64,2-3.4-8.48,8.92-5.15,4.52,13.44,24.32,2.71-8.94,5.16-15.79-2.12,3.65,9.13-8.92,5.15Z"/><path class="cls-6" d="M4082.88,1468.25l-8,4.6-21.49-12.41-3.46-2.09-3.73-2.3a19.72,19.72,0,0,1-.19,3.07l-.9,4.48-8.57-.51,2.61-12.51,6.55-3.78Z"/><path class="cls-6" d="M4100.88,1436.4q9.73,5.63,11.17,10.19t-5.28,8.45a23.59,23.59,0,0,1-14.67,2.89q-8.13-.87-17.56-6.32-9.84-5.67-11.27-10.22t5.26-8.43a23.6,23.6,0,0,1,14.74-2.87Q4091.47,1431,4100.88,1436.4Zm-18.43,10.65a45.55,45.55,0,0,0,11,5,9.21,9.21,0,0,0,7-.62q2.79-1.61,1-4.05t-8.52-6.35a44.33,44.33,0,0,0-11.07-5q-4.23-1-7,.59t-1,4Q4075.63,1443.09,4082.45,1447.05Z"/><path class="cls-6" d="M4131,1419q9.73,5.63,11.17,10.19t-5.29,8.45a23.49,23.49,0,0,1-14.66,2.89q-8.14-.87-17.57-6.31-9.83-5.68-11.27-10.23t5.26-8.43a23.66,23.66,0,0,1,14.74-2.87Q4121.62,1413.57,4131,1419Zm-18.43,10.65a45.52,45.52,0,0,0,11,5,9.24,9.24,0,0,0,7-.62q2.78-1.6,1-4t-8.52-6.35a44.65,44.65,0,0,0-11.07-4.95c-2.82-.67-5.16-.47-7,.59s-2.22,2.43-1,4S4108,1427,4112.59,1429.65Z"/><path class="cls-6" d="M3733.25,1876.67l-8,4.6-21.49-12.41-3.46-2.09-3.73-2.3a19.72,19.72,0,0,1-.19,3.07l-.9,4.48-8.57-.51,2.62-12.51,6.54-3.78Z"/><path class="cls-6" d="M3727.65,1861.68q-11-6.36-11.68-12.21t8.78-11.29a38.25,38.25,0,0,1,5.43-2.69l6.28,3.62a32.4,32.4,0,0,0-5.05,2.33c-2.73,1.57-4.55,3.1-5.47,4.56a4.14,4.14,0,0,0-.27,4.33q1.1,2.12,5.27,4.79l.33-.19q-1.77-4,3.85-7.22a20.67,20.67,0,0,1,11-2.76,23.82,23.82,0,0,1,11.5,3.34q6,3.42,6,7.39t-6,7.45a25,25,0,0,1-9.19,3.11,29.86,29.86,0,0,1-10.36-.45A35.79,35.79,0,0,1,3727.65,1861.68Zm23.63-2.08q2.55-1.47,2.22-3.24t-3.44-3.57a12.6,12.6,0,0,0-5.56-1.73,9.56,9.56,0,0,0-5.42,1.32c-1.61.93-2.48,2-2.59,3.29a3.16,3.16,0,0,0,1.9,3.07,15.52,15.52,0,0,0,6.72,2A10.61,10.61,0,0,0,3751.28,1859.6Z"/><path class="cls-6" d="M3771.09,1850.62c-1.42-.82-2.11-1.66-2.06-2.53s.8-1.73,2.28-2.58a9.06,9.06,0,0,1,4.43-1.27,8.42,8.42,0,0,1,4.38,1.17c1.34.78,2,1.61,2,2.51s-.73,1.76-2.14,2.58a9.12,9.12,0,0,1-4.48,1.28A8.43,8.43,0,0,1,3771.09,1850.62Z"/><path class="cls-6" d="M3792.62,1842.39l-16.34-25.77-18.58,10.73-6.61-3.82,27-15.61,4.93,2.85,17.91,26.8Z"/><path class="cls-6" d="M3826.58,1801.34q9.74,5.61,11.17,10.18t-5.28,8.45a23.53,23.53,0,0,1-14.67,2.89q-8.13-.87-17.56-6.31-9.84-5.68-11.28-10.23t5.27-8.43A23.66,23.66,0,0,1,3809,1795Q3817.18,1795.9,3826.58,1801.34ZM3808.15,1812a45.69,45.69,0,0,0,11,5,9.23,9.23,0,0,0,7-.62q2.79-1.6,1-4t-8.52-6.35a44.33,44.33,0,0,0-11.07-5q-4.23-1-7,.59t-1,4Q3801.33,1808,3808.15,1812Z"/><path class="cls-6" d="M3851.55,1795.93l-6.35-3.67,13.84-8,6.36,3.66Z"/><path class="cls-6" d="M3913.27,1772.74l-8,4.59-21.5-12.41-3.45-2.08-3.73-2.3a21.23,21.23,0,0,1-.19,3.07l-.91,4.48-8.56-.51,2.61-12.51,6.55-3.78Z"/><path class="cls-6" d="M3913.69,1745.09a24,24,0,0,1,11.72-3.28,21.69,21.69,0,0,1,11.52,2.92q6.22,3.58,5.69,7.77t-7.79,8.37a38,38,0,0,1-12.16,4.7l-6.78-3.91a43,43,0,0,0,6.48-1.74,33.79,33.79,0,0,0,5.8-2.57q7.3-4.21,1.41-7.61-5.62-3.26-13.17,1.11a22.3,22.3,0,0,0-2.75,1.9,20.42,20.42,0,0,0-2.11,1.88l-4.85.86-17.51-11.75,20.44-11.8,6.66,3.84-13.46,7.77,6.6,4.61.72-.62A20.5,20.5,0,0,1,3913.69,1745.09Z"/><path class="cls-6" d="M3951.11,1746.69c-1.42-.82-2.11-1.67-2.07-2.53s.81-1.73,2.29-2.58a8.9,8.9,0,0,1,4.43-1.27,8.39,8.39,0,0,1,4.37,1.17c1.34.77,2,1.61,2,2.51s-.73,1.76-2.14,2.57a9.17,9.17,0,0,1-4.48,1.29A8.41,8.41,0,0,1,3951.11,1746.69Z"/><path class="cls-6" d="M3952.86,1731.66q-11-6.37-11.68-12.21t8.78-11.29a39.59,39.59,0,0,1,5.43-2.7l6.28,3.63a32.39,32.39,0,0,0-5.05,2.32q-4.1,2.37-5.47,4.57a4.13,4.13,0,0,0-.27,4.32c.73,1.42,2.49,3,5.26,4.8l.34-.2q-1.77-4,3.85-7.21a20.58,20.58,0,0,1,11-2.76,24,24,0,0,1,11.5,3.33q5.94,3.43,6,7.4t-6,7.45a25.1,25.1,0,0,1-9.18,3.11,29.85,29.85,0,0,1-10.36-.45A36.07,36.07,0,0,1,3952.86,1731.66Zm23.62-2.08c1.7-1,2.45-2.06,2.23-3.24s-1.36-2.37-3.45-3.57a12.39,12.39,0,0,0-5.55-1.73,9.46,9.46,0,0,0-5.42,1.32c-1.62.93-2.48,2-2.59,3.28a3.14,3.14,0,0,0,1.9,3.07,15.39,15.39,0,0,0,6.71,2A10.6,10.6,0,0,0,3976.48,1729.58Z"/><path class="cls-6" d="M3989,1701.6a23.93,23.93,0,0,1,11.72-3.28,21.82,21.82,0,0,1,11.52,2.91q6.22,3.6,5.68,7.78t-7.78,8.37a38.1,38.1,0,0,1-12.16,4.7l-6.79-3.91a43.41,43.41,0,0,0,6.49-1.74,33.79,33.79,0,0,0,5.8-2.57q7.29-4.21,1.4-7.61-5.61-3.26-13.17,1.11a23.08,23.08,0,0,0-2.75,1.9,20.14,20.14,0,0,0-2.1,1.88l-4.85.86-17.51-11.75,20.44-11.8,6.66,3.84-13.46,7.77,6.6,4.61.72-.62A20.5,20.5,0,0,1,3989,1701.6Z"/><path class="cls-6" d="M3928.18,1885.28l-8,4.6-21.49-12.41-3.46-2.09-3.73-2.3a19.72,19.72,0,0,1-.19,3.07l-.9,4.48-8.57-.51,2.62-12.51,6.54-3.78Z"/><path class="cls-6" d="M3928.6,1857.63a24.18,24.18,0,0,1,11.73-3.28,21.74,21.74,0,0,1,11.52,2.92q6.22,3.59,5.68,7.78t-7.78,8.36a38.34,38.34,0,0,1-12.17,4.71l-6.78-3.92a42.9,42.9,0,0,0,6.48-1.73,33.89,33.89,0,0,0,5.81-2.58q7.29-4.2,1.4-7.61-5.61-3.24-13.17,1.12a22.18,22.18,0,0,0-2.75,1.89,22.94,22.94,0,0,0-2.11,1.88l-4.85.86-17.51-11.74,20.45-11.81,6.65,3.85-13.45,7.77,6.59,4.61.73-.63A20.76,20.76,0,0,1,3928.6,1857.63Z"/><path class="cls-6" d="M3966,1859.23c-1.42-.82-2.11-1.66-2.06-2.53s.8-1.73,2.28-2.58a9.06,9.06,0,0,1,4.43-1.27,8.42,8.42,0,0,1,4.38,1.17c1.34.78,2,1.61,2,2.51s-.73,1.76-2.14,2.58a9.12,9.12,0,0,1-4.48,1.28A8.43,8.43,0,0,1,3966,1859.23Z"/><path class="cls-6" d="M3967.77,1844.2q-11-6.37-11.68-12.21t8.78-11.29a37.76,37.76,0,0,1,5.44-2.69l6.27,3.62a31.85,31.85,0,0,0-5,2.33q-4.11,2.36-5.47,4.56a4.11,4.11,0,0,0-.28,4.32c.74,1.42,2.49,3,5.27,4.8l.33-.19q-1.77-4,3.85-7.22a20.67,20.67,0,0,1,11-2.76,23.92,23.92,0,0,1,11.5,3.33q6,3.43,6,7.4t-6,7.45a25,25,0,0,1-9.19,3.11,29.86,29.86,0,0,1-10.36-.45A35.79,35.79,0,0,1,3967.77,1844.2Zm23.63-2.08q2.55-1.47,2.23-3.24t-3.45-3.57a12.6,12.6,0,0,0-5.56-1.73,9.56,9.56,0,0,0-5.42,1.32c-1.61.93-2.47,2-2.58,3.28a3.16,3.16,0,0,0,1.89,3.08,15.66,15.66,0,0,0,6.72,2A10.61,10.61,0,0,0,3991.4,1842.12Z"/><path class="cls-6" d="M4003.93,1814.14a24.14,24.14,0,0,1,11.72-3.28,21.69,21.69,0,0,1,11.52,2.92q6.23,3.59,5.69,7.78t-7.78,8.36a38.43,38.43,0,0,1-12.17,4.71l-6.78-3.92a42.9,42.9,0,0,0,6.48-1.73,33.77,33.77,0,0,0,5.8-2.58q7.31-4.2,1.41-7.61-5.62-3.24-13.17,1.12a22.18,22.18,0,0,0-2.75,1.89,21.67,21.67,0,0,0-2.11,1.88l-4.85.86-17.51-11.74,20.44-11.81,6.66,3.85-13.46,7.77,6.6,4.61.72-.63A20.5,20.5,0,0,1,4003.93,1814.14Z"/><polygon class="cls-6" points="4179.32 1657.35 3625.38 1977.17 3619.47 1973.76 4173.42 1653.94 4179.32 1657.35"/><path class="cls-6" d="M4234.25,1620.33l-23.17-2.67,8.92-5.15,14.63,2-3.4-8.49,8.92-5.15,4.52,13.45L4269,1617l-8.95,5.17-15.79-2.12,3.65,9.13-8.92,5.15Z"/><path class="cls-6" d="M4304.78,1596.36l-8,4.6-21.49-12.41-3.45-2.08-3.74-2.31a19.88,19.88,0,0,1-.19,3.08l-.9,4.48-8.57-.51,2.62-12.51,6.54-3.78Z"/><path class="cls-6" d="M4322.79,1564.52q9.73,5.63,11.17,10.18t-5.29,8.46a23.58,23.58,0,0,1-14.66,2.89q-8.15-.88-17.57-6.32-9.82-5.67-11.27-10.23t5.26-8.42a23.67,23.67,0,0,1,14.74-2.88Q4313.39,1559.1,4322.79,1564.52Zm-18.43,10.64a45.12,45.12,0,0,0,11,5,9.17,9.17,0,0,0,7-.62q2.79-1.61,1-4t-8.52-6.35q-6.84-3.94-11.07-4.94t-7,.59c-1.87,1.08-2.22,2.43-1,4S4299.8,1572.53,4304.36,1575.16Z"/><path class="cls-6" d="M4352.92,1547.12q9.73,5.63,11.17,10.19t-5.28,8.45a23.59,23.59,0,0,1-14.67,2.89q-8.13-.87-17.56-6.32-9.84-5.67-11.27-10.23t5.26-8.42a23.67,23.67,0,0,1,14.74-2.88Q4343.51,1541.7,4352.92,1547.12Zm-18.43,10.64a45.8,45.8,0,0,0,11,5,9.23,9.23,0,0,0,7-.63q2.79-1.61,1-4t-8.52-6.35a44.23,44.23,0,0,0-11.07-4.94q-4.23-1-7,.59t-1,4Q4327.66,1553.82,4334.49,1557.76Z"/><path class="cls-6" d="M3835.13,2068.88q9.73,5.63,11.17,10.19t-5.29,8.45a23.56,23.56,0,0,1-14.66,2.89q-8.14-.88-17.57-6.32-9.83-5.67-11.27-10.23t5.26-8.42a23.67,23.67,0,0,1,14.74-2.88Q3825.73,2063.46,3835.13,2068.88Zm-18.43,10.64a45.12,45.12,0,0,0,11,5,9.2,9.2,0,0,0,7-.62q2.78-1.61,1-4.05t-8.52-6.35q-6.84-3.95-11.07-4.94c-2.82-.67-5.16-.47-7,.59s-2.22,2.43-1,4S3812.14,2076.89,3816.7,2079.52Z"/><path class="cls-6" d="M3855,2074.68c-1.43-.82-2.11-1.67-2.07-2.54s.81-1.72,2.29-2.58a9,9,0,0,1,4.43-1.26,8.41,8.41,0,0,1,4.37,1.17c1.34.77,2,1.61,2,2.51s-.74,1.76-2.15,2.57a9,9,0,0,1-4.48,1.28A8.3,8.3,0,0,1,3855,2074.68Z"/><path class="cls-6" d="M3880.32,2042.79q9.73,5.61,11.17,10.18t-5.29,8.46a23.56,23.56,0,0,1-14.66,2.89q-8.14-.89-17.57-6.32-9.82-5.67-11.27-10.23t5.26-8.42a23.68,23.68,0,0,1,14.74-2.88Q3870.92,2037.36,3880.32,2042.79Zm-18.43,10.64q6.84,3.95,11,5a9.24,9.24,0,0,0,7-.62q2.77-1.61,1-4.05t-8.52-6.35q-6.84-3.94-11.07-4.94c-2.82-.67-5.15-.48-7,.59s-2.22,2.43-1,4S3857.33,2050.8,3861.89,2053.43Z"/><path class="cls-6" d="M3906.63,2049.05l-16.34-25.78L3871.7,2034l-6.6-3.81,27-15.61,4.93,2.84,17.91,26.8Z"/><path class="cls-6" d="M3940.15,2012.94l-23.18-2.66,8.92-5.15,14.64,2-3.4-8.48,8.92-5.15,4.51,13.44,24.33,2.7-8.94,5.17-15.79-2.12,3.64,9.13-8.92,5.15Z"/><path class="cls-6" d="M4010.67,1989l-8,4.6-21.5-12.41-3.45-2.09-3.74-2.3a18.5,18.5,0,0,1-.19,3.07l-.9,4.48-8.57-.51,2.62-12.51,6.55-3.78Z"/><path class="cls-6" d="M4028.68,1957.13q9.74,5.63,11.17,10.19t-5.29,8.45a23.56,23.56,0,0,1-14.66,2.89q-8.15-.87-17.57-6.32-9.82-5.67-11.27-10.22t5.26-8.43a23.6,23.6,0,0,1,14.74-2.87Q4019.28,1951.71,4028.68,1957.13Zm-18.43,10.65a45.69,45.69,0,0,0,11,5,9.24,9.24,0,0,0,7-.62q2.78-1.61,1-4.06t-8.52-6.34a44.65,44.65,0,0,0-11.07-5q-4.23-1-7,.59c-1.88,1.08-2.22,2.43-1,4.05S4005.69,1965.14,4010.25,1967.78Z"/><path class="cls-6" d="M4058.82,1939.73q9.72,5.63,11.17,10.19t-5.29,8.45a23.51,23.51,0,0,1-14.66,2.89q-8.14-.87-17.57-6.31-9.82-5.68-11.27-10.23t5.26-8.43a23.66,23.66,0,0,1,14.74-2.87Q4049.42,1934.3,4058.82,1939.73Zm-18.44,10.65a45.72,45.72,0,0,0,11,5,9.21,9.21,0,0,0,7-.62q2.79-1.6,1-4t-8.52-6.35a44.65,44.65,0,0,0-11.07-5q-4.24-1-7,.59c-1.87,1.08-2.22,2.43-1,4S4035.83,1947.75,4040.38,1950.38Z"/><path class="cls-6" d="M4170.82,1896.51l-16.33-25.77-18.59,10.73-6.61-3.81,27.05-15.62,4.93,2.85,17.91,26.8Z"/><path class="cls-6" d="M4188.58,1856.16q5.85,3.38,6.48,6.39t-3.79,5.58a16.32,16.32,0,0,1-9.58,2.06,26.1,26.1,0,0,1-11-3.69q-11.61-6.69-2.71-11.83a16.5,16.5,0,0,1,9.7-2.13A25.65,25.65,0,0,1,4188.58,1856.16Zm-11.37,6.62a23.89,23.89,0,0,0,5.4,2.45,4.5,4.5,0,0,0,3.45-.16q2.47-1.44-3.93-5.13t-8.82-2.24c-.86.5-1,1.16-.31,2A15.87,15.87,0,0,0,4177.21,1862.78Zm18-23.26,16.24,33.52-6.19,3.57-16.24-33.51Zm34.58,10c3.87,2.24,6,4.36,6.45,6.37s-.83,3.88-3.79,5.58a16.24,16.24,0,0,1-9.58,2.06,26,26,0,0,1-11-3.67q-11.61-6.7-2.72-11.84a16.53,16.53,0,0,1,9.7-2.12A25.56,25.56,0,0,1,4229.82,1849.49Zm-11.37,6.62a23.49,23.49,0,0,0,5.39,2.44,4.48,4.48,0,0,0,3.46-.16q2.47-1.42-3.93-5.12t-8.83-2.24q-1.29.73-.3,2A15.92,15.92,0,0,0,4218.45,1856.11Z"/><g class="cls-17"><polygon class="cls-3" points="3131.22 2301.09 3131.17 2318.58 3084.83 2345.5 3084.88 2328.01 3131.22 2301.09"/><polygon class="cls-5" points="3084.88 2328.01 3084.83 2345.5 3011.61 2303.23 3011.66 2285.74 3084.88 2328.01"/><polygon class="cls-6" points="3131.22 2301.09 3084.88 2328.01 3011.66 2285.74 3057.99 2258.81 3131.22 2301.09"/></g><g class="cls-17"><path class="cls-5" d="M3016.32,2317.27l23.28-13.52c2.27-1.32,5.41-1.14,8.88.87l-23.28,13.52C3021.73,2316.14,3018.59,2316,3016.32,2317.27Z"/><path class="cls-6" d="M3057.28,2334.18,3034,2347.71c2.24-1.31,3.63-4.08,3.64-8,0-7.92-5.55-17.57-12.45-21.56l23.28-13.52c6.9,4,12.47,13.63,12.45,21.55C3060.92,2330.11,3059.53,2332.88,3057.28,2334.18Z"/><path class="cls-4" d="M3025.2,2318.14c6.9,4,12.47,13.64,12.45,21.56s-5.63,11.12-12.53,7.14-12.46-13.63-12.44-21.56S3018.31,2314.16,3025.2,2318.14Z"/></g><polygon class="cls-2" points="1945.16 2354.61 1945.16 2466.14 1905.85 2466.14 1905.85 2374.26 1796.57 2310.23 1813.94 2276.28 1929.17 2345.38 1945.16 2354.61"/><polygon class="cls-2" points="1945.26 2354.67 1945.16 2354.73 1945.16 2354.61 1945.26 2354.67"/><path class="cls-23" d="M1745.19,2159.53v-23.06c0-28.93,30.73-47.51,56.34-34.07l33,17.33A151.68,151.68,0,0,1,1915.78,2254v59.23c0,84.55,91.52,137.38,164.73,95.11l54-31.18a227.94,227.94,0,0,1,230.14,1.29l53.31,31.58a174,174,0,0,0,178.24-.5l18.64-11.19c40.91-24.54,89.27-26.89,136-17.14,152.57,31.84,171,4.53,269.56-45.53"/><g class="cls-17"><path class="cls-6" d="M1796.57,2240.92v69.31c-.68.43-1.37.85-2.09,1.27-16.5,9.59-39.15,13.46-60.64,11.62-14.57-1.26-28.63-5.13-39.88-11.62-14-8.1-21-18.71-21-29.33l.37-69.42c0,10.56,7,21.15,21,29.22,11.16,6.44,25.06,10.31,39.53,11.59,21.6,1.91,44.42-1.95,61-11.59Z"/><path class="cls-4" d="M1794.51,2183.74c27.85,16.08,28,42.15.33,58.23s-72.68,16.08-100.53,0-28-42.15-.32-58.23S1766.66,2167.66,1794.51,2183.74Z"/></g><g class="cls-17"><path class="cls-6" d="M1787.88,2165.4l-.21,45.87c0,6.42-4.25,12.82-12.67,17.71a51.81,51.81,0,0,1-13.66,5.36,73.55,73.55,0,0,1-27.5,1.3,57.39,57.39,0,0,1-20.41-6.66c-8.6-5-12.88-11.47-12.86-18l.23-45.83c0,6.49,4.28,13,12.84,17.92a57,57,0,0,0,20.2,6.63,73.57,73.57,0,0,0,27.5-1.21,52,52,0,0,0,13.89-5.42C1783.65,2178.23,1787.86,2171.8,1787.88,2165.4Z"/><path class="cls-4" d="M1775,2147.44c17.06,9.85,17.15,25.82.2,35.67s-44.52,9.85-61.58,0-17.15-25.82-.2-35.67S1758,2137.59,1775,2147.44Z"/></g><path class="cls-5" d="M1733.84,2189.74v45.9a57.39,57.39,0,0,1-20.41-6.66c-8.6-5-12.88-11.47-12.86-18l.23-45.83c0,6.49,4.28,13,12.84,17.92A57,57,0,0,0,1733.84,2189.74Z"/><path class="cls-5" d="M1694.31,2242c11.16,6.44,25.06,10.31,39.53,11.59v69.56c-14.57-1.26-28.63-5.13-39.88-11.62-14-8.1-21-18.71-21-29.33l.37-69.42C1673.33,2223.31,1680.34,2233.9,1694.31,2242Z"/><path class="cls-2" d="M1787.88,2165.4l-.21,45.87c0,6.42-4.25,12.82-12.67,17.71a51.81,51.81,0,0,1-13.66,5.36v-45.81a52,52,0,0,0,13.89-5.42C1783.65,2178.23,1787.86,2171.8,1787.88,2165.4Z"/><path class="cls-2" d="M1815.49,2213.07l-.37,69.51c0,9.92-6.2,19.83-18.55,27.65v-69.31C1809.16,2233.07,1815.46,2223.07,1815.49,2213.07Z"/><polygon class="cls-2" points="1761.34 2234.34 1796.57 2240.92 1810.53 2249.38 1815.47 2215.85 1784.83 2208.7 1761.34 2234.34"/></svg>