<?xml version="1.0" encoding="UTF-8" standalone="no"?><!DOCTYPE svg PUBLIC "-//W3C//DTD SVG 1.1//EN" "http://www.w3.org/Graphics/SVG/1.1/DTD/svg11.dtd"><svg width="4000px" height="2500px" version="1.1" xmlns="http://www.w3.org/2000/svg" xmlns:xlink="http://www.w3.org/1999/xlink" xml:space="preserve" xmlns:serif="http://www.serif.com/" style="fill-rule:evenodd;clip-rule:evenodd;stroke-linejoin:round;stroke-miterlimit:2;"><g id="c54"><g transform="matrix(1.0007,0,0,1.0007,-31.7065,13.2505)"><rect x="111.817" y="218.725" width="3805.79" height="2107.56" style="fill:rgb(174,211,240);"/></g><g transform="matrix(1.0007,0,0,1.0007,-31.7065,13.2505)"><rect x="111.817" y="218.725" width="3805.79" height="2107.56" style="fill:none;"/><clipPath id="_clip1"><rect x="111.817" y="218.725" width="3805.79" height="2107.56"/></clipPath><g clip-path="url(#_clip1)"><g transform="matrix(2.26731,0,0,2.26731,-4490.09,-2990.56)"><path d="M3708.23,2345.01L2692.5,2345.01C2763.29,2249.77 2861.11,2187.8 2979.52,2170.84C3041.51,2161.96 3106.51,2159.55 3168.84,2166.74C3312.02,2183.27 3566.77,2254.62 3696.16,2169.2C3700.32,2166.46 3704.34,2163.55 3708.23,2160.49L3708.23,2345.01ZM3708.23,1635.19C3686.46,1612.9 3662.26,1593.34 3636.23,1577.4C3575.84,1540.42 3502.58,1524.72 3433.66,1512.77C3095.33,1454.09 2758.68,1631.12 2422.82,1557.45C2330.64,1537.23 2216.77,1490.22 2142.28,1415.46L3708.23,1415.46L3708.23,1635.19Z" style="fill:rgb(195,220,243);"/></g><g transform="matrix(1.3572,0,0,1.3572,-472.259,-339.703)"><g><g transform="matrix(0.736294,0,0,1.06973,371.311,-95.6094)"><path d="M1799.74,1008.15L736.449,1008.15L388.203,1321.91L388.203,1938.15L1799.74,1938.15L1799.74,1008.15Z" style="fill:rgb(139,164,185);"/></g><g transform="matrix(-1,0,0,1,3306.99,0)"><g><g transform="matrix(1,0,0,1,-5.26906,0.385)"><path d="M2980.57,1666.92C2980.57,1641.57 2970.49,1617.25 2952.57,1599.32C2934.64,1581.39 2910.32,1571.32 2884.96,1571.32L2084.77,1571.32L2084.77,1769.04L2884.96,1769.04C2910.32,1769.04 2934.64,1758.96 2952.57,1741.04C2970.49,1723.11 2980.57,1698.79 2980.57,1673.43L2980.57,1666.92Z" style="fill:rgb(125,156,180);"/></g><g transform="matrix(0.933377,0,0,1,193.306,0.385)"><path d="M2980.57,1666.92C2980.57,1641.57 2970.49,1617.25 2952.57,1599.32C2934.64,1581.39 2910.32,1571.32 2884.96,1571.32L2084.77,1571.32L2084.77,1769.04L2884.96,1769.04C2910.32,1769.04 2934.64,1758.96 2952.57,1741.04C2970.49,1723.11 2980.57,1698.79 2980.57,1673.43L2980.57,1666.92Z" style="fill:rgb(150,175,194);"/></g><path d="M2080.01,1571.7L2879.69,1571.7C2905.05,1571.7 2929.37,1581.77 2947.3,1599.7C2965.22,1617.63 2975.3,1641.95 2975.3,1667.31L2975.3,1673.82C2975.3,1699.17 2965.22,1723.49 2947.3,1741.42C2929.37,1759.35 2905.05,1769.42 2879.69,1769.42L2080.01,1769.42L2080.01,1750.77L2879.69,1750.77C2900.1,1750.77 2919.68,1742.66 2934.11,1728.23C2948.54,1713.8 2956.65,1694.23 2956.65,1673.82L2956.65,1667.31C2956.65,1646.9 2948.54,1627.32 2934.11,1612.89C2919.68,1598.46 2900.1,1590.35 2879.69,1590.35L2080.01,1590.35L2080.01,1571.7Z" style="fill:rgb(212,232,247);"/></g><g transform="matrix(-1,0,0,1,5064.93,0)"><g><g transform="matrix(0.939504,0,0,0.939504,5.06669,81.3103)"><path d="M2333.26,1626.41C2326.88,1625.48 2320.39,1625.48 2314,1626.41L2310.87,1637.15C2304.8,1638.56 2299.01,1640.96 2293.72,1644.25L2283.91,1638.88C2278.74,1642.73 2274.15,1647.32 2270.3,1652.5L2275.67,1662.3C2272.37,1667.59 2269.97,1673.38 2268.57,1679.45L2257.83,1682.59C2256.89,1688.97 2256.89,1695.46 2257.83,1701.85L2268.57,1704.98C2269.97,1711.05 2272.37,1716.85 2275.67,1722.13L2270.3,1731.94C2274.15,1737.12 2278.74,1741.7 2283.91,1745.56L2293.72,1740.18C2299.01,1743.48 2304.8,1745.88 2310.87,1747.29L2314,1758.02C2320.39,1758.96 2326.88,1758.96 2333.26,1758.02L2336.4,1747.29C2342.47,1745.88 2348.26,1743.48 2353.55,1740.18L2363.36,1745.56C2368.53,1741.7 2373.12,1737.12 2376.97,1731.94L2371.6,1722.13C2374.89,1716.85 2377.3,1711.05 2378.7,1704.98L2389.44,1701.85C2390.37,1695.46 2390.37,1688.97 2389.44,1682.59L2378.7,1679.45C2377.3,1673.38 2374.89,1667.59 2371.6,1662.3L2376.97,1652.5C2373.12,1647.32 2368.53,1642.73 2363.36,1638.88L2353.55,1644.25C2348.26,1640.96 2342.47,1638.56 2336.4,1637.15L2333.26,1626.41ZM2323.63,1666.28C2337.95,1666.28 2349.57,1677.9 2349.57,1692.22C2349.57,1706.53 2337.95,1718.15 2323.63,1718.15C2309.32,1718.15 2297.7,1706.53 2297.7,1692.22C2297.7,1677.9 2309.32,1666.28 2323.63,1666.28Z" style="fill:rgb(125,156,180);"/></g><g transform="matrix(0.939504,0,0,0.939504,-6.08903,81.3103)"><path d="M2333.26,1626.41C2326.88,1625.48 2320.39,1625.48 2314,1626.41L2310.87,1637.15C2304.8,1638.56 2299.01,1640.96 2293.72,1644.25L2283.91,1638.88C2278.74,1642.73 2274.15,1647.32 2270.3,1652.5L2275.67,1662.3C2272.37,1667.59 2269.97,1673.38 2268.57,1679.45L2257.83,1682.59C2256.89,1688.97 2256.89,1695.46 2257.83,1701.85L2268.57,1704.98C2269.97,1711.05 2272.37,1716.85 2275.67,1722.13L2270.3,1731.94C2274.15,1737.12 2278.74,1741.7 2283.91,1745.56L2293.72,1740.18C2299.01,1743.48 2304.8,1745.88 2310.87,1747.29L2314,1758.02C2320.39,1758.96 2326.88,1758.96 2333.26,1758.02L2336.4,1747.29C2342.47,1745.88 2348.26,1743.48 2353.55,1740.18L2363.36,1745.56C2368.53,1741.7 2373.12,1737.12 2376.97,1731.94L2371.6,1722.13C2374.89,1716.85 2377.3,1711.05 2378.7,1704.98L2389.44,1701.85C2390.37,1695.46 2390.37,1688.97 2389.44,1682.59L2378.7,1679.45C2377.3,1673.38 2374.89,1667.59 2371.6,1662.3L2376.97,1652.5C2373.12,1647.32 2368.53,1642.73 2363.36,1638.88L2353.55,1644.25C2348.26,1640.96 2342.47,1638.56 2336.4,1637.15L2333.26,1626.41ZM2323.63,1666.28C2337.95,1666.28 2349.57,1677.9 2349.57,1692.22C2349.57,1706.53 2337.95,1718.15 2323.63,1718.15C2309.32,1718.15 2297.7,1706.53 2297.7,1692.22C2297.7,1677.9 2309.32,1666.28 2323.63,1666.28Z" style="fill:rgb(212,232,247);"/></g></g><g transform="matrix(1,0,0,1,233.276,0)"><g transform="matrix(0.939504,0,0,0.939504,5.06669,81.3103)"><path d="M2333.26,1626.41C2326.88,1625.48 2320.39,1625.48 2314,1626.41L2310.87,1637.15C2304.8,1638.56 2299.01,1640.96 2293.72,1644.25L2283.91,1638.88C2278.74,1642.73 2274.15,1647.32 2270.3,1652.5L2275.67,1662.3C2272.37,1667.59 2269.97,1673.38 2268.57,1679.45L2257.83,1682.59C2256.89,1688.97 2256.89,1695.46 2257.83,1701.85L2268.57,1704.98C2269.97,1711.05 2272.37,1716.85 2275.67,1722.13L2270.3,1731.94C2274.15,1737.12 2278.74,1741.7 2283.91,1745.56L2293.72,1740.18C2299.01,1743.48 2304.8,1745.88 2310.87,1747.29L2314,1758.02C2320.39,1758.96 2326.88,1758.96 2333.26,1758.02L2336.4,1747.29C2342.47,1745.88 2348.26,1743.48 2353.55,1740.18L2363.36,1745.56C2368.53,1741.7 2373.12,1737.12 2376.97,1731.94L2371.6,1722.13C2374.89,1716.85 2377.3,1711.05 2378.7,1704.98L2389.44,1701.85C2390.37,1695.46 2390.37,1688.97 2389.44,1682.59L2378.7,1679.45C2377.3,1673.38 2374.89,1667.59 2371.6,1662.3L2376.97,1652.5C2373.12,1647.32 2368.53,1642.73 2363.36,1638.88L2353.55,1644.25C2348.26,1640.96 2342.47,1638.56 2336.4,1637.15L2333.26,1626.41ZM2323.63,1666.28C2337.95,1666.28 2349.57,1677.9 2349.57,1692.22C2349.57,1706.53 2337.95,1718.15 2323.63,1718.15C2309.32,1718.15 2297.7,1706.53 2297.7,1692.22C2297.7,1677.9 2309.32,1666.28 2323.63,1666.28Z" style="fill:rgb(125,156,180);"/></g><g transform="matrix(0.939504,0,0,0.939504,-6.08903,81.3103)"><path d="M2333.26,1626.41C2326.88,1625.48 2320.39,1625.48 2314,1626.41L2310.87,1637.15C2304.8,1638.56 2299.01,1640.96 2293.72,1644.25L2283.91,1638.88C2278.74,1642.73 2274.15,1647.32 2270.3,1652.5L2275.67,1662.3C2272.37,1667.59 2269.97,1673.38 2268.57,1679.45L2257.83,1682.59C2256.89,1688.97 2256.89,1695.46 2257.83,1701.85L2268.57,1704.98C2269.97,1711.05 2272.37,1716.85 2275.67,1722.13L2270.3,1731.94C2274.15,1737.12 2278.74,1741.7 2283.91,1745.56L2293.72,1740.18C2299.01,1743.48 2304.8,1745.88 2310.87,1747.29L2314,1758.02C2320.39,1758.96 2326.88,1758.96 2333.26,1758.02L2336.4,1747.29C2342.47,1745.88 2348.26,1743.48 2353.55,1740.18L2363.36,1745.56C2368.53,1741.7 2373.12,1737.12 2376.97,1731.94L2371.6,1722.13C2374.89,1716.85 2377.3,1711.05 2378.7,1704.98L2389.44,1701.85C2390.37,1695.46 2390.37,1688.97 2389.44,1682.59L2378.7,1679.45C2377.3,1673.38 2374.89,1667.59 2371.6,1662.3L2376.97,1652.5C2373.12,1647.32 2368.53,1642.73 2363.36,1638.88L2353.55,1644.25C2348.26,1640.96 2342.47,1638.56 2336.4,1637.15L2333.26,1626.41ZM2323.63,1666.28C2337.95,1666.28 2349.57,1677.9 2349.57,1692.22C2349.57,1706.53 2337.95,1718.15 2323.63,1718.15C2309.32,1718.15 2297.7,1706.53 2297.7,1692.22C2297.7,1677.9 2309.32,1666.28 2323.63,1666.28Z" style="fill:rgb(212,232,247);"/></g></g><g transform="matrix(1,0,0,1,466.552,0)"><g transform="matrix(0.939504,0,0,0.939504,5.06669,81.3103)"><path d="M2333.26,1626.41C2326.88,1625.48 2320.39,1625.48 2314,1626.41L2310.87,1637.15C2304.8,1638.56 2299.01,1640.96 2293.72,1644.25L2283.91,1638.88C2278.74,1642.73 2274.15,1647.32 2270.3,1652.5L2275.67,1662.3C2272.37,1667.59 2269.97,1673.38 2268.57,1679.45L2257.83,1682.59C2256.89,1688.97 2256.89,1695.46 2257.83,1701.85L2268.57,1704.98C2269.97,1711.05 2272.37,1716.85 2275.67,1722.13L2270.3,1731.94C2274.15,1737.12 2278.74,1741.7 2283.91,1745.56L2293.72,1740.18C2299.01,1743.48 2304.8,1745.88 2310.87,1747.29L2314,1758.02C2320.39,1758.96 2326.88,1758.96 2333.26,1758.02L2336.4,1747.29C2342.47,1745.88 2348.26,1743.48 2353.55,1740.18L2363.36,1745.56C2368.53,1741.7 2373.12,1737.12 2376.97,1731.94L2371.6,1722.13C2374.89,1716.85 2377.3,1711.05 2378.7,1704.98L2389.44,1701.85C2390.37,1695.46 2390.37,1688.97 2389.44,1682.59L2378.7,1679.45C2377.3,1673.38 2374.89,1667.59 2371.6,1662.3L2376.97,1652.5C2373.12,1647.32 2368.53,1642.73 2363.36,1638.88L2353.55,1644.25C2348.26,1640.96 2342.47,1638.56 2336.4,1637.15L2333.26,1626.41ZM2323.63,1666.28C2337.95,1666.28 2349.57,1677.9 2349.57,1692.22C2349.57,1706.53 2337.95,1718.15 2323.63,1718.15C2309.32,1718.15 2297.7,1706.53 2297.7,1692.22C2297.7,1677.9 2309.32,1666.28 2323.63,1666.28Z" style="fill:rgb(125,156,180);"/></g><g transform="matrix(0.939504,0,0,0.939504,-6.08903,81.3103)"><path d="M2333.26,1626.41C2326.88,1625.48 2320.39,1625.48 2314,1626.41L2310.87,1637.15C2304.8,1638.56 2299.01,1640.96 2293.72,1644.25L2283.91,1638.88C2278.74,1642.73 2274.15,1647.32 2270.3,1652.5L2275.67,1662.3C2272.37,1667.59 2269.97,1673.38 2268.57,1679.45L2257.83,1682.59C2256.89,1688.97 2256.89,1695.46 2257.83,1701.85L2268.57,1704.98C2269.97,1711.05 2272.37,1716.85 2275.67,1722.13L2270.3,1731.94C2274.15,1737.12 2278.74,1741.7 2283.91,1745.56L2293.72,1740.18C2299.01,1743.48 2304.8,1745.88 2310.87,1747.29L2314,1758.02C2320.39,1758.96 2326.88,1758.96 2333.26,1758.02L2336.4,1747.29C2342.47,1745.88 2348.26,1743.48 2353.55,1740.18L2363.36,1745.56C2368.53,1741.7 2373.12,1737.12 2376.97,1731.94L2371.6,1722.13C2374.89,1716.85 2377.3,1711.05 2378.7,1704.98L2389.44,1701.85C2390.37,1695.46 2390.37,1688.97 2389.44,1682.59L2378.7,1679.45C2377.3,1673.38 2374.89,1667.59 2371.6,1662.3L2376.97,1652.5C2373.12,1647.32 2368.53,1642.73 2363.36,1638.88L2353.55,1644.25C2348.26,1640.96 2342.47,1638.56 2336.4,1637.15L2333.26,1626.41ZM2323.63,1666.28C2337.95,1666.28 2349.57,1677.9 2349.57,1692.22C2349.57,1706.53 2337.95,1718.15 2323.63,1718.15C2309.32,1718.15 2297.7,1706.53 2297.7,1692.22C2297.7,1677.9 2309.32,1666.28 2323.63,1666.28Z" style="fill:rgb(212,232,247);"/></g></g><g transform="matrix(1,0,0,1,699.829,0)"><g transform="matrix(0.939504,0,0,0.939504,5.06669,81.3103)"><path d="M2333.26,1626.41C2326.88,1625.48 2320.39,1625.48 2314,1626.41L2310.87,1637.15C2304.8,1638.56 2299.01,1640.96 2293.72,1644.25L2283.91,1638.88C2278.74,1642.73 2274.15,1647.32 2270.3,1652.5L2275.67,1662.3C2272.37,1667.59 2269.97,1673.38 2268.57,1679.45L2257.83,1682.59C2256.89,1688.97 2256.89,1695.46 2257.83,1701.85L2268.57,1704.98C2269.97,1711.05 2272.37,1716.85 2275.67,1722.13L2270.3,1731.94C2274.15,1737.12 2278.74,1741.7 2283.91,1745.56L2293.72,1740.18C2299.01,1743.48 2304.8,1745.88 2310.87,1747.29L2314,1758.02C2320.39,1758.96 2326.88,1758.96 2333.26,1758.02L2336.4,1747.29C2342.47,1745.88 2348.26,1743.48 2353.55,1740.18L2363.36,1745.56C2368.53,1741.7 2373.12,1737.12 2376.97,1731.94L2371.6,1722.13C2374.89,1716.85 2377.3,1711.05 2378.7,1704.98L2389.44,1701.85C2390.37,1695.46 2390.37,1688.97 2389.44,1682.59L2378.7,1679.45C2377.3,1673.38 2374.89,1667.59 2371.6,1662.3L2376.97,1652.5C2373.12,1647.32 2368.53,1642.73 2363.36,1638.88L2353.55,1644.25C2348.26,1640.96 2342.47,1638.56 2336.4,1637.15L2333.26,1626.41ZM2323.63,1666.28C2337.95,1666.28 2349.57,1677.9 2349.57,1692.22C2349.57,1706.53 2337.95,1718.15 2323.63,1718.15C2309.32,1718.15 2297.7,1706.53 2297.7,1692.22C2297.7,1677.9 2309.32,1666.28 2323.63,1666.28Z" style="fill:rgb(125,156,180);"/></g><g transform="matrix(0.939504,0,0,0.939504,-6.08903,81.3103)"><path d="M2333.26,1626.41C2326.88,1625.48 2320.39,1625.48 2314,1626.41L2310.87,1637.15C2304.8,1638.56 2299.01,1640.96 2293.72,1644.25L2283.91,1638.88C2278.74,1642.73 2274.15,1647.32 2270.3,1652.5L2275.67,1662.3C2272.37,1667.59 2269.97,1673.38 2268.57,1679.45L2257.83,1682.59C2256.89,1688.97 2256.89,1695.46 2257.83,1701.85L2268.57,1704.98C2269.97,1711.05 2272.37,1716.85 2275.67,1722.13L2270.3,1731.94C2274.15,1737.12 2278.74,1741.7 2283.91,1745.56L2293.72,1740.18C2299.01,1743.48 2304.8,1745.88 2310.87,1747.29L2314,1758.02C2320.39,1758.96 2326.88,1758.96 2333.26,1758.02L2336.4,1747.29C2342.47,1745.88 2348.26,1743.48 2353.55,1740.18L2363.36,1745.56C2368.53,1741.7 2373.12,1737.12 2376.97,1731.94L2371.6,1722.13C2374.89,1716.85 2377.3,1711.05 2378.7,1704.98L2389.44,1701.85C2390.37,1695.46 2390.37,1688.97 2389.44,1682.59L2378.7,1679.45C2377.3,1673.38 2374.89,1667.59 2371.6,1662.3L2376.97,1652.5C2373.12,1647.32 2368.53,1642.73 2363.36,1638.88L2353.55,1644.25C2348.26,1640.96 2342.47,1638.56 2336.4,1637.15L2333.26,1626.41ZM2323.63,1666.28C2337.95,1666.28 2349.57,1677.9 2349.57,1692.22C2349.57,1706.53 2337.95,1718.15 2323.63,1718.15C2309.32,1718.15 2297.7,1706.53 2297.7,1692.22C2297.7,1677.9 2309.32,1666.28 2323.63,1666.28Z" style="fill:rgb(212,232,247);"/></g></g></g></g><g transform="matrix(0.736294,0,0,0.808363,371.311,63.8626)"><rect x="2654.79" y="398.532" width="1273.35" height="2053" style="fill:rgb(151,198,236);"/></g><g transform="matrix(0.0844116,0,0,0.808363,2932,63.8626)"><rect x="2654.79" y="398.532" width="1273.35" height="2053" style="fill:rgb(201,226,245);"/></g><g transform="matrix(0.736294,0,0,0.736294,247.524,236.403)"><rect x="2896.38" y="366.181" width="261.329" height="239.034" style="fill:rgb(171,209,239);"/></g><g transform="matrix(0.736294,0,0,0.736294,494.665,236.403)"><rect x="2896.38" y="366.181" width="261.329" height="239.034" style="fill:rgb(171,209,239);"/></g><g transform="matrix(0.736294,0,0,0.736294,741.806,236.403)"><rect x="2896.38" y="366.181" width="261.329" height="239.034" style="fill:rgb(171,209,239);"/></g><g><g transform="matrix(1.1482,0,0,0.942816,-252.016,191.324)"><path d="M1816.75,1180.36L1207.83,1180.36L1207.83,1353.92L1192.27,1375.22L1192.27,1905.81L1816.75,1905.81L1816.75,1180.36Z" style="fill:rgb(212,232,247);"/></g><rect x="1201.4" y="1731.04" width="30.025" height="206.969" style="fill:rgb(177,213,241);"/><g transform="matrix(0.670342,0,0,1,405.949,0)"><rect x="1201.4" y="1731.04" width="30.025" height="206.969" style="fill:rgb(122,183,231);"/></g><g transform="matrix(0.692926,0,0,0.654164,348.604,542.154)"><circle cx="1248.75" cy="1613.67" r="74.953" style="fill:white;fill-opacity:0.93;"/></g><g transform="matrix(0.692926,0,0,0.654164,478.705,542.154)"><circle cx="1248.75" cy="1613.67" r="74.953" style="fill:white;fill-opacity:0.93;"/></g><g transform="matrix(0.692926,0,0,0.654164,608.805,542.154)"><circle cx="1248.75" cy="1613.67" r="74.953" style="fill:white;fill-opacity:0.93;"/></g><g transform="matrix(0.692926,0,0,0.654164,348.604,542.154)"><path d="M1245.45,1607.01C1243.23,1608.68 1241.83,1611.23 1241.63,1614.01C1241.43,1616.78 1242.44,1619.51 1244.41,1621.48C1258.3,1635.42 1285.86,1663.05 1285.86,1663.05C1285.86,1663.05 1268.66,1628.31 1259.82,1610.44C1258.55,1607.88 1256.22,1606.02 1253.44,1605.36C1250.67,1604.69 1247.74,1605.3 1245.46,1607.01C1245.45,1607.01 1245.45,1607.01 1245.45,1607.01ZM1250.88,1614.26L1250.88,1614.26C1251.01,1614.16 1251.18,1614.12 1251.34,1614.16C1251.5,1614.2 1251.63,1614.31 1251.71,1614.45C1251.71,1614.45 1253.21,1617.5 1253.21,1617.5C1253.21,1617.5 1250.82,1615.09 1250.82,1615.09C1250.7,1614.98 1250.64,1614.82 1250.65,1614.66C1250.67,1614.5 1250.75,1614.35 1250.88,1614.26Z" style="fill:rgb(237,213,115);"/></g><g transform="matrix(0.692926,0,0,0.654164,478.705,542.154)"><path d="M1245.45,1607.01C1243.23,1608.68 1241.83,1611.23 1241.63,1614.01C1241.43,1616.78 1242.44,1619.51 1244.41,1621.48C1258.3,1635.42 1285.86,1663.05 1285.86,1663.05C1285.86,1663.05 1268.66,1628.31 1259.82,1610.44C1258.55,1607.88 1256.22,1606.02 1253.44,1605.36C1250.67,1604.69 1247.74,1605.3 1245.46,1607.01C1245.45,1607.01 1245.45,1607.01 1245.45,1607.01ZM1250.88,1614.26L1250.88,1614.26C1251.01,1614.16 1251.18,1614.12 1251.34,1614.16C1251.5,1614.2 1251.63,1614.31 1251.71,1614.45C1251.71,1614.45 1253.21,1617.5 1253.21,1617.5C1253.21,1617.5 1250.82,1615.09 1250.82,1615.09C1250.7,1614.98 1250.64,1614.82 1250.65,1614.66C1250.67,1614.5 1250.75,1614.35 1250.88,1614.26Z" style="fill:rgb(63,160,146);"/></g><g transform="matrix(0.692926,0,0,0.654164,608.805,542.154)"><path d="M1245.45,1607.01C1243.23,1608.68 1241.83,1611.23 1241.63,1614.01C1241.43,1616.78 1242.44,1619.51 1244.41,1621.48C1258.3,1635.42 1285.86,1663.05 1285.86,1663.05C1285.86,1663.05 1268.66,1628.31 1259.82,1610.44C1258.55,1607.88 1256.22,1606.02 1253.44,1605.36C1250.67,1604.69 1247.74,1605.3 1245.46,1607.01C1245.45,1607.01 1245.45,1607.01 1245.45,1607.01ZM1250.88,1614.26L1250.88,1614.26C1251.01,1614.16 1251.18,1614.12 1251.34,1614.16C1251.5,1614.2 1251.63,1614.31 1251.71,1614.45C1251.71,1614.45 1253.21,1617.5 1253.21,1617.5C1253.21,1617.5 1250.82,1615.09 1250.82,1615.09C1250.7,1614.98 1250.64,1614.82 1250.65,1614.66C1250.67,1614.5 1250.75,1614.35 1250.88,1614.26Z" style="fill:rgb(236,96,152);"/></g><g transform="matrix(0.0251801,0,0,0.942816,1788.23,191.324)"><path d="M1816.75,1180.36L1207.83,1180.36L1207.83,1353.92L1192.27,1375.22L1192.27,1905.81L1816.75,1905.81L1816.75,1180.36Z" style="fill:rgb(132,189,233);"/></g><g transform="matrix(1.1482,0,0,0.252587,-252.016,1006.04)"><path d="M1816.75,1180.36L1207.83,1180.36L1207.83,1823.63L1191.76,1905.81L1802.66,1905.81L1816.75,1829.06L1816.75,1180.36Z" style="fill:rgb(132,189,233);"/></g><g transform="matrix(1.1482,0,0,0.22384,-252.016,1039.97)"><rect x="1207.83" y="1180.36" width="608.918" height="725.452" style="fill:rgb(101,173,226);"/></g><g transform="matrix(-0.998427,0,0,1.67335,3647.87,-1200.93)"><path d="M1816.75,1180.36L1292.14,1180.36C1269.78,1180.36 1248.34,1185.66 1232.53,1195.09C1216.71,1204.53 1207.83,1217.32 1207.83,1230.67L1207.83,1905.81L1816.75,1905.81L1816.75,1180.36Z" style="fill:rgb(101,173,226);"/></g><g transform="matrix(-0.998427,0,0,1.67335,3647.87,-1200.93)"><path d="M1570.08,1754.62L1207.83,1693.61L1207.83,1905.81L1570.08,1770.92L1570.08,1754.62Z" style="fill:url(#_Linear2);"/></g><path d="M2053.73,799.286L1849.16,1322.56C1847.93,1325.7 1849.48,1329.26 1852.63,1330.49C1855.78,1331.72 1859.34,1330.16 1860.57,1327.02L2065.14,803.746C2066.37,800.598 2064.82,797.043 2061.67,795.812C2058.52,794.581 2054.96,796.138 2053.73,799.286Z" style="fill:rgb(144,195,235);"/><g><g transform="matrix(0.89791,0,-0.385475,1.0141,431.256,-12.5346)"><path d="M2124.87,802.13C2124.87,785.832 2109.93,772.6 2091.52,772.6L1378.76,772.6C1360.35,772.6 1345.4,785.832 1345.4,802.13L1345.4,1299.42C1345.4,1315.71 1360.35,1328.95 1378.76,1328.95L2091.52,1328.95C2109.93,1328.95 2124.87,1315.71 2124.87,1299.42L2124.87,802.13Z" style="fill:rgb(144,195,235);"/></g><g transform="matrix(0.83437,0,-0.358197,0.94234,512.844,62.8715)"><path d="M2124.87,802.13C2124.87,785.832 2109.93,772.6 2091.52,772.6L1378.76,772.6C1360.35,772.6 1345.4,785.832 1345.4,802.13L1345.4,1299.42C1345.4,1315.71 1360.35,1328.95 1378.76,1328.95L2091.52,1328.95C2109.93,1328.95 2124.87,1315.71 2124.87,1299.42L2124.87,802.13Z" style="fill:rgb(212,232,247);"/></g><g transform="matrix(1,0,-0.416772,1,198.963,575.776)"><path d="M1842.7,640.289C1842.7,630.202 1834.51,622.013 1824.42,622.013L1362.25,622.013C1352.16,622.013 1343.97,630.202 1343.97,640.289C1343.97,650.375 1352.16,658.564 1362.25,658.564L1824.42,658.564C1834.51,658.564 1842.7,650.375 1842.7,640.289Z" style="fill:rgb(144,195,235);"/></g><g transform="matrix(1,0,-0.416772,1,198.963,575.776)"><path d="M1742.64,630.039L1365.07,630.039C1359.41,630.039 1354.82,634.632 1354.82,640.289C1354.82,645.945 1359.41,650.538 1365.07,650.538L1742.64,650.538L1742.64,630.039Z" style="fill:white;"/></g><g transform="matrix(0.811238,0,-0.25481,0.811238,394.166,258.472)"><path d="M1509.36,946.669C1513.42,937.037 1522.98,926.84 1538.06,916.078C1551.15,906.711 1559.62,900.002 1563.47,895.949C1569.38,889.638 1572.34,882.729 1572.34,875.223C1572.34,869.111 1570.65,864.029 1567.26,859.977C1563.87,855.924 1559.02,853.898 1552.71,853.898C1544.07,853.898 1538.19,857.12 1535.07,863.564C1533.28,867.284 1532.22,873.197 1531.88,881.301L1504.28,881.301C1504.75,869.011 1506.97,859.08 1510.96,851.507C1518.53,837.091 1531.98,829.883 1551.32,829.883C1566.59,829.883 1578.75,834.118 1587.79,842.588C1596.82,851.058 1601.34,862.269 1601.34,876.219C1601.34,886.915 1598.15,896.414 1591.77,904.718C1587.59,910.232 1580.71,916.377 1571.14,923.153L1559.79,931.224C1552.68,936.273 1547.81,939.927 1545.19,942.185C1542.56,944.444 1540.35,947.068 1538.56,950.057L1601.64,950.057L1601.64,975.069L1502.69,975.069C1502.95,964.705 1505.18,955.239 1509.36,946.669Z" style="fill:rgb(28,79,128);fill-rule:nonzero;"/><path d="M1643.49,936.406C1644.62,942.584 1646.78,947.35 1649.97,950.705C1653.15,954.06 1657.8,955.737 1663.92,955.737C1670.96,955.737 1676.32,953.263 1680.01,948.314C1683.7,943.364 1685.54,937.137 1685.54,929.63C1685.54,922.256 1683.81,916.028 1680.36,910.946C1676.9,905.864 1671.52,903.323 1664.22,903.323C1660.76,903.323 1657.77,903.755 1655.25,904.618C1650.8,906.213 1647.44,909.169 1645.18,913.487L1619.67,912.291L1629.84,832.474L1709.45,832.474L1709.45,856.589L1650.36,856.589L1645.18,888.177C1649.57,885.32 1652.99,883.427 1655.45,882.497C1659.57,880.969 1664.58,880.205 1670.49,880.205C1682.45,880.205 1692.88,884.224 1701.78,892.262C1710.68,900.3 1715.13,911.992 1715.13,927.338C1715.13,940.691 1710.85,952.615 1702.28,963.111C1693.71,973.607 1680.89,978.855 1663.82,978.855C1650.07,978.855 1638.77,975.168 1629.94,967.795C1621.1,960.421 1616.18,949.958 1615.19,936.406L1643.49,936.406Z" style="fill:rgb(28,79,128);fill-rule:nonzero;"/><path d="M1779.51,955.538C1787.94,955.538 1793.47,951.137 1796.1,942.335C1798.72,933.533 1800.03,920.828 1800.03,904.22C1800.03,886.815 1798.72,873.927 1796.1,865.557C1793.47,857.187 1787.94,853.001 1779.51,853.001C1771.07,853.001 1765.49,857.187 1762.77,865.557C1760.04,873.927 1758.68,886.815 1758.68,904.22C1758.68,920.828 1760.04,933.533 1762.77,942.335C1765.49,951.137 1771.07,955.538 1779.51,955.538ZM1829.33,904.22C1829.33,928.069 1825.63,946.437 1818.22,959.325C1810.81,972.212 1797.91,978.656 1779.51,978.656C1761.11,978.656 1748.2,972.212 1740.79,959.325C1733.39,946.437 1729.68,928.069 1729.68,904.22C1729.68,880.371 1733.39,861.97 1740.79,849.016C1748.2,836.061 1761.11,829.584 1779.51,829.584C1797.91,829.584 1810.81,836.061 1818.22,849.016C1825.63,861.97 1829.33,880.371 1829.33,904.22Z" style="fill:rgb(28,79,128);fill-rule:nonzero;"/><path d="M1894.4,868.347C1894.4,863.963 1892.85,860.226 1889.77,857.137C1886.68,854.048 1882.94,852.503 1878.56,852.503C1874.17,852.503 1870.43,854.048 1867.35,857.137C1864.26,860.226 1862.71,863.963 1862.71,868.347C1862.71,872.732 1864.26,876.468 1867.35,879.557C1870.43,882.646 1874.17,884.191 1878.56,884.191C1882.94,884.191 1886.68,882.646 1889.77,879.557C1892.85,876.468 1894.4,872.732 1894.4,868.347ZM1878.56,905.416C1868.33,905.416 1859.59,901.795 1852.35,894.554C1845.11,887.313 1841.49,878.577 1841.49,868.347C1841.49,858.117 1845.11,849.381 1852.35,842.14C1859.59,834.899 1868.33,831.278 1878.56,831.278C1888.79,831.278 1897.52,834.899 1904.76,842.14C1912,849.381 1915.62,858.117 1915.62,868.347C1915.62,878.577 1912.02,887.313 1904.81,894.554C1897.6,901.795 1888.85,905.416 1878.56,905.416ZM1975.41,925.046C1971.03,925.046 1967.29,926.591 1964.2,929.68C1961.11,932.769 1959.57,936.505 1959.57,940.89C1959.57,945.274 1961.11,949.011 1964.2,952.1C1967.29,955.189 1971.03,956.734 1975.41,956.734C1979.8,956.734 1983.53,955.189 1986.62,952.1C1989.71,949.011 1991.26,945.274 1991.26,940.89C1991.26,936.505 1989.71,932.769 1986.62,929.68C1983.53,926.591 1979.8,925.046 1975.41,925.046ZM1975.41,977.959C1965.18,977.959 1956.45,974.338 1949.2,967.097C1941.96,959.856 1938.34,951.12 1938.34,940.89C1938.34,930.593 1941.96,921.841 1949.2,914.633C1956.45,907.425 1965.18,903.821 1975.41,903.821C1985.64,903.821 1994.38,907.442 2001.62,914.683C2008.86,921.924 2012.48,930.66 2012.48,940.89C2012.48,951.12 2008.86,959.856 2001.62,967.097C1994.38,974.338 1985.64,977.959 1975.41,977.959ZM1959.57,830.581L1974.71,830.581L1894.2,978.855L1878.75,978.855L1959.57,830.581Z" style="fill:rgb(28,79,128);fill-rule:nonzero;"/></g><g transform="matrix(0.496426,0,-0.155927,0.496426,811.016,560.768)"><path d="M1450.24,1069.27L1421.44,1069.27L1421.44,1043.07L1450.24,1043.07L1450.24,1069.27ZM1421.44,1082.23L1450.24,1082.23L1450.24,1190.84L1421.44,1190.84L1421.44,1082.23Z" style="fill:rgb(112,159,202);fill-rule:nonzero;"/><path d="M1576.19,1117.7L1576.19,1190.84L1547.09,1190.84L1547.09,1124.78C1547.09,1119.06 1546.33,1114.68 1544.8,1111.62C1542.01,1106.04 1536.7,1103.25 1528.86,1103.25C1519.23,1103.25 1512.62,1107.34 1509.03,1115.51C1507.17,1119.83 1506.24,1125.34 1506.24,1132.05L1506.24,1190.84L1477.94,1190.84L1477.94,1082.42L1505.34,1082.42L1505.34,1098.27C1509,1092.69 1512.45,1088.67 1515.7,1086.21C1521.55,1081.83 1528.96,1079.63 1537.93,1079.63C1549.15,1079.63 1558.34,1082.57 1565.48,1088.45C1572.62,1094.33 1576.19,1104.08 1576.19,1117.7Z" style="fill:rgb(112,159,202);fill-rule:nonzero;"/><path d="M1667.27,1121.19C1666.74,1117.13 1665.37,1113.48 1663.18,1110.23C1659.99,1105.84 1655.04,1103.65 1648.33,1103.65C1638.77,1103.65 1632.23,1108.4 1628.7,1117.9C1626.84,1122.95 1625.91,1129.66 1625.91,1138.03C1625.91,1146 1626.84,1152.41 1628.7,1157.26C1632.09,1166.29 1638.47,1170.81 1647.84,1170.81C1654.48,1170.81 1659.2,1169.02 1661.99,1165.43C1664.78,1161.84 1666.47,1157.19 1667.07,1151.48L1696.07,1151.48C1695.4,1160.12 1692.28,1168.29 1686.7,1175.99C1677.8,1188.42 1664.61,1194.63 1647.14,1194.63C1629.67,1194.63 1616.81,1189.45 1608.58,1179.08C1600.34,1168.72 1596.22,1155.27 1596.22,1138.73C1596.22,1120.06 1600.77,1105.54 1609.87,1095.18C1618.97,1084.82 1631.53,1079.63 1647.54,1079.63C1661.15,1079.63 1672.3,1082.69 1680.97,1088.8C1689.64,1094.91 1694.77,1105.71 1696.36,1121.19L1667.27,1121.19Z" style="fill:rgb(112,159,202);fill-rule:nonzero;"/><path d="M1778.67,1079.83L1778.67,1108.93C1776.88,1108.73 1775.28,1108.6 1773.89,1108.53C1772.49,1108.47 1771.37,1108.43 1770.5,1108.43C1759.08,1108.43 1751.4,1112.15 1747.48,1119.59C1745.29,1123.78 1744.19,1130.22 1744.19,1138.92L1744.19,1190.84L1715.6,1190.84L1715.6,1082.23L1742.7,1082.23L1742.7,1101.16C1747.08,1093.92 1750.9,1088.97 1754.16,1086.31C1759.47,1081.86 1766.38,1079.63 1774.89,1079.63C1775.42,1079.63 1775.87,1079.65 1776.23,1079.68C1776.6,1079.72 1777.41,1079.77 1778.67,1079.83Z" style="fill:rgb(112,159,202);fill-rule:nonzero;"/><path d="M1816.04,1125.67L1860.18,1125.67C1859.72,1118.16 1857.44,1112.47 1853.36,1108.58C1849.27,1104.7 1844.21,1102.75 1838.16,1102.75C1831.59,1102.75 1826.49,1104.81 1822.87,1108.93C1819.25,1113.05 1816.97,1118.63 1816.04,1125.67ZM1880.51,1100.46C1884.76,1106.9 1887.52,1114.38 1888.78,1122.88C1889.51,1127.86 1889.81,1135.04 1889.68,1144.4L1815.34,1144.4C1815.74,1155.3 1819.16,1162.94 1825.61,1167.32C1829.53,1170.05 1834.24,1171.41 1839.76,1171.41C1845.6,1171.41 1850.35,1169.75 1854.01,1166.43C1856,1164.63 1857.76,1162.14 1859.29,1158.95L1888.28,1158.95C1887.55,1165.4 1884.2,1171.94 1878.22,1178.58C1868.92,1189.15 1855.9,1194.43 1839.16,1194.43C1825.34,1194.43 1813.15,1189.98 1802.59,1181.08C1792.03,1172.17 1786.74,1157.69 1786.74,1137.63C1786.74,1118.83 1791.51,1104.41 1801.04,1094.38C1810.58,1084.35 1822.95,1079.34 1838.16,1079.34C1847.2,1079.34 1855.33,1081.03 1862.58,1084.42C1869.82,1087.81 1875.8,1093.15 1880.51,1100.46Z" style="fill:rgb(112,159,202);fill-rule:nonzero;"/><path d="M1968.7,1138.03C1966.9,1139.16 1965.1,1140.07 1963.27,1140.77C1961.44,1141.47 1958.93,1142.11 1955.75,1142.71L1949.37,1143.91C1943.39,1144.97 1939.1,1146.27 1936.51,1147.79C1932.13,1150.38 1929.94,1154.4 1929.94,1159.85C1929.94,1164.7 1931.28,1168.2 1933.97,1170.36C1936.66,1172.52 1939.93,1173.6 1943.79,1173.6C1949.9,1173.6 1955.53,1171.81 1960.68,1168.22C1965.83,1164.63 1968.5,1158.09 1968.7,1148.59L1968.7,1138.03ZM1951.46,1124.78C1956.71,1124.11 1960.46,1123.28 1962.72,1122.28C1966.77,1120.56 1968.8,1117.87 1968.8,1114.21C1968.8,1109.76 1967.25,1106.69 1964.16,1105C1961.08,1103.3 1956.54,1102.45 1950.56,1102.45C1943.85,1102.45 1939.1,1104.12 1936.31,1107.44C1934.32,1109.89 1932.99,1113.22 1932.33,1117.4L1904.92,1117.4C1905.52,1107.9 1908.18,1100.1 1912.9,1093.98C1920.4,1084.42 1933.29,1079.63 1951.56,1079.63C1963.45,1079.63 1974.01,1081.99 1983.25,1086.71C1992.48,1091.43 1997.1,1100.33 1997.1,1113.41L1997.1,1163.24C1997.1,1166.69 1997.16,1170.88 1997.3,1175.79C1997.5,1179.51 1998.06,1182.04 1998.99,1183.37C1999.92,1184.7 2001.32,1185.79 2003.18,1186.66L2003.18,1190.84L1972.29,1190.84C1971.42,1188.65 1970.82,1186.59 1970.49,1184.66C1970.16,1182.74 1969.89,1180.54 1969.69,1178.09C1965.78,1182.34 1961.26,1185.96 1956.14,1188.95C1950.03,1192.47 1943.12,1194.23 1935.42,1194.23C1925.59,1194.23 1917.46,1191.42 1911.05,1185.81C1904.64,1180.19 1901.44,1172.24 1901.44,1161.94C1901.44,1148.59 1906.59,1138.92 1916.88,1132.95C1922.53,1129.69 1930.83,1127.37 1941.79,1125.97L1951.46,1124.78Z" style="fill:rgb(112,159,202);fill-rule:nonzero;"/><path d="M2044.43,1156.16C2045.03,1161.21 2046.32,1164.8 2048.32,1166.92C2051.84,1170.71 2058.35,1172.61 2067.85,1172.61C2073.43,1172.61 2077.86,1171.78 2081.15,1170.11C2084.44,1168.45 2086.08,1165.96 2086.08,1162.64C2086.08,1159.45 2084.75,1157.03 2082.1,1155.37C2079.44,1153.71 2069.57,1150.85 2052.5,1146.8C2040.21,1143.74 2031.54,1139.92 2026.49,1135.34C2021.44,1130.82 2018.92,1124.31 2018.92,1115.81C2018.92,1105.78 2022.86,1097.16 2030.73,1089.95C2038.6,1082.74 2049.68,1079.14 2063.96,1079.14C2077.51,1079.14 2088.56,1081.84 2097.09,1087.26C2105.63,1092.67 2110.53,1102.02 2111.79,1115.31L2083.39,1115.31C2082.99,1111.65 2081.96,1108.77 2080.3,1106.64C2077.18,1102.79 2071.87,1100.86 2064.36,1100.86C2058.18,1100.86 2053.78,1101.82 2051.16,1103.75C2048.53,1105.68 2047.22,1107.93 2047.22,1110.53C2047.22,1113.78 2048.62,1116.14 2051.41,1117.6C2054.2,1119.13 2064.06,1121.75 2081,1125.47C2092.29,1128.13 2100.76,1132.15 2106.41,1137.53C2111.99,1142.98 2114.78,1149.79 2114.78,1157.96C2114.78,1168.72 2110.78,1177.51 2102.77,1184.31C2094.77,1191.12 2082.4,1194.53 2065.66,1194.53C2048.58,1194.53 2035.98,1190.92 2027.84,1183.72C2019.7,1176.51 2015.63,1167.32 2015.63,1156.16L2044.43,1156.16Z" style="fill:rgb(112,159,202);fill-rule:nonzero;"/><path d="M2156.53,1125.67L2200.68,1125.67C2200.21,1118.16 2197.94,1112.47 2193.85,1108.58C2189.76,1104.7 2184.7,1102.75 2178.65,1102.75C2172.08,1102.75 2166.98,1104.81 2163.36,1108.93C2159.74,1113.05 2157.46,1118.63 2156.53,1125.67ZM2221,1100.46C2225.26,1106.9 2228.01,1114.38 2229.28,1122.88C2230.01,1127.86 2230.3,1135.04 2230.17,1144.4L2155.84,1144.4C2156.23,1155.3 2159.66,1162.94 2166.1,1167.32C2170.02,1170.05 2174.74,1171.41 2180.25,1171.41C2186.1,1171.41 2190.85,1169.75 2194.5,1166.43C2196.49,1164.63 2198.25,1162.14 2199.78,1158.95L2228.78,1158.95C2228.05,1165.4 2224.69,1171.94 2218.71,1178.58C2209.41,1189.15 2196.39,1194.43 2179.65,1194.43C2165.83,1194.43 2153.64,1189.98 2143.08,1181.08C2132.52,1172.17 2127.24,1157.69 2127.24,1137.63C2127.24,1118.83 2132,1104.41 2141.54,1094.38C2151.07,1084.35 2163.44,1079.34 2178.65,1079.34C2187.69,1079.34 2195.83,1081.03 2203.07,1084.42C2210.31,1087.81 2216.29,1093.15 2221,1100.46Z" style="fill:rgb(112,159,202);fill-rule:nonzero;"/></g><path d="M1181.39,1314.52C1181.62,1313.72 1181.9,1312.9 1182.21,1312.08L1360.34,843.47C1366.17,828.111 1383.38,815.642 1398.74,815.642L1993.45,815.642C1995.54,815.642 1997.49,815.872 1999.28,816.309C2003.44,802.092 1995.74,790.924 1981.21,790.924L1386.49,790.924C1371.13,790.924 1353.93,803.393 1348.09,818.751L1169.96,1287.36C1164.92,1300.63 1170,1311.75 1181.39,1314.52Z" style="fill:rgb(177,213,240);"/><path d="M1767.11,790.924L1259.03,1053.04L1169.96,1287.36C1165.39,1299.38 1169.13,1309.63 1178.33,1313.52L1977.34,874.301L1998.46,818.751C2004.29,803.393 1996.56,790.924 1981.21,790.924L1767.11,790.924ZM1599.07,790.924L1386.49,790.924C1371.13,790.924 1353.93,803.393 1348.09,818.751L1294.77,959.032L1599.07,790.924Z" style="fill:url(#_Linear3);"/></g><rect x="2080.09" y="933.424" width="325.748" height="638.851" style="fill:rgb(20,56,90);"/><g transform="matrix(1,1.22465e-16,1.22465e-16,-1,0,2505.7)"><path d="M2405.84,933.424L2080.09,1572.28L2405.84,1572.28L2405.84,933.424Z" style="fill:rgb(28,79,128);"/></g><g transform="matrix(0.050938,0,0,1,2283.29,0)"><rect x="2080.09" y="933.424" width="325.748" height="638.851" style="fill:rgb(43,120,195);"/></g></g><g><g transform="matrix(1,0,0,1,399.151,0)"><g transform="matrix(1,0,0,1,-5.26906,0.385)"><path d="M2980.57,1666.92C2980.57,1641.57 2970.49,1617.25 2952.57,1599.32C2934.64,1581.39 2910.32,1571.32 2884.96,1571.32L2084.77,1571.32L2084.77,1769.04L2884.96,1769.04C2910.32,1769.04 2934.64,1758.96 2952.57,1741.04C2970.49,1723.11 2980.57,1698.79 2980.57,1673.43L2980.57,1666.92Z" style="fill:rgb(125,156,180);"/></g><g transform="matrix(0.933377,0,0,1,193.306,0.385)"><path d="M2980.57,1666.92C2980.57,1641.57 2970.49,1617.25 2952.57,1599.32C2934.64,1581.39 2910.32,1571.32 2884.96,1571.32L2084.77,1571.32L2084.77,1769.04L2884.96,1769.04C2910.32,1769.04 2934.64,1758.96 2952.57,1741.04C2970.49,1723.11 2980.57,1698.79 2980.57,1673.43L2980.57,1666.92Z" style="fill:rgb(150,175,194);"/></g><g transform="matrix(1,0,0,1,-399.151,0)"><path d="M2572.29,1571.7L2569.54,1571.7L2538.33,1585.12L2538.33,1769.42L3285.21,1769.42C3308.88,1769.42 3331.58,1759.35 3348.31,1741.42C3365.05,1723.49 3374.45,1699.17 3374.45,1673.82L3374.45,1667.31C3374.45,1665.7 3374.41,1664.11 3374.34,1662.51C3178.76,1714.96 2955.38,1679.79 2762.88,1632.12C2714.21,1620.07 2603.07,1613.98 2572.29,1571.7ZM2542.62,1571.7L2538.33,1571.7L2538.33,1576.14C2539.75,1574.65 2541.18,1573.17 2542.62,1571.7Z" style="fill:url(#_Linear4);"/></g></g><g><g transform="matrix(1,0,0,1,-5.26906,0.385)"><path d="M2980.57,1666.92C2980.57,1641.57 2970.49,1617.25 2952.57,1599.32C2934.64,1581.39 2910.32,1571.32 2884.96,1571.32L2084.77,1571.32L2084.77,1769.04L2884.96,1769.04C2910.32,1769.04 2934.64,1758.96 2952.57,1741.04C2970.49,1723.11 2980.57,1698.79 2980.57,1673.43L2980.57,1666.92Z" style="fill:rgb(125,156,180);"/></g><g transform="matrix(0.933377,0,0,1,193.306,0.385)"><path d="M2980.57,1666.92C2980.57,1641.57 2970.49,1617.25 2952.57,1599.32C2934.64,1581.39 2910.32,1571.32 2884.96,1571.32L2084.77,1571.32L2084.77,1769.04L2884.96,1769.04C2910.32,1769.04 2934.64,1758.96 2952.57,1741.04C2970.49,1723.11 2980.57,1698.79 2980.57,1673.43L2980.57,1666.92Z" style="fill:rgb(150,175,194);"/></g><path d="M2080.01,1571.7L2879.69,1571.7C2905.05,1571.7 2929.37,1581.77 2947.3,1599.7C2965.22,1617.63 2975.3,1641.95 2975.3,1667.31L2975.3,1673.82C2975.3,1699.17 2965.22,1723.49 2947.3,1741.42C2929.37,1759.35 2905.05,1769.42 2879.69,1769.42L2080.01,1769.42L2080.01,1750.77L2879.69,1750.77C2900.1,1750.77 2919.68,1742.66 2934.11,1728.23C2948.54,1713.8 2956.65,1694.23 2956.65,1673.82L2956.65,1667.31C2956.65,1646.9 2948.54,1627.32 2934.11,1612.89C2919.68,1598.46 2900.1,1590.35 2879.69,1590.35L2080.01,1590.35L2080.01,1571.7Z" style="fill:rgb(212,232,247);"/></g><g><g><g transform="matrix(0.939504,0,0,0.939504,5.06669,81.3103)"><path d="M2333.26,1626.41C2326.88,1625.48 2320.39,1625.48 2314,1626.41L2310.87,1637.15C2304.8,1638.56 2299.01,1640.96 2293.72,1644.25L2283.91,1638.88C2278.74,1642.73 2274.15,1647.32 2270.3,1652.5L2275.67,1662.3C2272.37,1667.59 2269.97,1673.38 2268.57,1679.45L2257.83,1682.59C2256.89,1688.97 2256.89,1695.46 2257.83,1701.85L2268.57,1704.98C2269.97,1711.05 2272.37,1716.85 2275.67,1722.13L2270.3,1731.94C2274.15,1737.12 2278.74,1741.7 2283.91,1745.56L2293.72,1740.18C2299.01,1743.48 2304.8,1745.88 2310.87,1747.29L2314,1758.02C2320.39,1758.96 2326.88,1758.96 2333.26,1758.02L2336.4,1747.29C2342.47,1745.88 2348.26,1743.48 2353.55,1740.18L2363.36,1745.56C2368.53,1741.7 2373.12,1737.12 2376.97,1731.94L2371.6,1722.13C2374.89,1716.85 2377.3,1711.05 2378.7,1704.98L2389.44,1701.85C2390.37,1695.46 2390.37,1688.97 2389.44,1682.59L2378.7,1679.45C2377.3,1673.38 2374.89,1667.59 2371.6,1662.3L2376.97,1652.5C2373.12,1647.32 2368.53,1642.73 2363.36,1638.88L2353.55,1644.25C2348.26,1640.96 2342.47,1638.56 2336.4,1637.15L2333.26,1626.41ZM2323.63,1666.28C2337.95,1666.28 2349.57,1677.9 2349.57,1692.22C2349.57,1706.53 2337.95,1718.15 2323.63,1718.15C2309.32,1718.15 2297.7,1706.53 2297.7,1692.22C2297.7,1677.9 2309.32,1666.28 2323.63,1666.28Z" style="fill:rgb(125,156,180);"/></g><g transform="matrix(0.939504,0,0,0.939504,-6.08903,81.3103)"><path d="M2333.26,1626.41C2326.88,1625.48 2320.39,1625.48 2314,1626.41L2310.87,1637.15C2304.8,1638.56 2299.01,1640.96 2293.72,1644.25L2283.91,1638.88C2278.74,1642.73 2274.15,1647.32 2270.3,1652.5L2275.67,1662.3C2272.37,1667.59 2269.97,1673.38 2268.57,1679.45L2257.83,1682.59C2256.89,1688.97 2256.89,1695.46 2257.83,1701.85L2268.57,1704.98C2269.97,1711.05 2272.37,1716.85 2275.67,1722.13L2270.3,1731.94C2274.15,1737.12 2278.74,1741.7 2283.91,1745.56L2293.72,1740.18C2299.01,1743.48 2304.8,1745.88 2310.87,1747.29L2314,1758.02C2320.39,1758.96 2326.88,1758.96 2333.26,1758.02L2336.4,1747.29C2342.47,1745.88 2348.26,1743.48 2353.55,1740.18L2363.36,1745.56C2368.53,1741.7 2373.12,1737.12 2376.97,1731.94L2371.6,1722.13C2374.89,1716.85 2377.3,1711.05 2378.7,1704.98L2389.44,1701.85C2390.37,1695.46 2390.37,1688.97 2389.44,1682.59L2378.7,1679.45C2377.3,1673.38 2374.89,1667.59 2371.6,1662.3L2376.97,1652.5C2373.12,1647.32 2368.53,1642.73 2363.36,1638.88L2353.55,1644.25C2348.26,1640.96 2342.47,1638.56 2336.4,1637.15L2333.26,1626.41ZM2323.63,1666.28C2337.95,1666.28 2349.57,1677.9 2349.57,1692.22C2349.57,1706.53 2337.95,1718.15 2323.63,1718.15C2309.32,1718.15 2297.7,1706.53 2297.7,1692.22C2297.7,1677.9 2309.32,1666.28 2323.63,1666.28Z" style="fill:rgb(212,232,247);"/></g></g><g transform="matrix(1,0,0,1,233.276,0)"><g transform="matrix(0.939504,0,0,0.939504,5.06669,81.3103)"><path d="M2333.26,1626.41C2326.88,1625.48 2320.39,1625.48 2314,1626.41L2310.87,1637.15C2304.8,1638.56 2299.01,1640.96 2293.72,1644.25L2283.91,1638.88C2278.74,1642.73 2274.15,1647.32 2270.3,1652.5L2275.67,1662.3C2272.37,1667.59 2269.97,1673.38 2268.57,1679.45L2257.83,1682.59C2256.89,1688.97 2256.89,1695.46 2257.83,1701.85L2268.57,1704.98C2269.97,1711.05 2272.37,1716.85 2275.67,1722.13L2270.3,1731.94C2274.15,1737.12 2278.74,1741.7 2283.91,1745.56L2293.72,1740.18C2299.01,1743.48 2304.8,1745.88 2310.87,1747.29L2314,1758.02C2320.39,1758.96 2326.88,1758.96 2333.26,1758.02L2336.4,1747.29C2342.47,1745.88 2348.26,1743.48 2353.55,1740.18L2363.36,1745.56C2368.53,1741.7 2373.12,1737.12 2376.97,1731.94L2371.6,1722.13C2374.89,1716.85 2377.3,1711.05 2378.7,1704.98L2389.44,1701.85C2390.37,1695.46 2390.37,1688.97 2389.44,1682.59L2378.7,1679.45C2377.3,1673.38 2374.89,1667.59 2371.6,1662.3L2376.97,1652.5C2373.12,1647.32 2368.53,1642.73 2363.36,1638.88L2353.55,1644.25C2348.26,1640.96 2342.47,1638.56 2336.4,1637.15L2333.26,1626.41ZM2323.63,1666.28C2337.95,1666.28 2349.57,1677.9 2349.57,1692.22C2349.57,1706.53 2337.95,1718.15 2323.63,1718.15C2309.32,1718.15 2297.7,1706.53 2297.7,1692.22C2297.7,1677.9 2309.32,1666.28 2323.63,1666.28Z" style="fill:rgb(125,156,180);"/></g><g transform="matrix(0.939504,0,0,0.939504,-6.08903,81.3103)"><path d="M2333.26,1626.41C2326.88,1625.48 2320.39,1625.48 2314,1626.41L2310.87,1637.15C2304.8,1638.56 2299.01,1640.96 2293.72,1644.25L2283.91,1638.88C2278.74,1642.73 2274.15,1647.32 2270.3,1652.5L2275.67,1662.3C2272.37,1667.59 2269.97,1673.38 2268.57,1679.45L2257.83,1682.59C2256.89,1688.97 2256.89,1695.46 2257.83,1701.85L2268.57,1704.98C2269.97,1711.05 2272.37,1716.85 2275.67,1722.13L2270.3,1731.94C2274.15,1737.12 2278.74,1741.7 2283.91,1745.56L2293.72,1740.18C2299.01,1743.48 2304.8,1745.88 2310.87,1747.29L2314,1758.02C2320.39,1758.96 2326.88,1758.96 2333.26,1758.02L2336.4,1747.29C2342.47,1745.88 2348.26,1743.48 2353.55,1740.18L2363.36,1745.56C2368.53,1741.7 2373.12,1737.12 2376.97,1731.94L2371.6,1722.13C2374.89,1716.85 2377.3,1711.05 2378.7,1704.98L2389.44,1701.85C2390.37,1695.46 2390.37,1688.97 2389.44,1682.59L2378.7,1679.45C2377.3,1673.38 2374.89,1667.59 2371.6,1662.3L2376.97,1652.5C2373.12,1647.32 2368.53,1642.73 2363.36,1638.88L2353.55,1644.25C2348.26,1640.96 2342.47,1638.56 2336.4,1637.15L2333.26,1626.41ZM2323.63,1666.28C2337.95,1666.28 2349.57,1677.9 2349.57,1692.22C2349.57,1706.53 2337.95,1718.15 2323.63,1718.15C2309.32,1718.15 2297.7,1706.53 2297.7,1692.22C2297.7,1677.9 2309.32,1666.28 2323.63,1666.28Z" style="fill:rgb(212,232,247);"/></g></g><g transform="matrix(1,0,0,1,466.552,0)"><g transform="matrix(0.939504,0,0,0.939504,5.06669,81.3103)"><path d="M2333.26,1626.41C2326.88,1625.48 2320.39,1625.48 2314,1626.41L2310.87,1637.15C2304.8,1638.56 2299.01,1640.96 2293.72,1644.25L2283.91,1638.88C2278.74,1642.73 2274.15,1647.32 2270.3,1652.5L2275.67,1662.3C2272.37,1667.59 2269.97,1673.38 2268.57,1679.45L2257.83,1682.59C2256.89,1688.97 2256.89,1695.46 2257.83,1701.85L2268.57,1704.98C2269.97,1711.05 2272.37,1716.85 2275.67,1722.13L2270.3,1731.94C2274.15,1737.12 2278.74,1741.7 2283.91,1745.56L2293.72,1740.18C2299.01,1743.48 2304.8,1745.88 2310.87,1747.29L2314,1758.02C2320.39,1758.96 2326.88,1758.96 2333.26,1758.02L2336.4,1747.29C2342.47,1745.88 2348.26,1743.48 2353.55,1740.18L2363.36,1745.56C2368.53,1741.7 2373.12,1737.12 2376.97,1731.94L2371.6,1722.13C2374.89,1716.85 2377.3,1711.05 2378.7,1704.98L2389.44,1701.85C2390.37,1695.46 2390.37,1688.97 2389.44,1682.59L2378.7,1679.45C2377.3,1673.38 2374.89,1667.59 2371.6,1662.3L2376.97,1652.5C2373.12,1647.32 2368.53,1642.73 2363.36,1638.88L2353.55,1644.25C2348.26,1640.96 2342.47,1638.56 2336.4,1637.15L2333.26,1626.41ZM2323.63,1666.28C2337.95,1666.28 2349.57,1677.9 2349.57,1692.22C2349.57,1706.53 2337.95,1718.15 2323.63,1718.15C2309.32,1718.15 2297.7,1706.53 2297.7,1692.22C2297.7,1677.9 2309.32,1666.28 2323.63,1666.28Z" style="fill:rgb(125,156,180);"/></g><g transform="matrix(0.939504,0,0,0.939504,-6.08903,81.3103)"><path d="M2333.26,1626.41C2326.88,1625.48 2320.39,1625.48 2314,1626.41L2310.87,1637.15C2304.8,1638.56 2299.01,1640.96 2293.72,1644.25L2283.91,1638.88C2278.74,1642.73 2274.15,1647.32 2270.3,1652.5L2275.67,1662.3C2272.37,1667.59 2269.97,1673.38 2268.57,1679.45L2257.83,1682.59C2256.89,1688.97 2256.89,1695.46 2257.83,1701.85L2268.57,1704.98C2269.97,1711.05 2272.37,1716.85 2275.67,1722.13L2270.3,1731.94C2274.15,1737.12 2278.74,1741.7 2283.91,1745.56L2293.72,1740.18C2299.01,1743.48 2304.8,1745.88 2310.87,1747.29L2314,1758.02C2320.39,1758.96 2326.88,1758.96 2333.26,1758.02L2336.4,1747.29C2342.47,1745.88 2348.26,1743.48 2353.55,1740.18L2363.36,1745.56C2368.53,1741.7 2373.12,1737.12 2376.97,1731.94L2371.6,1722.13C2374.89,1716.85 2377.3,1711.05 2378.7,1704.98L2389.44,1701.85C2390.37,1695.46 2390.37,1688.97 2389.44,1682.59L2378.7,1679.45C2377.3,1673.38 2374.89,1667.59 2371.6,1662.3L2376.97,1652.5C2373.12,1647.32 2368.53,1642.73 2363.36,1638.88L2353.55,1644.25C2348.26,1640.96 2342.47,1638.56 2336.4,1637.15L2333.26,1626.41ZM2323.63,1666.28C2337.95,1666.28 2349.57,1677.9 2349.57,1692.22C2349.57,1706.53 2337.95,1718.15 2323.63,1718.15C2309.32,1718.15 2297.7,1706.53 2297.7,1692.22C2297.7,1677.9 2309.32,1666.28 2323.63,1666.28Z" style="fill:rgb(212,232,247);"/></g></g><g transform="matrix(1,0,0,1,699.829,0)"><g transform="matrix(0.939504,0,0,0.939504,5.06669,81.3103)"><path d="M2333.26,1626.41C2326.88,1625.48 2320.39,1625.48 2314,1626.41L2310.87,1637.15C2304.8,1638.56 2299.01,1640.96 2293.72,1644.25L2283.91,1638.88C2278.74,1642.73 2274.15,1647.32 2270.3,1652.5L2275.67,1662.3C2272.37,1667.59 2269.97,1673.38 2268.57,1679.45L2257.83,1682.59C2256.89,1688.97 2256.89,1695.46 2257.83,1701.85L2268.57,1704.98C2269.97,1711.05 2272.37,1716.85 2275.67,1722.13L2270.3,1731.94C2274.15,1737.12 2278.74,1741.7 2283.91,1745.56L2293.72,1740.18C2299.01,1743.48 2304.8,1745.88 2310.87,1747.29L2314,1758.02C2320.39,1758.96 2326.88,1758.96 2333.26,1758.02L2336.4,1747.29C2342.47,1745.88 2348.26,1743.48 2353.55,1740.18L2363.36,1745.56C2368.53,1741.7 2373.12,1737.12 2376.97,1731.94L2371.6,1722.13C2374.89,1716.85 2377.3,1711.05 2378.7,1704.98L2389.44,1701.85C2390.37,1695.46 2390.37,1688.97 2389.44,1682.59L2378.7,1679.45C2377.3,1673.38 2374.89,1667.59 2371.6,1662.3L2376.97,1652.5C2373.12,1647.32 2368.53,1642.73 2363.36,1638.88L2353.55,1644.25C2348.26,1640.96 2342.47,1638.56 2336.4,1637.15L2333.26,1626.41ZM2323.63,1666.28C2337.95,1666.28 2349.57,1677.9 2349.57,1692.22C2349.57,1706.53 2337.95,1718.15 2323.63,1718.15C2309.32,1718.15 2297.7,1706.53 2297.7,1692.22C2297.7,1677.9 2309.32,1666.28 2323.63,1666.28Z" style="fill:rgb(125,156,180);"/></g><g transform="matrix(0.939504,0,0,0.939504,-6.08903,81.3103)"><path d="M2333.26,1626.41C2326.88,1625.48 2320.39,1625.48 2314,1626.41L2310.87,1637.15C2304.8,1638.56 2299.01,1640.96 2293.72,1644.25L2283.91,1638.88C2278.74,1642.73 2274.15,1647.32 2270.3,1652.5L2275.67,1662.3C2272.37,1667.59 2269.97,1673.38 2268.57,1679.45L2257.83,1682.59C2256.89,1688.97 2256.89,1695.46 2257.83,1701.85L2268.57,1704.98C2269.97,1711.05 2272.37,1716.85 2275.67,1722.13L2270.3,1731.94C2274.15,1737.12 2278.74,1741.7 2283.91,1745.56L2293.72,1740.18C2299.01,1743.48 2304.8,1745.88 2310.87,1747.29L2314,1758.02C2320.39,1758.96 2326.88,1758.96 2333.26,1758.02L2336.4,1747.29C2342.47,1745.88 2348.26,1743.48 2353.55,1740.18L2363.36,1745.56C2368.53,1741.7 2373.12,1737.12 2376.97,1731.94L2371.6,1722.13C2374.89,1716.85 2377.3,1711.05 2378.7,1704.98L2389.44,1701.85C2390.37,1695.46 2390.37,1688.97 2389.44,1682.59L2378.7,1679.45C2377.3,1673.38 2374.89,1667.59 2371.6,1662.3L2376.97,1652.5C2373.12,1647.32 2368.53,1642.73 2363.36,1638.88L2353.55,1644.25C2348.26,1640.96 2342.47,1638.56 2336.4,1637.15L2333.26,1626.41ZM2323.63,1666.28C2337.95,1666.28 2349.57,1677.9 2349.57,1692.22C2349.57,1706.53 2337.95,1718.15 2323.63,1718.15C2309.32,1718.15 2297.7,1706.53 2297.7,1692.22C2297.7,1677.9 2309.32,1666.28 2323.63,1666.28Z" style="fill:rgb(212,232,247);"/></g></g></g></g><g transform="matrix(3.61872,0,0,3.61872,-1648.13,-1958.98)"><g transform="matrix(0.746503,0,0,0.746503,132.727,299.695)"><path d="M642.418,876.81C646.471,867.178 656.037,856.981 671.117,846.219C684.203,836.852 692.673,830.143 696.526,826.09C702.439,819.779 705.395,812.87 705.395,805.364C705.395,799.252 703.701,794.17 700.313,790.118C696.925,786.065 692.076,784.039 685.765,784.039C677.129,784.039 671.249,787.261 668.127,793.705C666.333,797.425 665.271,803.338 664.938,811.442L637.336,811.442C637.801,799.152 640.027,789.221 644.013,781.648C651.586,767.232 665.038,760.024 684.37,760.024C699.649,760.024 711.806,764.259 720.84,772.729C729.875,781.199 734.392,792.41 734.392,806.36C734.392,817.056 731.204,826.555 724.826,834.859C720.641,840.373 713.765,846.518 704.199,853.294L692.84,861.365C685.731,866.414 680.865,870.068 678.241,872.326C675.617,874.585 673.408,877.209 671.615,880.198L734.691,880.198L734.691,905.21L635.742,905.21C636.008,894.846 638.233,885.38 642.418,876.81Z" style="fill:rgb(170,151,72);fill-rule:nonzero;"/></g><g transform="matrix(0.746503,0,0,0.746503,132.727,297.381)"><path d="M799.063,885.679C807.5,885.679 813.03,881.278 815.654,872.476C818.278,863.674 819.59,850.969 819.59,834.361C819.59,816.956 818.278,804.068 815.654,795.698C813.03,787.328 807.5,783.142 799.063,783.142C790.626,783.142 785.046,787.328 782.322,795.698C779.599,804.068 778.237,816.956 778.237,834.361C778.237,850.969 779.599,863.674 782.322,872.476C785.046,881.278 790.626,885.679 799.063,885.679ZM848.886,834.361C848.886,858.21 845.183,876.578 837.776,889.466C830.369,902.353 817.464,908.797 799.063,908.797C780.662,908.797 767.757,902.353 760.35,889.466C752.943,876.578 749.24,858.21 749.24,834.361C749.24,810.512 752.943,792.111 760.35,779.157C767.757,766.203 780.662,759.725 799.063,759.725C817.464,759.725 830.369,766.203 837.776,779.157C845.183,792.111 848.886,810.512 848.886,834.361Z" style="fill:rgb(170,151,72);fill-rule:nonzero;"/></g><g transform="matrix(0.746503,0,0,0.746503,118.918,299.695)"><path d="M642.418,876.81C646.471,867.178 656.037,856.981 671.117,846.219C684.203,836.852 692.673,830.143 696.526,826.09C702.439,819.779 705.395,812.87 705.395,805.364C705.395,799.252 703.701,794.17 700.313,790.118C696.925,786.065 692.076,784.039 685.765,784.039C677.129,784.039 671.249,787.261 668.127,793.705C666.333,797.425 665.271,803.338 664.938,811.442L637.336,811.442C637.801,799.152 640.027,789.221 644.013,781.648C651.586,767.232 665.038,760.024 684.37,760.024C699.649,760.024 711.806,764.259 720.84,772.729C729.875,781.199 734.392,792.41 734.392,806.36C734.392,817.056 731.204,826.555 724.826,834.859C720.641,840.373 713.765,846.518 704.199,853.294L692.84,861.365C685.731,866.414 680.865,870.068 678.241,872.326C675.617,874.585 673.408,877.209 671.615,880.198L734.691,880.198L734.691,905.21L635.742,905.21C636.008,894.846 638.233,885.38 642.418,876.81Z" style="fill:rgb(237,213,115);fill-rule:nonzero;"/></g><g transform="matrix(0.746503,0,0,0.746503,118.918,297.381)"><path d="M799.063,885.679C807.5,885.679 813.03,881.278 815.654,872.476C818.278,863.674 819.59,850.969 819.59,834.361C819.59,816.956 818.278,804.068 815.654,795.698C813.03,787.328 807.5,783.142 799.063,783.142C790.626,783.142 785.046,787.328 782.322,795.698C779.599,804.068 778.237,816.956 778.237,834.361C778.237,850.969 779.599,863.674 782.322,872.476C785.046,881.278 790.626,885.679 799.063,885.679ZM848.886,834.361C848.886,858.21 845.183,876.578 837.776,889.466C830.369,902.353 817.464,908.797 799.063,908.797C780.662,908.797 767.757,902.353 760.35,889.466C752.943,876.578 749.24,858.21 749.24,834.361C749.24,810.512 752.943,792.111 760.35,779.157C767.757,766.203 780.662,759.725 799.063,759.725C817.464,759.725 830.369,766.203 837.776,779.157C845.183,792.111 848.886,810.512 848.886,834.361Z" style="fill:rgb(237,213,115);fill-rule:nonzero;"/></g><g transform="matrix(0.276341,0,0,0.276341,455.446,541.346)"><path d="M764.6,1324C761.466,1344.8 753.345,1363.74 740.236,1380.81C728.93,1395.71 710.356,1412.31 684.515,1430.61L653.828,1452.41C634.626,1466.05 621.481,1475.92 614.392,1482.03C607.304,1488.13 601.337,1495.21 596.491,1503.29L637.656,1503.29C597.987,1523.16 557.53,1545.28 520.877,1570.86L499.585,1570.86C500.303,1542.86 506.314,1517.29 517.62,1494.14C520.031,1488.41 523.163,1482.6 527.02,1476.72C549.978,1462.31 572.923,1447.88 595.946,1433.59C652.863,1398.27 708.642,1361.01 764.6,1324ZM997.311,1179.44C1018.05,1188.05 1034.07,1202.22 1045.36,1221.96C1051.66,1232.99 1056.97,1245.48 1061.29,1259.42C1038.49,1273.82 1015.65,1288.18 992.758,1302.44C991.023,1288.27 988.636,1276.34 985.598,1266.65C978.509,1244.04 963.569,1232.73 940.778,1232.73C917.987,1232.73 902.913,1244.04 895.555,1266.65C888.329,1288.86 884.652,1322.83 884.523,1368.57C859.076,1383.75 833.506,1398.69 807.783,1413.31C806.718,1400.02 806.186,1385.95 806.186,1371.09C806.186,1341.9 808.241,1315.72 812.351,1292.57C836.103,1277.04 859.962,1261.67 884.016,1246.62C921.176,1223.37 959.059,1201.11 997.311,1179.44ZM683.397,1275.9C681.146,1270.05 678.019,1264.73 674.017,1259.95C664.864,1249 651.764,1243.53 634.716,1243.53C611.386,1243.53 595.504,1252.23 587.07,1269.64C582.225,1279.69 579.353,1295.66 578.456,1317.55L503.892,1317.55C505.148,1284.35 511.16,1257.53 521.927,1237.07C542.385,1198.12 578.725,1178.65 630.947,1178.65C672.222,1178.65 705.062,1190.09 729.469,1212.98C737.896,1220.88 744.868,1229.66 750.384,1239.32C728.133,1251.67 705.814,1263.89 683.397,1275.9Z" style="fill:url(#_Linear5);fill-rule:nonzero;"/></g></g><g transform="matrix(3.43138,0,0,3.43138,-2911.58,-3505.07)"><g transform="matrix(1,0,0,1,23.328,0)"><path d="M1623.72,1359.51C1619.47,1363.7 1613.56,1371.16 1605.99,1381.88C1598.41,1392.61 1592.07,1403.69 1586.95,1415.12C1582.9,1424.09 1579.25,1435.05 1575.99,1448C1572.74,1460.95 1571.11,1471.58 1571.11,1479.89L1541.61,1479.89C1542.48,1453.98 1550.98,1427.04 1567.12,1399.07C1577.55,1381.74 1586.29,1369.64 1593.33,1362.8L1521.29,1362.8L1521.68,1337.29L1623.72,1337.29L1623.72,1359.51Z" style="fill:rgb(159,77,109);fill-rule:nonzero;"/></g><g transform="matrix(1,0,0,0.979348,23.328,27.627)"><path d="M1685.8,1460.36C1694.24,1460.36 1699.77,1455.96 1702.39,1447.15C1705.02,1438.35 1706.33,1425.65 1706.33,1409.04C1706.33,1391.63 1705.02,1378.75 1702.39,1370.38C1699.77,1362.01 1694.24,1357.82 1685.8,1357.82C1677.37,1357.82 1671.79,1362.01 1669.06,1370.38C1666.34,1378.75 1664.98,1391.63 1664.98,1409.04C1664.98,1425.65 1666.34,1438.35 1669.06,1447.15C1671.79,1455.96 1677.37,1460.36 1685.8,1460.36ZM1735.63,1409.04C1735.63,1432.89 1731.92,1451.26 1724.52,1464.14C1717.11,1477.03 1704.2,1483.48 1685.8,1483.48C1667.4,1483.48 1654.5,1477.03 1647.09,1464.14C1639.68,1451.26 1635.98,1432.89 1635.98,1409.04C1635.98,1385.19 1639.68,1366.79 1647.09,1353.83C1654.5,1340.88 1667.4,1334.4 1685.8,1334.4C1704.2,1334.4 1717.11,1340.88 1724.52,1353.83C1731.92,1366.79 1735.63,1385.19 1735.63,1409.04Z" style="fill:rgb(159,77,109);fill-rule:nonzero;"/></g><path d="M1623.72,1359.51C1619.47,1363.7 1613.56,1371.16 1605.99,1381.88C1598.41,1392.61 1592.07,1403.69 1586.95,1415.12C1582.9,1424.09 1579.25,1435.05 1575.99,1448C1572.74,1460.95 1571.11,1471.58 1571.11,1479.89L1541.61,1479.89C1542.48,1453.98 1550.98,1427.04 1567.12,1399.07C1577.55,1381.74 1586.29,1369.64 1593.33,1362.8L1521.29,1362.8L1521.68,1337.29L1623.72,1337.29L1623.72,1359.51Z" style="fill:rgb(236,97,152);fill-rule:nonzero;"/><g transform="matrix(1,0,0,0.979348,0,27.627)"><path d="M1685.8,1460.36C1694.24,1460.36 1699.77,1455.96 1702.39,1447.15C1705.02,1438.35 1706.33,1425.65 1706.33,1409.04C1706.33,1391.63 1705.02,1378.75 1702.39,1370.38C1699.77,1362.01 1694.24,1357.82 1685.8,1357.82C1677.37,1357.82 1671.79,1362.01 1669.06,1370.38C1666.34,1378.75 1664.98,1391.63 1664.98,1409.04C1664.98,1425.65 1666.34,1438.35 1669.06,1447.15C1671.79,1455.96 1677.37,1460.36 1685.8,1460.36ZM1735.63,1409.04C1735.63,1432.89 1731.92,1451.26 1724.52,1464.14C1717.11,1477.03 1704.2,1483.48 1685.8,1483.48C1667.4,1483.48 1654.5,1477.03 1647.09,1464.14C1639.68,1451.26 1635.98,1432.89 1635.98,1409.04C1635.98,1385.19 1639.68,1366.79 1647.09,1353.83C1654.5,1340.88 1667.4,1334.4 1685.8,1334.4C1704.2,1334.4 1717.11,1340.88 1724.52,1353.83C1731.92,1366.79 1735.63,1385.19 1735.63,1409.04Z" style="fill:rgb(236,97,152);fill-rule:nonzero;"/></g><g transform="matrix(0.36905,0,0,0.36905,1292.34,900.445)"><path d="M796.328,1399.03C786.129,1422.48 776.884,1450.7 768.594,1483.69C763.241,1504.99 759.513,1523.98 757.408,1540.64C735.295,1550.4 713.263,1560.38 691.141,1570.09L675.441,1570.09C676.837,1528.22 685.598,1485.35 701.728,1441.48C733.133,1427.05 764.706,1412.99 796.328,1399.03ZM1014.06,1301.41C1011.16,1320.94 1009.71,1345.18 1009.71,1374.13C1009.71,1397.3 1010.73,1417.61 1012.77,1435.06C988.732,1445.59 964.635,1455.98 940.431,1466.14C934.236,1439.95 931.14,1409.28 931.14,1374.13C931.14,1361.8 931.52,1350.03 932.281,1338.81C943.01,1333.97 953.728,1329.09 964.426,1324.17C980.985,1316.56 997.529,1308.96 1014.06,1301.41ZM1173.17,1231.39C1189.43,1261.15 1198.6,1301.11 1200.69,1351.29C1174.31,1362.97 1147.98,1374.78 1121.67,1386.59C1121.73,1382.53 1121.77,1378.37 1121.77,1374.13C1121.77,1327.94 1118.21,1293.74 1111.1,1271.53C1109.75,1267.3 1108.11,1263.48 1106.19,1260.07C1128.45,1250.3 1150.77,1240.72 1173.17,1231.39ZM746.366,1348.13C773.831,1302.75 796.902,1270.98 815.576,1252.83L620.359,1252.83L621.439,1183.71L897.929,1183.71L897.929,1243.92C886.408,1255.26 870.388,1275.47 849.867,1304.54C849.073,1305.66 848.284,1306.79 847.498,1307.92C813.903,1321.56 780.228,1335.02 746.366,1348.13ZM944.062,1268.35C948.598,1253.06 954.325,1239.48 961.246,1227.63C981.316,1193.25 1016.28,1176.07 1066.14,1176.07C1094.01,1176.07 1117.23,1181.43 1135.79,1192.17C1110.3,1201.54 1084.83,1210.94 1059.65,1221.09C1020.97,1236.69 982.488,1252.53 944.062,1268.35Z" style="fill:url(#_Linear6);fill-rule:nonzero;"/></g></g></g><g transform="matrix(1,0,0,1,-13.9877,-34.3912)"><path d="M1906.02,1490.68C1903.98,1492.83 1901.63,1494.05 1899.12,1494.05C1891.25,1494.05 1884.86,1481.93 1884.86,1466.99C1884.86,1452.06 1891.25,1439.94 1899.12,1439.94C1902.14,1439.94 1904.95,1441.72 1907.25,1444.76C1902.86,1449.38 1899.89,1458.26 1899.89,1468.45C1899.89,1477.65 1902.32,1485.79 1906.02,1490.68Z" style="fill:rgb(54,118,168);"/></g><g transform="matrix(1,0,0,1,-13.9877,139.484)"><path d="M1906.02,1490.68C1903.98,1492.83 1901.63,1494.05 1899.12,1494.05C1891.25,1494.05 1884.86,1481.93 1884.86,1466.99C1884.86,1452.06 1891.25,1439.94 1899.12,1439.94C1902.14,1439.94 1904.95,1441.72 1907.25,1444.76C1902.86,1449.38 1899.89,1458.26 1899.89,1468.45C1899.89,1477.65 1902.32,1485.79 1906.02,1490.68Z" style="fill:rgb(54,118,168);"/></g><g transform="matrix(1,0,0,1,-13.9877,313.358)"><path d="M1906.02,1490.68C1903.98,1492.83 1901.63,1494.05 1899.12,1494.05C1891.25,1494.05 1884.86,1481.93 1884.86,1466.99C1884.86,1452.06 1891.25,1439.94 1899.12,1439.94C1902.14,1439.94 1904.95,1441.72 1907.25,1444.76C1902.86,1449.38 1899.89,1458.26 1899.89,1468.45C1899.89,1477.65 1902.32,1485.79 1906.02,1490.68Z" style="fill:rgb(54,118,168);"/></g><g transform="matrix(1,0,0,1,21.7545,104.198)"><g transform="matrix(1,0,0,0.919266,10.4254,128.837)"><rect x="1596.7" y="1595.83" width="160.827" height="280.985" style="fill:rgb(14,132,124);"/></g><g transform="matrix(1,0,0,0.919266,0,128.837)"><rect x="1596.7" y="1595.83" width="160.827" height="280.985" style="fill:rgb(63,160,146);"/><clipPath id="_clip7"><rect x="1596.7" y="1595.83" width="160.827" height="280.985"/></clipPath><g clip-path="url(#_clip7)"><g transform="matrix(1,0,0,1.08782,0,-140.152)"><path d="M1636.82,1638.44L1636.82,1585.49L1630.6,1585.49L1630.6,1638.44L1581.12,1638.44L1581.12,1644.6L1630.6,1644.6L1630.6,1689.89L1581.12,1689.89L1581.12,1696.06L1630.6,1696.06L1630.6,1741.35L1581.12,1741.35L1581.12,1747.51L1630.6,1747.51L1630.6,1792.8L1581.12,1792.8L1581.12,1798.97L1630.6,1798.97L1630.6,1883.08L1636.82,1883.08L1636.82,1798.97L1672.68,1798.97L1672.68,1883.08L1678.91,1883.08L1678.91,1798.97L1711.79,1798.97L1711.79,1883.08L1718.02,1883.08L1718.02,1798.97L1768.05,1798.97L1768.05,1792.8L1718.02,1792.8L1718.02,1747.51L1768.05,1747.51L1768.05,1741.35L1718.02,1741.35L1718.02,1696.06L1768.05,1696.06L1768.05,1689.89L1718.02,1689.89L1718.02,1644.6L1768.05,1644.6L1768.05,1638.44L1718.02,1638.44L1718.02,1585.49L1711.79,1585.49L1711.79,1638.44L1678.91,1638.44L1678.91,1585.49L1672.68,1585.49L1672.68,1638.44L1636.82,1638.44ZM1711.79,1747.51L1678.91,1747.51L1678.91,1792.8L1711.79,1792.8L1711.79,1747.51ZM1672.68,1747.51L1636.82,1747.51L1636.82,1792.8L1672.68,1792.8L1672.68,1747.51ZM1711.79,1696.06L1678.91,1696.06L1678.91,1741.35L1711.79,1741.35L1711.79,1696.06ZM1672.68,1696.06L1636.82,1696.06L1636.82,1741.35L1672.68,1741.35L1672.68,1696.06ZM1711.79,1644.6L1678.91,1644.6L1678.91,1689.89L1711.79,1689.89L1711.79,1644.6ZM1672.68,1644.6L1636.82,1644.6L1636.82,1689.89L1672.68,1689.89L1672.68,1644.6Z" style="fill:white;fill-opacity:0.45;"/></g></g></g></g><g transform="matrix(1,0,0,1,-4.05364,-5.38843)"><circle cx="1283.39" cy="1749.91" r="14.703" style="fill:rgb(122,183,231);"/></g><g transform="matrix(1,0,0,1,65.2267,-5.38843)"><circle cx="1283.39" cy="1749.91" r="14.703" style="fill:rgb(122,183,231);"/></g><g transform="matrix(1,0,0,1,134.507,-5.38843)"><circle cx="1283.39" cy="1749.91" r="14.703" style="fill:rgb(122,183,231);"/></g><g transform="matrix(1.02685,0,0,1,-38.5193,0)"><rect x="1266.25" y="1807.73" width="168.2" height="83.488" style="fill:rgb(177,213,241);"/></g><g transform="matrix(1.02685,0,0,0.563902,-38.5193,824.757)"><path d="M1434.45,1807.73L1300.05,1807.73L1266.25,1891.22L1434.45,1891.22L1434.45,1807.73Z" style="fill:rgb(122,183,231);"/></g></g></g></g></g><defs><linearGradient id="_Linear2" x1="0" y1="0" x2="1" y2="0" gradientUnits="userSpaceOnUse" gradientTransform="matrix(4.24755,-350.993,-588.258,-2.53436,1300.77,1882.81)"><stop offset="0" style="stop-color:black;stop-opacity:0"/><stop offset="1" style="stop-color:black;stop-opacity:1"/></linearGradient><linearGradient id="_Linear3" x1="0" y1="0" x2="1" y2="0.384289" gradientUnits="userSpaceOnUse" gradientTransform="matrix(-391.176,-883.85,993.761,-10.3928,1970.38,1313.77)"><stop offset="0" style="stop-color:white;stop-opacity:0"/><stop offset="1" style="stop-color:white;stop-opacity:1"/></linearGradient><linearGradient id="_Linear4" x1="0" y1="0" x2="1" y2="0" gradientUnits="userSpaceOnUse" gradientTransform="matrix(-41.456,581.422,-581.422,-41.456,3185.02,1592.35)"><stop offset="0" style="stop-color:black;stop-opacity:0"/><stop offset="1" style="stop-color:black;stop-opacity:1"/></linearGradient><linearGradient id="_Linear5" x1="0" y1="0" x2="1" y2="0" gradientUnits="userSpaceOnUse" gradientTransform="matrix(-160.788,-555.66,555.66,-160.788,993.652,1542.62)"><stop offset="0" style="stop-color:white;stop-opacity:0"/><stop offset="1" style="stop-color:white;stop-opacity:1"/></linearGradient><linearGradient id="_Linear6" x1="0" y1="0" x2="1" y2="0" gradientUnits="userSpaceOnUse" gradientTransform="matrix(-199.574,-640.078,640.078,-199.574,1056.72,1513.48)"><stop offset="0" style="stop-color:white;stop-opacity:0"/><stop offset="1" style="stop-color:white;stop-opacity:1"/></linearGradient></defs></svg>